<svg height="600" width="800" xmlns:xlink="http://www.w3.org/1999/xlink" xmlns="http://www.w3.org/2000/svg"><defs><linearGradient xlink:href="#a" id="d" x1="1806.767" y1="-2172.169" x2="1806.767" y2="-2120.872" gradientUnits="userSpaceOnUse" gradientTransform="matrix(.81328 0 0 .81328 283.604 1005.054)"/><linearGradient id="a"><stop style="stop-color:#e01b24;stop-opacity:1" offset="0"/><stop style="stop-color:#f66151;stop-opacity:1" offset=".211"/><stop style="stop-color:#e01b24;stop-opacity:1" offset=".486"/><stop style="stop-color:#c01c28;stop-opacity:1" offset=".842"/><stop style="stop-color:#de4759;stop-opacity:1" offset="1"/></linearGradient><clipPath clipPathUnits="userSpaceOnUse" id="c"><path style="fill:#9141ac;stroke:none;stroke-width:4.31117;-inkscape-stroke:none;stop-color:#000" d="M3131.597-1185.356v53.89h100.594v-.109c14.134-.944 25.123-12.671 25.148-26.836 0-14.182-10.998-25.934-25.148-26.88v-.065h-1.796z"/></clipPath><clipPath clipPathUnits="userSpaceOnUse" id="b"><path style="font-variation-settings:normal;display:block;opacity:1;vector-effect:none;fill:#77767b;fill-opacity:1;stroke:none;stroke-width:5.04302;stroke-linecap:round;stroke-linejoin:miter;stroke-miterlimit:4;stroke-dasharray:none;stroke-dashoffset:0;stroke-opacity:1;marker:none;marker-start:none;marker-mid:none;marker-end:none;paint-order:normal;stop-color:#000;stop-opacity:1" class="powerclip" d="M399.306 389.64h285.156v408.042H399.306zm216.553 258.086a73.976 73.976 0 0 0-73.975-73.975 73.976 73.976 0 0 0-73.976 73.975 73.976 73.976 0 0 0 73.976 73.976 73.976 73.976 0 0 0 73.975-73.976z"/></clipPath></defs><g clip-path="url(#b)" transform="translate(88.788 -3.082) scale(.50428)" style="stroke-width:.986377"><path style="font-variation-settings:normal;opacity:1;vector-effect:none;fill:#000;fill-opacity:.102362;stroke:none;stroke-width:4.96026;stroke-linecap:round;stroke-linejoin:miter;stroke-miterlimit:4;stroke-dasharray:none;stroke-dashoffset:0;stroke-opacity:1;marker:none;marker-start:none;marker-mid:none;marker-end:none;paint-order:normal;stop-color:#000;stop-opacity:1" d="M424.979 482.036h233.81a20.628 20.628 0 0 1 20.673 20.673v269.3a20.628 20.628 0 0 1-20.674 20.673H424.98a20.628 20.628 0 0 1-20.673-20.674V502.71a20.628 20.628 0 0 1 20.673-20.673z"/><path style="font-variation-settings:normal;opacity:1;vector-effect:none;fill:#5e5c64;fill-opacity:1;stroke:none;stroke-width:4.97431;stroke-linecap:round;stroke-linejoin:miter;stroke-miterlimit:4;stroke-dasharray:none;stroke-dashoffset:0;stroke-opacity:1;marker:none;marker-start:none;marker-mid:none;marker-end:none;paint-order:normal;stop-color:#000;stop-opacity:1" d="M424.979 475.975h233.81a20.628 20.628 0 0 1 20.673 20.673v269.3a20.628 20.628 0 0 1-20.674 20.673H424.98a20.628 20.628 0 0 1-20.673-20.674V496.65a20.628 20.628 0 0 1 20.673-20.674z"/><path style="fill:#434348;fill-opacity:1;stroke-width:.986377;stroke-linecap:round;stop-color:#000" d="M404.306 394.64h275.156v310.646H404.306z"/></g><g style="display:inline;stroke-width:.959464;enable-background:new"><path style="display:inline;opacity:1;vector-effect:none;fill:#000;fill-opacity:1;stroke:none;stroke-width:.0472534px;stroke-linecap:butt;stroke-linejoin:miter;stroke-miterlimit:4;stroke-dasharray:none;stroke-dashoffset:0;stroke-opacity:1;marker:none;marker-start:none;marker-mid:none;marker-end:none;paint-order:normal;enable-background:new" d="M1367.735-75.863v297.615a8 8 135 0 1-8 8h-487.47a8 8 45 0 1-8-8V-75.863a8 8 135 0 1 8-8h487.47a8 8 45 0 1 8 8z" transform="matrix(.91803 0 0 .91803 -665.92 104.353)"/></g><path style="fill:#26a269;fill-opacity:1;stroke:none;stroke-width:.405594;stroke-linecap:round;stop-color:#000" d="M1459.808-853.002h194.685v117.622h-194.685z" transform="translate(-3186.887 1979.104) scale(2.27717)"/><g transform="matrix(4.46402 0 0 4.46402 -40.273 -408.376)" style="display:inline;stroke-width:1.04199"><rect style="display:inline;opacity:1;vector-effect:none;fill:#000;fill-opacity:.102362;stroke:none;stroke-width:1.037;stroke-linecap:round;stroke-linejoin:miter;stroke-miterlimit:4;stroke-dasharray:none;stroke-dashoffset:0;stroke-opacity:1;marker:none;marker-start:none;marker-mid:none;marker-end:none;paint-order:normal" width="63.5" height="34.315" x="57.958" y="185.417" rx="1.771" ry="1.771"/><rect ry="1.771" rx="1.771" y="183.9" x="57.958" height="34.51" width="63.5" style="display:inline;opacity:1;vector-effect:none;fill:#5e5c64;fill-opacity:1;stroke:none;stroke-width:1.03994;stroke-linecap:round;stroke-linejoin:miter;stroke-miterlimit:4;stroke-dasharray:none;stroke-dashoffset:0;stroke-opacity:1;marker:none;marker-start:none;marker-mid:none;marker-end:none;paint-order:normal"/><rect style="display:inline;opacity:1;vector-effect:none;fill:#9a9996;fill-opacity:1;stroke:none;stroke-width:1.037;stroke-linecap:round;stroke-linejoin:miter;stroke-miterlimit:4;stroke-dasharray:none;stroke-dashoffset:0;stroke-opacity:1;marker:none;marker-start:none;marker-mid:none;marker-end:none;paint-order:normal" width="63.5" height="34.315" x="57.958" y="182.691" rx="1.771" ry="1.771"/><path style="display:inline;opacity:1;vector-effect:none;fill:#000;fill-opacity:1;stroke:none;stroke-width:1.65416;stroke-linecap:round;stroke-linejoin:miter;stroke-miterlimit:4;stroke-dasharray:none;stroke-dashoffset:0;stroke-opacity:1;marker:none;marker-start:none;marker-mid:none;marker-end:none;paint-order:normal" d="M89.808 207.032h20.13a1.01 1.01 0 0 1 1.013 1.013v3.266a1.01 1.01 0 0 1-1.013 1.013h-20.13a1.01 1.01 0 0 1-1.012-1.013v-3.266a1.01 1.01 0 0 1 1.012-1.013z"/><path style="display:inline;opacity:1;vector-effect:none;fill:#000;fill-opacity:1;stroke:none;stroke-width:1.65416;stroke-linecap:round;stroke-linejoin:miter;stroke-miterlimit:4;stroke-dasharray:none;stroke-dashoffset:0;stroke-opacity:1;marker:none;marker-start:none;marker-mid:none;marker-end:none;paint-order:normal" d="M113.21 207.032h4.59a1.01 1.01 0 0 1 1.012 1.013v3.266a1.01 1.01 0 0 1-1.013 1.013h-4.588a1.01 1.01 0 0 1-1.013-1.013v-3.266a1.01 1.01 0 0 1 1.013-1.013z"/><path style="display:inline;opacity:1;vector-effect:none;fill:#000;fill-opacity:1;stroke:none;stroke-width:1.65416;stroke-linecap:round;stroke-linejoin:miter;stroke-miterlimit:4;stroke-dasharray:none;stroke-dashoffset:0;stroke-opacity:1;marker:none;marker-start:none;marker-mid:none;marker-end:none;paint-order:normal" d="M109.242 200.418h3.266a1.01 1.01 0 0 1 1.013 1.013v3.266a1.01 1.01 0 0 1-1.013 1.012h-3.266a1.01 1.01 0 0 1-1.013-1.012v-3.266a1.01 1.01 0 0 1 1.013-1.013z"/><path style="display:inline;opacity:1;vector-effect:none;fill:#000;fill-opacity:1;stroke:none;stroke-width:1.65416;stroke-linecap:round;stroke-linejoin:miter;stroke-miterlimit:4;stroke-dasharray:none;stroke-dashoffset:0;stroke-opacity:1;marker:none;marker-start:none;marker-mid:none;marker-end:none;paint-order:normal" d="M101.304 200.418h4.589a1.01 1.01 0 0 1 1.013 1.013v3.266a1.01 1.01 0 0 1-1.013 1.012h-4.589a1.01 1.01 0 0 1-1.013-1.012v-3.266a1.01 1.01 0 0 1 1.013-1.013z"/><path style="display:inline;opacity:1;vector-effect:none;fill:#000;fill-opacity:1;stroke:none;stroke-width:1.65416;stroke-linecap:round;stroke-linejoin:miter;stroke-miterlimit:4;stroke-dasharray:none;stroke-dashoffset:0;stroke-opacity:1;marker:none;marker-start:none;marker-mid:none;marker-end:none;paint-order:normal" d="M93.367 200.418h4.588a1.01 1.01 0 0 1 1.013 1.013v3.266a1.01 1.01 0 0 1-1.013 1.012h-4.588a1.01 1.01 0 0 1-1.013-1.012v-3.266a1.01 1.01 0 0 1 1.013-1.013z"/><path style="display:inline;opacity:1;vector-effect:none;fill:#000;fill-opacity:1;stroke:none;stroke-width:1.65416;stroke-linecap:round;stroke-linejoin:miter;stroke-miterlimit:4;stroke-dasharray:none;stroke-dashoffset:0;stroke-opacity:1;marker:none;marker-start:none;marker-mid:none;marker-end:none;paint-order:normal" d="M85.43 200.418h4.588a1.01 1.01 0 0 1 1.013 1.013v3.266a1.01 1.01 0 0 1-1.013 1.012h-4.589a1.01 1.01 0 0 1-1.013-1.012v-3.266a1.01 1.01 0 0 1 1.013-1.013z"/><path style="display:inline;opacity:1;vector-effect:none;fill:#000;fill-opacity:1;stroke:none;stroke-width:1.65416;stroke-linecap:round;stroke-linejoin:miter;stroke-miterlimit:4;stroke-dasharray:none;stroke-dashoffset:0;stroke-opacity:1;marker:none;marker-start:none;marker-mid:none;marker-end:none;paint-order:normal" d="M77.492 200.418h4.588a1.01 1.01 0 0 1 1.013 1.013v3.266a1.01 1.01 0 0 1-1.013 1.012h-4.588a1.01 1.01 0 0 1-1.013-1.012v-3.266a1.01 1.01 0 0 1 1.013-1.013z"/><path style="display:inline;opacity:1;vector-effect:none;fill:#000;fill-opacity:1;stroke:none;stroke-width:1.65416;stroke-linecap:round;stroke-linejoin:miter;stroke-miterlimit:4;stroke-dasharray:none;stroke-dashoffset:0;stroke-opacity:1;marker:none;marker-start:none;marker-mid:none;marker-end:none;paint-order:normal" d="M69.554 200.418h4.589a1.01 1.01 0 0 1 1.013 1.013v3.266a1.01 1.01 0 0 1-1.013 1.012h-4.589a1.01 1.01 0 0 1-1.013-1.012v-3.266a1.01 1.01 0 0 1 1.013-1.013z"/><path style="display:inline;opacity:1;vector-effect:none;fill:#000;fill-opacity:1;stroke:none;stroke-width:1.65416;stroke-linecap:round;stroke-linejoin:miter;stroke-miterlimit:4;stroke-dasharray:none;stroke-dashoffset:0;stroke-opacity:1;marker:none;marker-start:none;marker-mid:none;marker-end:none;paint-order:normal" d="M105.273 193.803h4.589a1.01 1.01 0 0 1 1.013 1.013v3.266a1.01 1.01 0 0 1-1.013 1.013h-4.589a1.01 1.01 0 0 1-1.013-1.013v-3.266a1.01 1.01 0 0 1 1.013-1.013z"/><path style="display:inline;opacity:1;vector-effect:none;fill:#000;fill-opacity:1;stroke:none;stroke-width:1.65416;stroke-linecap:round;stroke-linejoin:miter;stroke-miterlimit:4;stroke-dasharray:none;stroke-dashoffset:0;stroke-opacity:1;marker:none;marker-start:none;marker-mid:none;marker-end:none;paint-order:normal" d="M97.336 193.803h4.588a1.01 1.01 0 0 1 1.013 1.013v3.266a1.01 1.01 0 0 1-1.013 1.013h-4.588a1.01 1.01 0 0 1-1.013-1.013v-3.266a1.01 1.01 0 0 1 1.013-1.013z"/><path style="display:inline;opacity:1;vector-effect:none;fill:#000;fill-opacity:1;stroke:none;stroke-width:1.65416;stroke-linecap:round;stroke-linejoin:miter;stroke-miterlimit:4;stroke-dasharray:none;stroke-dashoffset:0;stroke-opacity:1;marker:none;marker-start:none;marker-mid:none;marker-end:none;paint-order:normal" d="M89.398 193.803h4.589A1.01 1.01 0 0 1 95 194.816v3.266a1.01 1.01 0 0 1-1.013 1.013h-4.589a1.01 1.01 0 0 1-1.013-1.013v-3.266a1.01 1.01 0 0 1 1.013-1.013z"/><path style="display:inline;opacity:1;vector-effect:none;fill:#000;fill-opacity:1;stroke:none;stroke-width:1.65416;stroke-linecap:round;stroke-linejoin:miter;stroke-miterlimit:4;stroke-dasharray:none;stroke-dashoffset:0;stroke-opacity:1;marker:none;marker-start:none;marker-mid:none;marker-end:none;paint-order:normal" d="M81.46 193.803h4.59a1.01 1.01 0 0 1 1.012 1.013v3.266a1.01 1.01 0 0 1-1.013 1.013h-4.588a1.01 1.01 0 0 1-1.013-1.013v-3.266a1.01 1.01 0 0 1 1.013-1.013z"/><path style="display:inline;opacity:1;vector-effect:none;fill:#000;fill-opacity:1;stroke:none;stroke-width:1.65416;stroke-linecap:round;stroke-linejoin:miter;stroke-miterlimit:4;stroke-dasharray:none;stroke-dashoffset:0;stroke-opacity:1;marker:none;marker-start:none;marker-mid:none;marker-end:none;paint-order:normal" d="M73.523 193.803h4.589a1.01 1.01 0 0 1 1.013 1.013v3.266a1.01 1.01 0 0 1-1.013 1.013h-4.589a1.01 1.01 0 0 1-1.013-1.013v-3.266a1.01 1.01 0 0 1 1.013-1.013z"/><path style="display:inline;opacity:1;vector-effect:none;fill:#000;fill-opacity:1;stroke:none;stroke-width:1.65416;stroke-linecap:round;stroke-linejoin:miter;stroke-miterlimit:4;stroke-dasharray:none;stroke-dashoffset:0;stroke-opacity:1;marker:none;marker-start:none;marker-mid:none;marker-end:none;paint-order:normal" d="M61.617 193.803h8.557a1.01 1.01 0 0 1 1.013 1.013v3.266a1.01 1.01 0 0 1-1.013 1.013h-8.557a1.01 1.01 0 0 1-1.013-1.013v-3.266a1.01 1.01 0 0 1 1.013-1.013z"/><path style="display:inline;opacity:1;vector-effect:none;fill:#000;fill-opacity:1;stroke:none;stroke-width:1.65416;stroke-linecap:round;stroke-linejoin:miter;stroke-miterlimit:4;stroke-dasharray:none;stroke-dashoffset:0;stroke-opacity:1;marker:none;marker-start:none;marker-mid:none;marker-end:none;paint-order:normal" d="M109.242 187.189h8.557a1.01 1.01 0 0 1 1.013 1.013v3.265a1.01 1.01 0 0 1-1.013 1.013h-8.557a1.01 1.01 0 0 1-1.013-1.013v-3.265a1.01 1.01 0 0 1 1.013-1.013z"/><path style="display:inline;opacity:1;vector-effect:none;fill:#000;fill-opacity:1;stroke:none;stroke-width:1.65416;stroke-linecap:round;stroke-linejoin:miter;stroke-miterlimit:4;stroke-dasharray:none;stroke-dashoffset:0;stroke-opacity:1;marker:none;marker-start:none;marker-mid:none;marker-end:none;paint-order:normal" d="M101.304 187.189h4.589a1.01 1.01 0 0 1 1.013 1.013v3.265a1.01 1.01 0 0 1-1.013 1.013h-4.589a1.01 1.01 0 0 1-1.013-1.013v-3.265a1.01 1.01 0 0 1 1.013-1.013z"/><path style="display:inline;opacity:1;vector-effect:none;fill:#000;fill-opacity:1;stroke:none;stroke-width:1.65416;stroke-linecap:round;stroke-linejoin:miter;stroke-miterlimit:4;stroke-dasharray:none;stroke-dashoffset:0;stroke-opacity:1;marker:none;marker-start:none;marker-mid:none;marker-end:none;paint-order:normal" d="M93.367 187.189h4.588a1.01 1.01 0 0 1 1.013 1.013v3.265a1.01 1.01 0 0 1-1.013 1.013h-4.588a1.01 1.01 0 0 1-1.013-1.013v-3.265a1.01 1.01 0 0 1 1.013-1.013z"/><path style="display:inline;opacity:1;vector-effect:none;fill:#000;fill-opacity:1;stroke:none;stroke-width:1.65416;stroke-linecap:round;stroke-linejoin:miter;stroke-miterlimit:4;stroke-dasharray:none;stroke-dashoffset:0;stroke-opacity:1;marker:none;marker-start:none;marker-mid:none;marker-end:none;paint-order:normal" d="M85.43 187.189h4.588a1.01 1.01 0 0 1 1.013 1.013v3.265a1.01 1.01 0 0 1-1.013 1.013h-4.589a1.01 1.01 0 0 1-1.013-1.013v-3.265a1.01 1.01 0 0 1 1.013-1.013z"/><path style="display:inline;opacity:1;vector-effect:none;fill:#000;fill-opacity:1;stroke:none;stroke-width:1.65416;stroke-linecap:round;stroke-linejoin:miter;stroke-miterlimit:4;stroke-dasharray:none;stroke-dashoffset:0;stroke-opacity:1;marker:none;marker-start:none;marker-mid:none;marker-end:none;paint-order:normal" d="M77.492 187.189h4.588a1.01 1.01 0 0 1 1.013 1.013v3.265a1.01 1.01 0 0 1-1.013 1.013h-4.588a1.01 1.01 0 0 1-1.013-1.013v-3.265a1.01 1.01 0 0 1 1.013-1.013z"/><path style="display:inline;opacity:1;vector-effect:none;fill:#000;fill-opacity:1;stroke:none;stroke-width:1.65416;stroke-linecap:round;stroke-linejoin:miter;stroke-miterlimit:4;stroke-dasharray:none;stroke-dashoffset:0;stroke-opacity:1;marker:none;marker-start:none;marker-mid:none;marker-end:none;paint-order:normal" d="M69.554 187.189h4.589a1.01 1.01 0 0 1 1.013 1.013v3.265a1.01 1.01 0 0 1-1.013 1.013h-4.589a1.01 1.01 0 0 1-1.013-1.013v-3.265a1.01 1.01 0 0 1 1.013-1.013z"/><path style="display:inline;opacity:1;vector-effect:none;fill:#000;fill-opacity:1;stroke:none;stroke-width:1.65416;stroke-linecap:round;stroke-linejoin:miter;stroke-miterlimit:4;stroke-dasharray:none;stroke-dashoffset:0;stroke-opacity:1;marker:none;marker-start:none;marker-mid:none;marker-end:none;paint-order:normal" d="M61.617 187.189h4.588a1.01 1.01 0 0 1 1.013 1.013v3.265a1.01 1.01 0 0 1-1.013 1.013h-4.588a1.01 1.01 0 0 1-1.013-1.013v-3.265a1.01 1.01 0 0 1 1.013-1.013z"/><path style="display:inline;opacity:1;vector-effect:none;fill:#000;fill-opacity:1;stroke:none;stroke-width:1.65416;stroke-linecap:round;stroke-linejoin:miter;stroke-miterlimit:4;stroke-dasharray:none;stroke-dashoffset:0;stroke-opacity:1;marker:none;marker-start:none;marker-mid:none;marker-end:none;paint-order:normal" d="M61.617 200.418h4.588a1.01 1.01 0 0 1 1.013 1.013v3.266a1.01 1.01 0 0 1-1.013 1.012h-4.588a1.01 1.01 0 0 1-1.013-1.012v-3.266a1.01 1.01 0 0 1 1.013-1.013z"/><path style="display:inline;opacity:1;vector-effect:none;fill:#000;fill-opacity:1;stroke:none;stroke-width:1.65416;stroke-linecap:round;stroke-linejoin:miter;stroke-miterlimit:4;stroke-dasharray:none;stroke-dashoffset:0;stroke-opacity:1;marker:none;marker-start:none;marker-mid:none;marker-end:none;paint-order:normal" d="M73.523 207.032h4.589a1.01 1.01 0 0 1 1.013 1.013v3.266a1.01 1.01 0 0 1-1.013 1.013h-4.589a1.01 1.01 0 0 1-1.013-1.013v-3.266a1.01 1.01 0 0 1 1.013-1.013z"/><path style="display:inline;opacity:1;vector-effect:none;fill:#000;fill-opacity:1;stroke:none;stroke-width:1.65416;stroke-linecap:round;stroke-linejoin:miter;stroke-miterlimit:4;stroke-dasharray:none;stroke-dashoffset:0;stroke-opacity:1;marker:none;marker-start:none;marker-mid:none;marker-end:none;paint-order:normal" d="M61.617 207.032h8.557a1.01 1.01 0 0 1 1.013 1.013v3.266a1.01 1.01 0 0 1-1.013 1.013h-8.557a1.01 1.01 0 0 1-1.013-1.013v-3.266a1.01 1.01 0 0 1 1.013-1.013z"/><path style="display:inline;opacity:1;vector-effect:none;fill:#000;fill-opacity:1;stroke:none;stroke-width:1.65416;stroke-linecap:round;stroke-linejoin:miter;stroke-miterlimit:4;stroke-dasharray:none;stroke-dashoffset:0;stroke-opacity:1;marker:none;marker-start:none;marker-mid:none;marker-end:none;paint-order:normal" d="M113.21 193.803h4.59a1.01 1.01 0 0 1 1.012 1.013v3.266a1.01 1.01 0 0 1-1.013 1.013h-4.589a1.01 1.01 0 0 1-1.012-1.013v-3.266a1.01 1.01 0 0 1 1.013-1.013z"/><path style="display:inline;opacity:1;vector-effect:none;fill:#000;fill-opacity:1;stroke:none;stroke-width:1.65416;stroke-linecap:round;stroke-linejoin:miter;stroke-miterlimit:4;stroke-dasharray:none;stroke-dashoffset:0;stroke-opacity:1;marker:none;marker-start:none;marker-mid:none;marker-end:none;paint-order:normal" d="M115.856 193.803h1.943a1.01 1.01 0 0 1 1.013 1.013v9.88a1.01 1.01 0 0 1-1.013 1.013h-1.943a1.01 1.01 0 0 1-1.013-1.012v-9.88a1.01 1.01 0 0 1 1.013-1.014z"/><path style="display:inline;opacity:1;vector-effect:none;fill:#36343d;fill-opacity:1;stroke:none;stroke-width:7.14935;stroke-linecap:round;stroke-linejoin:miter;stroke-miterlimit:4;stroke-dasharray:none;stroke-dashoffset:0;stroke-opacity:1;marker:none;marker-start:none;marker-mid:none;marker-end:none;paint-order:normal" d="M427.883 780.484a3.82 3.82 0 0 0-3.828 3.828v12.344a3.82 3.82 0 0 0 3.828 3.828h17.342a3.821 3.821 0 0 0 3.83-3.828v-12.343c0-2.121-1.71-3.829-3.83-3.829z" transform="scale(.26458)"/><path style="display:inline;opacity:1;vector-effect:none;fill:#36343d;fill-opacity:1;stroke:none;stroke-width:7.14935;stroke-linecap:round;stroke-linejoin:miter;stroke-miterlimit:4;stroke-dasharray:none;stroke-dashoffset:0;stroke-opacity:1;marker:none;marker-start:none;marker-mid:none;marker-end:none;paint-order:normal" d="M339.434 780.484a3.82 3.82 0 0 0-3.828 3.828v12.344a3.82 3.82 0 0 0 3.828 3.828h76.08c2.12 0 3.83-1.707 3.83-3.828v-12.343c0-2.121-1.71-3.829-3.83-3.829z" transform="scale(.26458)"/><path style="display:inline;opacity:1;vector-effect:none;fill:#36343d;fill-opacity:1;stroke:none;stroke-width:7.14935;stroke-linecap:round;stroke-linejoin:miter;stroke-miterlimit:4;stroke-dasharray:none;stroke-dashoffset:0;stroke-opacity:1;marker:none;marker-start:none;marker-mid:none;marker-end:none;paint-order:normal" d="M277.883 780.484a3.82 3.82 0 0 0-3.828 3.828v12.344a3.82 3.82 0 0 0 3.828 3.828h17.342c2.12 0 3.83-1.707 3.83-3.828v-12.343c0-2.121-1.71-3.829-3.83-3.829z" transform="scale(.26458)"/><path style="display:inline;opacity:1;vector-effect:none;fill:#36343d;fill-opacity:1;stroke:none;stroke-width:7.14935;stroke-linecap:round;stroke-linejoin:miter;stroke-miterlimit:4;stroke-dasharray:none;stroke-dashoffset:0;stroke-opacity:1;marker:none;marker-start:none;marker-mid:none;marker-end:none;paint-order:normal" d="M232.883 780.484a3.82 3.82 0 0 0-3.828 3.828v12.344a3.82 3.82 0 0 0 3.828 3.828h32.342c2.12 0 3.83-1.707 3.83-3.828v-12.343c0-2.121-1.71-3.829-3.83-3.829z" transform="scale(.26458)"/><path style="display:inline;opacity:1;vector-effect:none;fill:#36343d;fill-opacity:1;stroke:none;stroke-width:7.14935;stroke-linecap:round;stroke-linejoin:miter;stroke-miterlimit:4;stroke-dasharray:none;stroke-dashoffset:0;stroke-opacity:1;marker:none;marker-start:none;marker-mid:none;marker-end:none;paint-order:normal" d="M412.883 755.484a3.82 3.82 0 0 0-3.828 3.828v12.344a3.82 3.82 0 0 0 3.828 3.828h12.342c2.12 0 3.83-1.707 3.83-3.828v-12.343a3.821 3.821 0 0 0-3.83-3.829z" transform="scale(.26458)"/><path style="display:inline;opacity:1;vector-effect:none;fill:#36343d;fill-opacity:1;stroke:none;stroke-width:7.14935;stroke-linecap:round;stroke-linejoin:miter;stroke-miterlimit:4;stroke-dasharray:none;stroke-dashoffset:0;stroke-opacity:1;marker:none;marker-start:none;marker-mid:none;marker-end:none;paint-order:normal" d="M382.883 755.484a3.82 3.82 0 0 0-3.828 3.828v12.344a3.82 3.82 0 0 0 3.828 3.828h17.342a3.82 3.82 0 0 0 3.828-3.828v-12.343a3.82 3.82 0 0 0-3.828-3.829z" transform="scale(.26458)"/><path style="display:inline;opacity:1;vector-effect:none;fill:#36343d;fill-opacity:1;stroke:none;stroke-width:7.14935;stroke-linecap:round;stroke-linejoin:miter;stroke-miterlimit:4;stroke-dasharray:none;stroke-dashoffset:0;stroke-opacity:1;marker:none;marker-start:none;marker-mid:none;marker-end:none;paint-order:normal" d="M352.883 755.484a3.82 3.82 0 0 0-3.828 3.828v12.344a3.82 3.82 0 0 0 3.828 3.828h17.342a3.82 3.82 0 0 0 3.828-3.828v-12.343a3.82 3.82 0 0 0-3.828-3.829z" transform="scale(.26458)"/><path style="display:inline;opacity:1;vector-effect:none;fill:#36343d;fill-opacity:1;stroke:none;stroke-width:7.14935;stroke-linecap:round;stroke-linejoin:miter;stroke-miterlimit:4;stroke-dasharray:none;stroke-dashoffset:0;stroke-opacity:1;marker:none;marker-start:none;marker-mid:none;marker-end:none;paint-order:normal" d="M322.883 755.484a3.82 3.82 0 0 0-3.828 3.828v12.344a3.82 3.82 0 0 0 3.828 3.828h17.342c2.12 0 3.83-1.707 3.83-3.828v-12.343a3.821 3.821 0 0 0-3.83-3.829z" transform="scale(.26458)"/><path style="display:inline;opacity:1;vector-effect:none;fill:#36343d;fill-opacity:1;stroke:none;stroke-width:7.14935;stroke-linecap:round;stroke-linejoin:miter;stroke-miterlimit:4;stroke-dasharray:none;stroke-dashoffset:0;stroke-opacity:1;marker:none;marker-start:none;marker-mid:none;marker-end:none;paint-order:normal" d="M292.883 755.484a3.82 3.82 0 0 0-3.828 3.828v12.344a3.82 3.82 0 0 0 3.828 3.828h17.342a3.82 3.82 0 0 0 3.828-3.828v-12.343a3.82 3.82 0 0 0-3.828-3.829z" transform="scale(.26458)"/><path style="display:inline;opacity:1;vector-effect:none;fill:#36343d;fill-opacity:1;stroke:none;stroke-width:7.14935;stroke-linecap:round;stroke-linejoin:miter;stroke-miterlimit:4;stroke-dasharray:none;stroke-dashoffset:0;stroke-opacity:1;marker:none;marker-start:none;marker-mid:none;marker-end:none;paint-order:normal" d="M262.883 755.484a3.82 3.82 0 0 0-3.828 3.828v12.344a3.82 3.82 0 0 0 3.828 3.828h17.342c2.12 0 3.83-1.707 3.83-3.828v-12.343a3.821 3.821 0 0 0-3.83-3.829z" transform="scale(.26458)"/><path style="display:inline;opacity:1;vector-effect:none;fill:#36343d;fill-opacity:1;stroke:none;stroke-width:7.14935;stroke-linecap:round;stroke-linejoin:miter;stroke-miterlimit:4;stroke-dasharray:none;stroke-dashoffset:0;stroke-opacity:1;marker:none;marker-start:none;marker-mid:none;marker-end:none;paint-order:normal" d="M232.883 755.484a3.82 3.82 0 0 0-3.828 3.828v12.344a3.82 3.82 0 0 0 3.828 3.828h17.342c2.12 0 3.83-1.707 3.83-3.828v-12.343a3.821 3.821 0 0 0-3.83-3.829z" transform="scale(.26458)"/><path style="display:inline;opacity:1;vector-effect:none;fill:#36343d;fill-opacity:1;stroke:none;stroke-width:7.14935;stroke-linecap:round;stroke-linejoin:miter;stroke-miterlimit:4;stroke-dasharray:none;stroke-dashoffset:0;stroke-opacity:1;marker:none;marker-start:none;marker-mid:none;marker-end:none;paint-order:normal" d="M427.883 730.484a3.821 3.821 0 0 0-3.83 3.828v12.344a3.821 3.821 0 0 0 3.83 3.828h6.133v21.172a3.82 3.82 0 0 0 3.828 3.828h7.344a3.82 3.82 0 0 0 3.828-3.828v-24.623c.012-.126.037-.248.037-.377v-12.343a3.82 3.82 0 0 0-3.828-3.829h-.038-7.343z" transform="scale(.26458)"/><path style="display:inline;opacity:1;vector-effect:none;fill:#36343d;fill-opacity:1;stroke:none;stroke-width:7.14935;stroke-linecap:round;stroke-linejoin:miter;stroke-miterlimit:4;stroke-dasharray:none;stroke-dashoffset:0;stroke-opacity:1;marker:none;marker-start:none;marker-mid:none;marker-end:none;paint-order:normal" d="M397.883 730.484a3.82 3.82 0 0 0-3.828 3.828v12.344a3.82 3.82 0 0 0 3.828 3.828h17.342c2.12 0 3.83-1.707 3.83-3.828v-12.343c0-2.121-1.71-3.829-3.83-3.829z" transform="scale(.26458)"/><path style="display:inline;opacity:1;vector-effect:none;fill:#36343d;fill-opacity:1;stroke:none;stroke-width:7.14935;stroke-linecap:round;stroke-linejoin:miter;stroke-miterlimit:4;stroke-dasharray:none;stroke-dashoffset:0;stroke-opacity:1;marker:none;marker-start:none;marker-mid:none;marker-end:none;paint-order:normal" d="M367.883 730.484a3.82 3.82 0 0 0-3.828 3.828v12.344a3.82 3.82 0 0 0 3.828 3.828h17.342c2.12 0 3.83-1.707 3.83-3.828v-12.343c0-2.121-1.71-3.829-3.83-3.829z" transform="scale(.26458)"/><path style="display:inline;opacity:1;vector-effect:none;fill:#36343d;fill-opacity:1;stroke:none;stroke-width:7.14935;stroke-linecap:round;stroke-linejoin:miter;stroke-miterlimit:4;stroke-dasharray:none;stroke-dashoffset:0;stroke-opacity:1;marker:none;marker-start:none;marker-mid:none;marker-end:none;paint-order:normal" d="M337.883 730.484a3.82 3.82 0 0 0-3.828 3.828v12.344a3.82 3.82 0 0 0 3.828 3.828h17.342a3.82 3.82 0 0 0 3.828-3.828v-12.343a3.82 3.82 0 0 0-3.828-3.829z" transform="scale(.26458)"/><path style="display:inline;opacity:1;vector-effect:none;fill:#36343d;fill-opacity:1;stroke:none;stroke-width:7.14935;stroke-linecap:round;stroke-linejoin:miter;stroke-miterlimit:4;stroke-dasharray:none;stroke-dashoffset:0;stroke-opacity:1;marker:none;marker-start:none;marker-mid:none;marker-end:none;paint-order:normal" d="M307.883 730.484a3.82 3.82 0 0 0-3.828 3.828v12.344a3.82 3.82 0 0 0 3.828 3.828h17.342c2.12 0 3.83-1.707 3.83-3.828v-12.343c0-2.121-1.71-3.829-3.83-3.829z" transform="scale(.26458)"/><path style="display:inline;opacity:1;vector-effect:none;fill:#36343d;fill-opacity:1;stroke:none;stroke-width:7.14935;stroke-linecap:round;stroke-linejoin:miter;stroke-miterlimit:4;stroke-dasharray:none;stroke-dashoffset:0;stroke-opacity:1;marker:none;marker-start:none;marker-mid:none;marker-end:none;paint-order:normal" d="M277.883 730.484a3.82 3.82 0 0 0-3.828 3.828v12.344a3.82 3.82 0 0 0 3.828 3.828h17.342c2.12 0 3.83-1.707 3.83-3.828v-12.343c0-2.121-1.71-3.829-3.83-3.829z" transform="scale(.26458)"/><path style="display:inline;opacity:1;vector-effect:none;fill:#36343d;fill-opacity:1;stroke:none;stroke-width:7.14935;stroke-linecap:round;stroke-linejoin:miter;stroke-miterlimit:4;stroke-dasharray:none;stroke-dashoffset:0;stroke-opacity:1;marker:none;marker-start:none;marker-mid:none;marker-end:none;paint-order:normal" d="M232.883 730.484a3.82 3.82 0 0 0-3.828 3.828v12.344a3.82 3.82 0 0 0 3.828 3.828h32.342c2.12 0 3.83-1.707 3.83-3.828v-12.343c0-2.121-1.71-3.829-3.83-3.829z" transform="scale(.26458)"/><path style="display:inline;opacity:1;vector-effect:none;fill:#36343d;fill-opacity:1;stroke:none;stroke-width:7.14935;stroke-linecap:round;stroke-linejoin:miter;stroke-miterlimit:4;stroke-dasharray:none;stroke-dashoffset:0;stroke-opacity:1;marker:none;marker-start:none;marker-mid:none;marker-end:none;paint-order:normal" d="M412.883 705.484a3.82 3.82 0 0 0-3.828 3.828v12.344a3.82 3.82 0 0 0 3.828 3.828h32.342a3.821 3.821 0 0 0 3.83-3.828v-12.343c0-2.121-1.71-3.829-3.83-3.829z" transform="scale(.26458)"/><path style="display:inline;opacity:1;vector-effect:none;fill:#36343d;fill-opacity:1;stroke:none;stroke-width:7.14935;stroke-linecap:round;stroke-linejoin:miter;stroke-miterlimit:4;stroke-dasharray:none;stroke-dashoffset:0;stroke-opacity:1;marker:none;marker-start:none;marker-mid:none;marker-end:none;paint-order:normal" d="M382.883 705.484a3.82 3.82 0 0 0-3.828 3.828v12.344a3.82 3.82 0 0 0 3.828 3.828h17.342c2.12 0 3.83-1.707 3.83-3.828v-12.343c0-2.121-1.71-3.829-3.83-3.829z" transform="scale(.26458)"/><path style="display:inline;opacity:1;vector-effect:none;fill:#36343d;fill-opacity:1;stroke:none;stroke-width:7.14935;stroke-linecap:round;stroke-linejoin:miter;stroke-miterlimit:4;stroke-dasharray:none;stroke-dashoffset:0;stroke-opacity:1;marker:none;marker-start:none;marker-mid:none;marker-end:none;paint-order:normal" d="M352.883 705.484a3.82 3.82 0 0 0-3.828 3.828v12.344a3.82 3.82 0 0 0 3.828 3.828h17.342a3.82 3.82 0 0 0 3.828-3.828v-12.343a3.82 3.82 0 0 0-3.828-3.829z" transform="scale(.26458)"/><path style="display:inline;opacity:1;vector-effect:none;fill:#36343d;fill-opacity:1;stroke:none;stroke-width:7.14935;stroke-linecap:round;stroke-linejoin:miter;stroke-miterlimit:4;stroke-dasharray:none;stroke-dashoffset:0;stroke-opacity:1;marker:none;marker-start:none;marker-mid:none;marker-end:none;paint-order:normal" d="M322.883 705.484a3.82 3.82 0 0 0-3.828 3.828v12.344a3.82 3.82 0 0 0 3.828 3.828h17.342c2.12 0 3.83-1.707 3.83-3.828v-12.343c0-2.121-1.71-3.829-3.83-3.829z" transform="scale(.26458)"/><path style="display:inline;opacity:1;vector-effect:none;fill:#36343d;fill-opacity:1;stroke:none;stroke-width:7.14935;stroke-linecap:round;stroke-linejoin:miter;stroke-miterlimit:4;stroke-dasharray:none;stroke-dashoffset:0;stroke-opacity:1;marker:none;marker-start:none;marker-mid:none;marker-end:none;paint-order:normal" d="M292.883 705.484a3.82 3.82 0 0 0-3.828 3.828v12.344a3.82 3.82 0 0 0 3.828 3.828h17.342c2.12 0 3.83-1.707 3.83-3.828v-12.343c0-2.121-1.71-3.829-3.83-3.829z" transform="scale(.26458)"/><path style="display:inline;opacity:1;vector-effect:none;fill:#36343d;fill-opacity:1;stroke:none;stroke-width:7.14935;stroke-linecap:round;stroke-linejoin:miter;stroke-miterlimit:4;stroke-dasharray:none;stroke-dashoffset:0;stroke-opacity:1;marker:none;marker-start:none;marker-mid:none;marker-end:none;paint-order:normal" d="M262.883 705.484a3.82 3.82 0 0 0-3.828 3.828v12.344a3.82 3.82 0 0 0 3.828 3.828h17.342c2.12 0 3.83-1.707 3.83-3.828v-12.343c0-2.121-1.71-3.829-3.83-3.829z" transform="scale(.26458)"/><path style="display:inline;opacity:1;vector-effect:none;fill:#36343d;fill-opacity:1;stroke:none;stroke-width:7.14935;stroke-linecap:round;stroke-linejoin:miter;stroke-miterlimit:4;stroke-dasharray:none;stroke-dashoffset:0;stroke-opacity:1;marker:none;marker-start:none;marker-mid:none;marker-end:none;paint-order:normal" d="M232.883 705.484a3.82 3.82 0 0 0-3.828 3.828v12.344a3.82 3.82 0 0 0 3.828 3.828h17.342c2.12 0 3.83-1.707 3.83-3.828v-12.343c0-2.121-1.71-3.829-3.83-3.829z" transform="scale(.26458)"/><path style="display:inline;opacity:1;vector-effect:none;fill:#000;fill-opacity:1;stroke:none;stroke-width:1.65416;stroke-linecap:round;stroke-linejoin:miter;stroke-miterlimit:4;stroke-dasharray:none;stroke-dashoffset:0;stroke-opacity:1;marker:none;marker-start:none;marker-mid:none;marker-end:none;paint-order:normal" d="M81.537 207.032h4.589a1.01 1.01 0 0 1 1.013 1.013v3.266a1.01 1.01 0 0 1-1.013 1.013h-4.589a1.01 1.01 0 0 1-1.013-1.013v-3.266a1.01 1.01 0 0 1 1.013-1.013z"/><path style="display:inline;opacity:1;vector-effect:none;fill:#36343d;fill-opacity:1;stroke:none;stroke-width:1.8916;stroke-linecap:round;stroke-linejoin:miter;stroke-miterlimit:4;stroke-dasharray:none;stroke-dashoffset:0;stroke-opacity:1;marker:none;marker-start:none;marker-mid:none;marker-end:none;paint-order:normal" d="M81.537 206.503a1.01 1.01 0 0 0-1.013 1.013v3.266a1.01 1.01 0 0 0 1.013 1.013h4.589c.56 0 1.013-.452 1.013-1.013v-3.266c0-.561-.452-1.013-1.013-1.013z"/></g><g transform="matrix(3.0994 0 0 3.0994 -170.51 -29.28)" style="display:inline;stroke-width:1.50077"><rect style="opacity:1;vector-effect:none;fill:#000;fill-opacity:.102362;stroke:none;stroke-width:2.38247;stroke-linecap:round;stroke-linejoin:miter;stroke-miterlimit:4;stroke-dasharray:none;stroke-dashoffset:0;stroke-opacity:1;marker:none;marker-start:none;marker-mid:none;marker-end:none;paint-order:normal" width="23.283" height="35.454" x="248.708" y="158.75" rx="17.471" ry="17.471"/><rect ry="11.642" rx="11.642" y="157.692" x="248.708" height="35.454" width="23.283" style="opacity:1;vector-effect:none;fill:#5e5c64;fill-opacity:1;stroke:none;stroke-width:2.38247;stroke-linecap:round;stroke-linejoin:miter;stroke-miterlimit:4;stroke-dasharray:none;stroke-dashoffset:0;stroke-opacity:1;marker:none;marker-start:none;marker-mid:none;marker-end:none;paint-order:normal"/><rect style="opacity:1;vector-effect:none;fill:#9a9996;fill-opacity:1;stroke:none;stroke-width:6.35324;stroke-linecap:round;stroke-linejoin:miter;stroke-miterlimit:4;stroke-dasharray:none;stroke-dashoffset:0;stroke-opacity:1;marker:none;marker-start:none;marker-mid:none;marker-end:none;paint-order:normal" width="23.283" height="35.454" x="248.708" y="156.104" rx="11.642" ry="11.642"/><path style="fill:#5e5c64;fill-opacity:1;stroke:#5e5c64;stroke-width:.397077px;stroke-linecap:butt;stroke-linejoin:miter;stroke-opacity:1" d="M260.615 170.656v-14.552"/><rect style="opacity:1;vector-effect:none;fill:#36343d;fill-opacity:1;stroke:none;stroke-width:6.35324;stroke-linecap:round;stroke-linejoin:miter;stroke-miterlimit:4;stroke-dasharray:none;stroke-dashoffset:0;stroke-opacity:1;marker:none;marker-start:none;marker-mid:none;marker-end:none;paint-order:normal" width="5.292" height="13.229" x="257.969" y="160.073" rx="2.646" ry="2.646"/><circle r="1.455" cy="162.003" cx="260.603" style="opacity:1;vector-effect:none;fill:#c0bfbc;fill-opacity:.102362;stroke:none;stroke-width:2.90278;stroke-linecap:round;stroke-linejoin:miter;stroke-miterlimit:4;stroke-dasharray:none;stroke-dashoffset:0;stroke-opacity:1;marker:none;marker-start:none;marker-mid:none;marker-end:none;paint-order:normal"/></g><path style="fill:#000;fill-opacity:.11312;stroke-width:2.04496;stop-color:#000" d="M1655.44-717.473v10.565h-34.082l-5.112-3.408-15.337 3.408v6.817l15.337 3.408 5.112-3.408h34.083v10.906h11.929v-3.408h47.715c6.609 0 11.93-2.594 11.93-9.202v-.682c0-6.609-5.322-9.79-11.93-9.884h-47.715v-5.112z" transform="translate(-3186.887 1979.104) scale(2.27717)"/><g transform="matrix(1.76736 0 0 1.76736 -2495.94 1669.9)"><g clip-path="url(#c)" transform="matrix(.61117 0 0 .61117 -156.538 -32.607)" style="stroke-width:1.26428"><circle style="fill:#e01b24;stroke:none;stroke-width:4.31117;-inkscape-stroke:none;stop-color:#000" cx="3230.394" cy="-1158.52" r="26.945"/><path style="fill:#e01b24;stroke:none;stroke-width:4.31117;-inkscape-stroke:none;stop-color:#000" d="M3131.597-1185.464h100.594v53.89h-100.594z"/><path style="fill:#c01c28;stroke:none;stroke-width:4.31117;-inkscape-stroke:none;stop-color:#000" d="M3120.819-1160.316h150.891v61.075h-150.891z"/><rect style="fill:#ed333b;stroke:none;stroke-width:4.31117;-inkscape-stroke:none;stop-color:#000" width="111.372" height="32.334" x="3110.041" y="-1203.428" rx="16.167" ry="16.167"/><rect style="fill:#a51d2d;stroke:none;stroke-width:4.31117;-inkscape-stroke:none;stop-color:#000" width="111.372" height="32.334" x="3110.041" y="-1149.538" rx="16.167" ry="16.167"/></g><path style="fill:#deddda;fill-opacity:1;stroke:none;stroke-width:2.63485;-inkscape-stroke:none;stop-color:#000" d="M1691.523-743.951h52.697v8.783h-52.697z"/><rect style="fill:url(#d);fill-opacity:1;stroke:none;stroke-width:2.63485;-inkscape-stroke:none;stop-color:#000" width="15.37" height="46.11" x="1742.024" y="-763.712" rx="0" ry="0"/><path style="fill:#deddda;stroke-width:2.63485;stop-color:#000" d="m1671.761-743.95 19.761-4.392 6.588 4.391v8.783l-6.588 4.391-19.761-4.391z"/><path style="fill:#f6f5f4;fill-opacity:1;stroke-width:2.63485;stop-color:#000" d="m1673.957-744.439-2.196.488v8.783l19.761 4.391 6.588-4.391v-1.053l-6.588 4.392-17.565-3.82z"/></g><g transform="matrix(6.25 0 0 6.25 -680.737 -2928.689)" style="display:inline;fill:#8ff0a4;enable-background:new"><path style="color:#000;font-style:normal;font-variant:normal;font-weight:400;font-stretch:normal;font-size:medium;line-height:normal;font-family:Sans;-inkscape-font-specification:Sans;text-indent:0;text-align:start;text-decoration:none;text-decoration-line:none;letter-spacing:normal;word-spacing:normal;text-transform:none;writing-mode:lr-tb;direction:ltr;baseline-shift:baseline;text-anchor:start;display:inline;overflow:visible;visibility:visible;fill:#8ff0a4;fill-opacity:1;stroke:none;stroke-width:3;marker:none;enable-background:accumulate" d="m175 490.486-1-1-7.468 7.514-3.413-3.475-2 2 5.413 5.475 9.468-9.514z"/></g><path style="color:#000;fill:#8ff0a4;stroke-width:2.27717;-inkscape-stroke:none" d="M320.002 122C304.628 122 292 134.628 292 150.002V210c0 15.374 12.628 28.002 28.002 28.002H380c15.374 0 28.002-12.628 28.002-28.002v-39.113L392 186.89V210c0 6.786-5.214 11.998-12 11.998h-59.998c-6.786 0-12-5.212-12-11.998v-59.998c0-6.787 5.214-12 12-12H380c3.393 0 6.391 1.304 8.543 3.455h.002l11.22-11.223C394.688 125.156 387.688 122 380 122z" transform="matrix(1 0 0 1 6.763 -9.405)"/></svg>