<svg xmlns="http://www.w3.org/2000/svg" height="600" width="800"><defs><clipPath clipPathUnits="userSpaceOnUse" id="a"><path style="font-variation-settings:normal;display:block;opacity:1;vector-effect:none;fill:#77767b;fill-opacity:1;stroke:none;stroke-width:5.04302;stroke-linecap:round;stroke-linejoin:miter;stroke-miterlimit:4;stroke-dasharray:none;stroke-dashoffset:0;stroke-opacity:1;marker:none;marker-start:none;marker-mid:none;marker-end:none;paint-order:normal;stop-color:#000;stop-opacity:1" class="powerclip" d="M399.306 389.64h285.156v408.042H399.306zm216.553 258.086a73.976 73.976 0 0 0-73.975-73.975 73.976 73.976 0 0 0-73.976 73.975 73.976 73.976 0 0 0 73.976 73.976 73.976 73.976 0 0 0 73.975-73.976z"/></clipPath></defs><g style="stroke-width:1.26428"><g clip-path="url(#a)" transform="translate(85.39 -7.76) scale(.50428)" style="stroke-width:.986377"><path style="font-variation-settings:normal;opacity:1;vector-effect:none;fill:#000;fill-opacity:.102362;stroke:none;stroke-width:4.96026;stroke-linecap:round;stroke-linejoin:miter;stroke-miterlimit:4;stroke-dasharray:none;stroke-dashoffset:0;stroke-opacity:1;marker:none;marker-start:none;marker-mid:none;marker-end:none;paint-order:normal;stop-color:#000;stop-opacity:1" d="M424.979 482.036h233.81a20.628 20.628 0 0 1 20.673 20.673v269.3a20.628 20.628 0 0 1-20.674 20.673H424.98a20.628 20.628 0 0 1-20.673-20.674V502.71a20.628 20.628 0 0 1 20.673-20.673z"/><path style="font-variation-settings:normal;opacity:1;vector-effect:none;fill:#5e5c64;fill-opacity:1;stroke:none;stroke-width:4.97431;stroke-linecap:round;stroke-linejoin:miter;stroke-miterlimit:4;stroke-dasharray:none;stroke-dashoffset:0;stroke-opacity:1;marker:none;marker-start:none;marker-mid:none;marker-end:none;paint-order:normal;stop-color:#000;stop-opacity:1" d="M424.979 475.975h233.81a20.628 20.628 0 0 1 20.673 20.673v269.3a20.628 20.628 0 0 1-20.674 20.673H424.98a20.628 20.628 0 0 1-20.673-20.674V496.65a20.628 20.628 0 0 1 20.673-20.674z"/><path style="fill:#434348;fill-opacity:1;stroke-width:.986377;stroke-linecap:round;stop-color:#000" d="M404.306 394.64h275.156v310.646H404.306z"/></g><g style="display:inline;stroke-width:.959464;enable-background:new"><path style="display:inline;opacity:1;vector-effect:none;fill:#000;fill-opacity:1;stroke:none;stroke-width:.0472534px;stroke-linecap:butt;stroke-linejoin:miter;stroke-miterlimit:4;stroke-dasharray:none;stroke-dashoffset:0;stroke-opacity:1;marker:none;marker-start:none;marker-mid:none;marker-end:none;paint-order:normal;enable-background:new" d="M1367.735-75.863v297.615a8 8 135 0 1-8 8h-487.47a8 8 45 0 1-8-8V-75.863a8 8 135 0 1 8-8h487.47a8 8 45 0 1 8 8z" transform="translate(-665.92 104.353) scale(.91803)"/></g><path style="fill:#a51d2d;fill-opacity:1;stroke:none;stroke-width:.663638;stroke-linecap:round;stop-color:#000" d="M2644.684-1342.339h318.547v192.455h-318.547z" transform="translate(-3543.352 1904.852) scale(1.39173)"/><g style="display:inline"><g style="display:inline;enable-background:new"><path style="display:inline;opacity:1;vector-effect:none;fill:#adacab;fill-opacity:1;stroke:none;stroke-width:.5;stroke-linecap:butt;stroke-linejoin:miter;stroke-miterlimit:4;stroke-dasharray:none;stroke-dashoffset:0;stroke-opacity:1;marker:none;marker-start:none;marker-mid:none;marker-end:none;paint-order:normal;enable-background:new" d="M170 296a28 28 0 0 1-28-28 28 28 0 0 1 28-28 28 28 0 0 1 28 28 28 28 0 0 1-28 28zm.031-12a6.031 6 0 0 0 6.031-6 6.031 6 0 0 0-6.03-6 6.031 6 0 0 0-6.032 6 6.031 6 0 0 0 6.031 6z" transform="rotate(180 302.911 274.357) scale(1.48125)"/><path style="display:inline;opacity:1;vector-effect:none;fill:#f6f5f4;fill-opacity:1;stroke:none;stroke-width:.5;stroke-linecap:butt;stroke-linejoin:miter;stroke-miterlimit:4;stroke-dasharray:none;stroke-dashoffset:0;stroke-opacity:1;marker:none;marker-start:none;marker-mid:none;marker-end:none;paint-order:normal;enable-background:new" d="M124 213.03 107.03 230l8.367 8.367 3.653-3.417 9.193 9.192 3.52 3.518 8.612-.127.39 12.37 15.762-.205 4.95-4.95v-4.242z" transform="scale(-1.48125 1.48125) rotate(45 54.938 -256.161)"/><path style="display:inline;opacity:1;vector-effect:none;fill:#deddda;fill-opacity:1;stroke:none;stroke-width:.5;stroke-linecap:butt;stroke-linejoin:miter;stroke-miterlimit:4;stroke-dasharray:none;stroke-dashoffset:0;stroke-opacity:1;marker:none;marker-start:none;marker-mid:none;marker-end:none;paint-order:normal;enable-background:new" d="M125.748 221.265c-1.794.002-2.678 2.182-1.392 3.433l33.585 33.586 2.829-2.828-33.586-33.586a2 2 0 0 0-1.436-.605z" transform="scale(-1.48125 1.48125) rotate(45 54.938 -256.161)"/><path d="M170 298a28 28 0 0 0 28-28 28 28 0 0 0-28-28 28 28 0 0 0-28 28 28 28 0 0 0 28 28zm-.031-12a6.031 6 0 0 1-6.031-6 6.031 6 0 0 1 6.03-6 6.031 6 0 0 1 6.032 6 6.031 6 0 0 1-6.031 6z" style="display:inline;opacity:1;vector-effect:none;fill:#f6f5f4;fill-opacity:1;stroke:none;stroke-width:.5;stroke-linecap:butt;stroke-linejoin:miter;stroke-miterlimit:4;stroke-dasharray:none;stroke-dashoffset:0;stroke-opacity:1;marker:none;marker-start:none;marker-mid:none;marker-end:none;paint-order:normal;enable-background:new" transform="rotate(180 302.911 274.357) scale(1.48125)"/></g><path d="M189.37 240.224a5.953 5.953 0 0 1 8.42 0 5.953 5.953 0 0 1 0 8.419 5.953 5.953 0 0 1-8.42 0 5.953 5.953 0 0 1 0-8.42zm1.8 1.809a1.276 1.282 45 0 0-.005 1.808 1.276 1.282 45 0 0 1.808-.005 1.276 1.282 45 0 0 .005-1.808 1.276 1.282 45 0 0-1.808.005z" style="display:inline;opacity:1;vector-effect:none;fill:#adacab;fill-opacity:1;stroke:none;stroke-width:.106306;stroke-linecap:butt;stroke-linejoin:miter;stroke-miterlimit:4;stroke-dasharray:none;stroke-dashoffset:0;stroke-opacity:1;marker:none;marker-start:none;marker-mid:none;marker-end:none;paint-order:normal;enable-background:new" transform="translate(-983.323 -1560.909) scale(6.9669)"/><path style="display:inline;opacity:1;vector-effect:none;fill:#f6f5f4;fill-opacity:1;stroke:none;stroke-width:.106306;stroke-linecap:butt;stroke-linejoin:miter;stroke-miterlimit:4;stroke-dasharray:none;stroke-dashoffset:0;stroke-opacity:1;marker:none;marker-start:none;marker-mid:none;marker-end:none;paint-order:normal;enable-background:new" d="m195.233 249.394 3.609-3.608 1.779 1.78-.727.776 1.954 1.955.77.827.76.048-.026 1.83 1.847-.043-.043 3.351-1.053 1.052h-.902z" transform="translate(-983.323 -1560.909) scale(6.9669)"/><path style="display:inline;opacity:1;vector-effect:none;fill:#deddda;fill-opacity:1;stroke:none;stroke-width:.106306;stroke-linecap:butt;stroke-linejoin:miter;stroke-miterlimit:4;stroke-dasharray:none;stroke-dashoffset:0;stroke-opacity:1;marker:none;marker-start:none;marker-mid:none;marker-end:none;paint-order:normal;enable-background:new" d="M196.984 249.766c0-.381.464-.57.73-.296l7.141 7.14-.601.602-7.14-7.14a.425.425 0 0 1-.13-.306z" transform="translate(-983.323 -1560.909) scale(6.9669)"/><path style="display:inline;opacity:1;vector-effect:none;fill:#f6f5f4;fill-opacity:1;stroke:none;stroke-width:.106306;stroke-linecap:butt;stroke-linejoin:miter;stroke-miterlimit:4;stroke-dasharray:none;stroke-dashoffset:0;stroke-opacity:1;marker:none;marker-start:none;marker-mid:none;marker-end:none;paint-order:normal;enable-background:new" d="M189.07 239.923a5.953 5.953 0 0 0 0 8.42 5.953 5.953 0 0 0 8.419 0 5.953 5.953 0 0 0 0-8.42 5.953 5.953 0 0 0-8.42 0zm1.808 1.8a1.276 1.282 45 0 1 1.81-.005 1.276 1.282 45 0 1-.006 1.808 1.276 1.282 45 0 1-1.809.005 1.276 1.282 45 0 1 .005-1.808z" transform="translate(-983.323 -1560.909) scale(6.9669)"/><path style="color:#000;font-style:normal;font-variant:normal;font-weight:400;font-stretch:normal;font-size:medium;line-height:normal;font-family:sans-serif;font-variant-ligatures:normal;font-variant-position:normal;font-variant-caps:normal;font-variant-numeric:normal;font-variant-alternates:normal;font-feature-settings:normal;text-indent:0;text-align:start;text-decoration:none;text-decoration-line:none;text-decoration-style:solid;text-decoration-color:#000;letter-spacing:normal;word-spacing:normal;text-transform:none;writing-mode:lr-tb;direction:ltr;text-orientation:mixed;dominant-baseline:auto;baseline-shift:baseline;text-anchor:start;white-space:normal;shape-padding:0;clip-rule:nonzero;display:inline;overflow:visible;visibility:visible;opacity:1;isolation:auto;mix-blend-mode:normal;color-interpolation:sRGB;color-interpolation-filters:linearRGB;solid-color:#000;solid-opacity:1;vector-effect:none;fill:#deddda;fill-opacity:1;fill-rule:nonzero;stroke:none;stroke-width:1.5875;stroke-linecap:round;stroke-linejoin:miter;stroke-miterlimit:4;stroke-dasharray:none;stroke-dashoffset:0;stroke-opacity:1;marker:none;paint-order:normal;color-rendering:auto;image-rendering:auto;shape-rendering:auto;text-rendering:auto;enable-background:accumulate" d="M186.48 220.474a6.356 6.356 0 0 0-5.12 2.482 6.354 6.354 0 0 0-.243 7.393 6.36 6.36 0 0 0 4.947 2.815c.379.02.761.002 1.143-.047a5.942 5.942 0 0 1-.84-1.536 4.756 4.756 0 0 1-3.748-7.657 4.76 4.76 0 0 1 5.31-1.612 4.756 4.756 0 0 1 3.23 4.51.794.794 0 1 0 1.589 0 6.354 6.354 0 0 0-6.268-6.348z" transform="translate(-983.323 -1450.31) scale(6.9669)"/></g></g><g transform="translate(-40.273 -408.376) scale(4.46402)" style="display:inline;stroke-width:1.04199"><rect style="display:inline;opacity:1;vector-effect:none;fill:#000;fill-opacity:.102362;stroke:none;stroke-width:1.037;stroke-linecap:round;stroke-linejoin:miter;stroke-miterlimit:4;stroke-dasharray:none;stroke-dashoffset:0;stroke-opacity:1;marker:none;marker-start:none;marker-mid:none;marker-end:none;paint-order:normal" width="63.5" height="34.315" x="57.958" y="185.417" rx="1.771" ry="1.771"/><rect ry="1.771" rx="1.771" y="183.9" x="57.958" height="34.51" width="63.5" style="display:inline;opacity:1;vector-effect:none;fill:#5e5c64;fill-opacity:1;stroke:none;stroke-width:1.03994;stroke-linecap:round;stroke-linejoin:miter;stroke-miterlimit:4;stroke-dasharray:none;stroke-dashoffset:0;stroke-opacity:1;marker:none;marker-start:none;marker-mid:none;marker-end:none;paint-order:normal"/><rect style="display:inline;opacity:1;vector-effect:none;fill:#9a9996;fill-opacity:1;stroke:none;stroke-width:1.037;stroke-linecap:round;stroke-linejoin:miter;stroke-miterlimit:4;stroke-dasharray:none;stroke-dashoffset:0;stroke-opacity:1;marker:none;marker-start:none;marker-mid:none;marker-end:none;paint-order:normal" width="63.5" height="34.315" x="57.958" y="182.691" rx="1.771" ry="1.771"/><path style="display:inline;opacity:1;vector-effect:none;fill:#000;fill-opacity:1;stroke:none;stroke-width:1.65416;stroke-linecap:round;stroke-linejoin:miter;stroke-miterlimit:4;stroke-dasharray:none;stroke-dashoffset:0;stroke-opacity:1;marker:none;marker-start:none;marker-mid:none;marker-end:none;paint-order:normal" d="M89.808 207.032h20.13a1.01 1.01 0 0 1 1.013 1.013v3.266a1.01 1.01 0 0 1-1.013 1.013h-20.13a1.01 1.01 0 0 1-1.012-1.013v-3.266a1.01 1.01 0 0 1 1.012-1.013z"/><path style="display:inline;opacity:1;vector-effect:none;fill:#000;fill-opacity:1;stroke:none;stroke-width:1.65416;stroke-linecap:round;stroke-linejoin:miter;stroke-miterlimit:4;stroke-dasharray:none;stroke-dashoffset:0;stroke-opacity:1;marker:none;marker-start:none;marker-mid:none;marker-end:none;paint-order:normal" d="M113.21 207.032h4.59a1.01 1.01 0 0 1 1.012 1.013v3.266a1.01 1.01 0 0 1-1.013 1.013h-4.588a1.01 1.01 0 0 1-1.013-1.013v-3.266a1.01 1.01 0 0 1 1.013-1.013z"/><path style="display:inline;opacity:1;vector-effect:none;fill:#000;fill-opacity:1;stroke:none;stroke-width:1.65416;stroke-linecap:round;stroke-linejoin:miter;stroke-miterlimit:4;stroke-dasharray:none;stroke-dashoffset:0;stroke-opacity:1;marker:none;marker-start:none;marker-mid:none;marker-end:none;paint-order:normal" d="M109.242 200.418h3.266a1.01 1.01 0 0 1 1.013 1.013v3.266a1.01 1.01 0 0 1-1.013 1.012h-3.266a1.01 1.01 0 0 1-1.013-1.012v-3.266a1.01 1.01 0 0 1 1.013-1.013z"/><path style="display:inline;opacity:1;vector-effect:none;fill:#000;fill-opacity:1;stroke:none;stroke-width:1.65416;stroke-linecap:round;stroke-linejoin:miter;stroke-miterlimit:4;stroke-dasharray:none;stroke-dashoffset:0;stroke-opacity:1;marker:none;marker-start:none;marker-mid:none;marker-end:none;paint-order:normal" d="M101.304 200.418h4.589a1.01 1.01 0 0 1 1.013 1.013v3.266a1.01 1.01 0 0 1-1.013 1.012h-4.589a1.01 1.01 0 0 1-1.013-1.012v-3.266a1.01 1.01 0 0 1 1.013-1.013z"/><path style="display:inline;opacity:1;vector-effect:none;fill:#000;fill-opacity:1;stroke:none;stroke-width:1.65416;stroke-linecap:round;stroke-linejoin:miter;stroke-miterlimit:4;stroke-dasharray:none;stroke-dashoffset:0;stroke-opacity:1;marker:none;marker-start:none;marker-mid:none;marker-end:none;paint-order:normal" d="M93.367 200.418h4.588a1.01 1.01 0 0 1 1.013 1.013v3.266a1.01 1.01 0 0 1-1.013 1.012h-4.588a1.01 1.01 0 0 1-1.013-1.012v-3.266a1.01 1.01 0 0 1 1.013-1.013z"/><path style="display:inline;opacity:1;vector-effect:none;fill:#000;fill-opacity:1;stroke:none;stroke-width:1.65416;stroke-linecap:round;stroke-linejoin:miter;stroke-miterlimit:4;stroke-dasharray:none;stroke-dashoffset:0;stroke-opacity:1;marker:none;marker-start:none;marker-mid:none;marker-end:none;paint-order:normal" d="M85.43 200.418h4.588a1.01 1.01 0 0 1 1.013 1.013v3.266a1.01 1.01 0 0 1-1.013 1.012h-4.589a1.01 1.01 0 0 1-1.013-1.012v-3.266a1.01 1.01 0 0 1 1.013-1.013z"/><path style="display:inline;opacity:1;vector-effect:none;fill:#000;fill-opacity:1;stroke:none;stroke-width:1.65416;stroke-linecap:round;stroke-linejoin:miter;stroke-miterlimit:4;stroke-dasharray:none;stroke-dashoffset:0;stroke-opacity:1;marker:none;marker-start:none;marker-mid:none;marker-end:none;paint-order:normal" d="M77.492 200.418h4.588a1.01 1.01 0 0 1 1.013 1.013v3.266a1.01 1.01 0 0 1-1.013 1.012h-4.588a1.01 1.01 0 0 1-1.013-1.012v-3.266a1.01 1.01 0 0 1 1.013-1.013z"/><path style="display:inline;opacity:1;vector-effect:none;fill:#000;fill-opacity:1;stroke:none;stroke-width:1.65416;stroke-linecap:round;stroke-linejoin:miter;stroke-miterlimit:4;stroke-dasharray:none;stroke-dashoffset:0;stroke-opacity:1;marker:none;marker-start:none;marker-mid:none;marker-end:none;paint-order:normal" d="M69.554 200.418h4.589a1.01 1.01 0 0 1 1.013 1.013v3.266a1.01 1.01 0 0 1-1.013 1.012h-4.589a1.01 1.01 0 0 1-1.013-1.012v-3.266a1.01 1.01 0 0 1 1.013-1.013z"/><path style="display:inline;opacity:1;vector-effect:none;fill:#000;fill-opacity:1;stroke:none;stroke-width:1.65416;stroke-linecap:round;stroke-linejoin:miter;stroke-miterlimit:4;stroke-dasharray:none;stroke-dashoffset:0;stroke-opacity:1;marker:none;marker-start:none;marker-mid:none;marker-end:none;paint-order:normal" d="M105.273 193.803h4.589a1.01 1.01 0 0 1 1.013 1.013v3.266a1.01 1.01 0 0 1-1.013 1.013h-4.589a1.01 1.01 0 0 1-1.013-1.013v-3.266a1.01 1.01 0 0 1 1.013-1.013z"/><path style="display:inline;opacity:1;vector-effect:none;fill:#000;fill-opacity:1;stroke:none;stroke-width:1.65416;stroke-linecap:round;stroke-linejoin:miter;stroke-miterlimit:4;stroke-dasharray:none;stroke-dashoffset:0;stroke-opacity:1;marker:none;marker-start:none;marker-mid:none;marker-end:none;paint-order:normal" d="M97.336 193.803h4.588a1.01 1.01 0 0 1 1.013 1.013v3.266a1.01 1.01 0 0 1-1.013 1.013h-4.588a1.01 1.01 0 0 1-1.013-1.013v-3.266a1.01 1.01 0 0 1 1.013-1.013z"/><path style="display:inline;opacity:1;vector-effect:none;fill:#000;fill-opacity:1;stroke:none;stroke-width:1.65416;stroke-linecap:round;stroke-linejoin:miter;stroke-miterlimit:4;stroke-dasharray:none;stroke-dashoffset:0;stroke-opacity:1;marker:none;marker-start:none;marker-mid:none;marker-end:none;paint-order:normal" d="M89.398 193.803h4.589A1.01 1.01 0 0 1 95 194.816v3.266a1.01 1.01 0 0 1-1.013 1.013h-4.589a1.01 1.01 0 0 1-1.013-1.013v-3.266a1.01 1.01 0 0 1 1.013-1.013z"/><path style="display:inline;opacity:1;vector-effect:none;fill:#000;fill-opacity:1;stroke:none;stroke-width:1.65416;stroke-linecap:round;stroke-linejoin:miter;stroke-miterlimit:4;stroke-dasharray:none;stroke-dashoffset:0;stroke-opacity:1;marker:none;marker-start:none;marker-mid:none;marker-end:none;paint-order:normal" d="M81.46 193.803h4.59a1.01 1.01 0 0 1 1.012 1.013v3.266a1.01 1.01 0 0 1-1.013 1.013h-4.588a1.01 1.01 0 0 1-1.013-1.013v-3.266a1.01 1.01 0 0 1 1.013-1.013z"/><path style="display:inline;opacity:1;vector-effect:none;fill:#000;fill-opacity:1;stroke:none;stroke-width:1.65416;stroke-linecap:round;stroke-linejoin:miter;stroke-miterlimit:4;stroke-dasharray:none;stroke-dashoffset:0;stroke-opacity:1;marker:none;marker-start:none;marker-mid:none;marker-end:none;paint-order:normal" d="M73.523 193.803h4.589a1.01 1.01 0 0 1 1.013 1.013v3.266a1.01 1.01 0 0 1-1.013 1.013h-4.589a1.01 1.01 0 0 1-1.013-1.013v-3.266a1.01 1.01 0 0 1 1.013-1.013z"/><path style="display:inline;opacity:1;vector-effect:none;fill:#000;fill-opacity:1;stroke:none;stroke-width:1.65416;stroke-linecap:round;stroke-linejoin:miter;stroke-miterlimit:4;stroke-dasharray:none;stroke-dashoffset:0;stroke-opacity:1;marker:none;marker-start:none;marker-mid:none;marker-end:none;paint-order:normal" d="M61.617 193.803h8.557a1.01 1.01 0 0 1 1.013 1.013v3.266a1.01 1.01 0 0 1-1.013 1.013h-8.557a1.01 1.01 0 0 1-1.013-1.013v-3.266a1.01 1.01 0 0 1 1.013-1.013z"/><path style="display:inline;opacity:1;vector-effect:none;fill:#000;fill-opacity:1;stroke:none;stroke-width:1.65416;stroke-linecap:round;stroke-linejoin:miter;stroke-miterlimit:4;stroke-dasharray:none;stroke-dashoffset:0;stroke-opacity:1;marker:none;marker-start:none;marker-mid:none;marker-end:none;paint-order:normal" d="M109.242 187.189h8.557a1.01 1.01 0 0 1 1.013 1.013v3.265a1.01 1.01 0 0 1-1.013 1.013h-8.557a1.01 1.01 0 0 1-1.013-1.013v-3.265a1.01 1.01 0 0 1 1.013-1.013z"/><path style="display:inline;opacity:1;vector-effect:none;fill:#000;fill-opacity:1;stroke:none;stroke-width:1.65416;stroke-linecap:round;stroke-linejoin:miter;stroke-miterlimit:4;stroke-dasharray:none;stroke-dashoffset:0;stroke-opacity:1;marker:none;marker-start:none;marker-mid:none;marker-end:none;paint-order:normal" d="M101.304 187.189h4.589a1.01 1.01 0 0 1 1.013 1.013v3.265a1.01 1.01 0 0 1-1.013 1.013h-4.589a1.01 1.01 0 0 1-1.013-1.013v-3.265a1.01 1.01 0 0 1 1.013-1.013z"/><path style="display:inline;opacity:1;vector-effect:none;fill:#000;fill-opacity:1;stroke:none;stroke-width:1.65416;stroke-linecap:round;stroke-linejoin:miter;stroke-miterlimit:4;stroke-dasharray:none;stroke-dashoffset:0;stroke-opacity:1;marker:none;marker-start:none;marker-mid:none;marker-end:none;paint-order:normal" d="M93.367 187.189h4.588a1.01 1.01 0 0 1 1.013 1.013v3.265a1.01 1.01 0 0 1-1.013 1.013h-4.588a1.01 1.01 0 0 1-1.013-1.013v-3.265a1.01 1.01 0 0 1 1.013-1.013z"/><path style="display:inline;opacity:1;vector-effect:none;fill:#000;fill-opacity:1;stroke:none;stroke-width:1.65416;stroke-linecap:round;stroke-linejoin:miter;stroke-miterlimit:4;stroke-dasharray:none;stroke-dashoffset:0;stroke-opacity:1;marker:none;marker-start:none;marker-mid:none;marker-end:none;paint-order:normal" d="M85.43 187.189h4.588a1.01 1.01 0 0 1 1.013 1.013v3.265a1.01 1.01 0 0 1-1.013 1.013h-4.589a1.01 1.01 0 0 1-1.013-1.013v-3.265a1.01 1.01 0 0 1 1.013-1.013z"/><path style="display:inline;opacity:1;vector-effect:none;fill:#000;fill-opacity:1;stroke:none;stroke-width:1.65416;stroke-linecap:round;stroke-linejoin:miter;stroke-miterlimit:4;stroke-dasharray:none;stroke-dashoffset:0;stroke-opacity:1;marker:none;marker-start:none;marker-mid:none;marker-end:none;paint-order:normal" d="M77.492 187.189h4.588a1.01 1.01 0 0 1 1.013 1.013v3.265a1.01 1.01 0 0 1-1.013 1.013h-4.588a1.01 1.01 0 0 1-1.013-1.013v-3.265a1.01 1.01 0 0 1 1.013-1.013z"/><path style="display:inline;opacity:1;vector-effect:none;fill:#000;fill-opacity:1;stroke:none;stroke-width:1.65416;stroke-linecap:round;stroke-linejoin:miter;stroke-miterlimit:4;stroke-dasharray:none;stroke-dashoffset:0;stroke-opacity:1;marker:none;marker-start:none;marker-mid:none;marker-end:none;paint-order:normal" d="M69.554 187.189h4.589a1.01 1.01 0 0 1 1.013 1.013v3.265a1.01 1.01 0 0 1-1.013 1.013h-4.589a1.01 1.01 0 0 1-1.013-1.013v-3.265a1.01 1.01 0 0 1 1.013-1.013z"/><path style="display:inline;opacity:1;vector-effect:none;fill:#000;fill-opacity:1;stroke:none;stroke-width:1.65416;stroke-linecap:round;stroke-linejoin:miter;stroke-miterlimit:4;stroke-dasharray:none;stroke-dashoffset:0;stroke-opacity:1;marker:none;marker-start:none;marker-mid:none;marker-end:none;paint-order:normal" d="M61.617 187.189h4.588a1.01 1.01 0 0 1 1.013 1.013v3.265a1.01 1.01 0 0 1-1.013 1.013h-4.588a1.01 1.01 0 0 1-1.013-1.013v-3.265a1.01 1.01 0 0 1 1.013-1.013z"/><path style="display:inline;opacity:1;vector-effect:none;fill:#000;fill-opacity:1;stroke:none;stroke-width:1.65416;stroke-linecap:round;stroke-linejoin:miter;stroke-miterlimit:4;stroke-dasharray:none;stroke-dashoffset:0;stroke-opacity:1;marker:none;marker-start:none;marker-mid:none;marker-end:none;paint-order:normal" d="M61.617 200.418h4.588a1.01 1.01 0 0 1 1.013 1.013v3.266a1.01 1.01 0 0 1-1.013 1.012h-4.588a1.01 1.01 0 0 1-1.013-1.012v-3.266a1.01 1.01 0 0 1 1.013-1.013z"/><path style="display:inline;opacity:1;vector-effect:none;fill:#000;fill-opacity:1;stroke:none;stroke-width:1.65416;stroke-linecap:round;stroke-linejoin:miter;stroke-miterlimit:4;stroke-dasharray:none;stroke-dashoffset:0;stroke-opacity:1;marker:none;marker-start:none;marker-mid:none;marker-end:none;paint-order:normal" d="M73.523 207.032h4.589a1.01 1.01 0 0 1 1.013 1.013v3.266a1.01 1.01 0 0 1-1.013 1.013h-4.589a1.01 1.01 0 0 1-1.013-1.013v-3.266a1.01 1.01 0 0 1 1.013-1.013z"/><path style="display:inline;opacity:1;vector-effect:none;fill:#000;fill-opacity:1;stroke:none;stroke-width:1.65416;stroke-linecap:round;stroke-linejoin:miter;stroke-miterlimit:4;stroke-dasharray:none;stroke-dashoffset:0;stroke-opacity:1;marker:none;marker-start:none;marker-mid:none;marker-end:none;paint-order:normal" d="M61.617 207.032h8.557a1.01 1.01 0 0 1 1.013 1.013v3.266a1.01 1.01 0 0 1-1.013 1.013h-8.557a1.01 1.01 0 0 1-1.013-1.013v-3.266a1.01 1.01 0 0 1 1.013-1.013z"/><path style="display:inline;opacity:1;vector-effect:none;fill:#000;fill-opacity:1;stroke:none;stroke-width:1.65416;stroke-linecap:round;stroke-linejoin:miter;stroke-miterlimit:4;stroke-dasharray:none;stroke-dashoffset:0;stroke-opacity:1;marker:none;marker-start:none;marker-mid:none;marker-end:none;paint-order:normal" d="M113.21 193.803h4.59a1.01 1.01 0 0 1 1.012 1.013v3.266a1.01 1.01 0 0 1-1.013 1.013h-4.589a1.01 1.01 0 0 1-1.012-1.013v-3.266a1.01 1.01 0 0 1 1.013-1.013z"/><path style="display:inline;opacity:1;vector-effect:none;fill:#000;fill-opacity:1;stroke:none;stroke-width:1.65416;stroke-linecap:round;stroke-linejoin:miter;stroke-miterlimit:4;stroke-dasharray:none;stroke-dashoffset:0;stroke-opacity:1;marker:none;marker-start:none;marker-mid:none;marker-end:none;paint-order:normal" d="M115.856 193.803h1.943a1.01 1.01 0 0 1 1.013 1.013v9.88a1.01 1.01 0 0 1-1.013 1.013h-1.943a1.01 1.01 0 0 1-1.013-1.012v-9.88a1.01 1.01 0 0 1 1.013-1.014z"/><path style="display:inline;opacity:1;vector-effect:none;fill:#36343d;fill-opacity:1;stroke:none;stroke-width:7.14935;stroke-linecap:round;stroke-linejoin:miter;stroke-miterlimit:4;stroke-dasharray:none;stroke-dashoffset:0;stroke-opacity:1;marker:none;marker-start:none;marker-mid:none;marker-end:none;paint-order:normal" d="M427.883 780.484a3.82 3.82 0 0 0-3.828 3.828v12.344a3.82 3.82 0 0 0 3.828 3.828h17.342a3.821 3.821 0 0 0 3.83-3.828v-12.343a3.822 3.822 0 0 0-3.83-3.829z" transform="scale(.26458)"/><path style="display:inline;opacity:1;vector-effect:none;fill:#36343d;fill-opacity:1;stroke:none;stroke-width:7.14935;stroke-linecap:round;stroke-linejoin:miter;stroke-miterlimit:4;stroke-dasharray:none;stroke-dashoffset:0;stroke-opacity:1;marker:none;marker-start:none;marker-mid:none;marker-end:none;paint-order:normal" d="M339.434 780.484a3.82 3.82 0 0 0-3.828 3.828v12.344a3.82 3.82 0 0 0 3.828 3.828h76.08c2.12 0 3.83-1.707 3.83-3.828v-12.343a3.822 3.822 0 0 0-3.83-3.829z" transform="scale(.26458)"/><path style="display:inline;opacity:1;vector-effect:none;fill:#36343d;fill-opacity:1;stroke:none;stroke-width:7.14935;stroke-linecap:round;stroke-linejoin:miter;stroke-miterlimit:4;stroke-dasharray:none;stroke-dashoffset:0;stroke-opacity:1;marker:none;marker-start:none;marker-mid:none;marker-end:none;paint-order:normal" d="M277.883 780.484a3.82 3.82 0 0 0-3.828 3.828v12.344a3.82 3.82 0 0 0 3.828 3.828h17.342c2.12 0 3.83-1.707 3.83-3.828v-12.343a3.822 3.822 0 0 0-3.83-3.829z" transform="scale(.26458)"/><path style="display:inline;opacity:1;vector-effect:none;fill:#36343d;fill-opacity:1;stroke:none;stroke-width:7.14935;stroke-linecap:round;stroke-linejoin:miter;stroke-miterlimit:4;stroke-dasharray:none;stroke-dashoffset:0;stroke-opacity:1;marker:none;marker-start:none;marker-mid:none;marker-end:none;paint-order:normal" d="M232.883 780.484a3.82 3.82 0 0 0-3.828 3.828v12.344a3.82 3.82 0 0 0 3.828 3.828h32.342c2.12 0 3.83-1.707 3.83-3.828v-12.343a3.822 3.822 0 0 0-3.83-3.829z" transform="scale(.26458)"/><path style="display:inline;opacity:1;vector-effect:none;fill:#36343d;fill-opacity:1;stroke:none;stroke-width:7.14935;stroke-linecap:round;stroke-linejoin:miter;stroke-miterlimit:4;stroke-dasharray:none;stroke-dashoffset:0;stroke-opacity:1;marker:none;marker-start:none;marker-mid:none;marker-end:none;paint-order:normal" d="M412.883 755.484a3.82 3.82 0 0 0-3.828 3.828v12.344a3.82 3.82 0 0 0 3.828 3.828h12.342c2.12 0 3.83-1.707 3.83-3.828v-12.343a3.821 3.821 0 0 0-3.83-3.829z" transform="scale(.26458)"/><path style="display:inline;opacity:1;vector-effect:none;fill:#36343d;fill-opacity:1;stroke:none;stroke-width:7.14935;stroke-linecap:round;stroke-linejoin:miter;stroke-miterlimit:4;stroke-dasharray:none;stroke-dashoffset:0;stroke-opacity:1;marker:none;marker-start:none;marker-mid:none;marker-end:none;paint-order:normal" d="M382.883 755.484a3.82 3.82 0 0 0-3.828 3.828v12.344a3.82 3.82 0 0 0 3.828 3.828h17.342a3.82 3.82 0 0 0 3.828-3.828v-12.343a3.82 3.82 0 0 0-3.828-3.829z" transform="scale(.26458)"/><path style="display:inline;opacity:1;vector-effect:none;fill:#36343d;fill-opacity:1;stroke:none;stroke-width:7.14935;stroke-linecap:round;stroke-linejoin:miter;stroke-miterlimit:4;stroke-dasharray:none;stroke-dashoffset:0;stroke-opacity:1;marker:none;marker-start:none;marker-mid:none;marker-end:none;paint-order:normal" d="M352.883 755.484a3.82 3.82 0 0 0-3.828 3.828v12.344a3.82 3.82 0 0 0 3.828 3.828h17.342a3.82 3.82 0 0 0 3.828-3.828v-12.343a3.82 3.82 0 0 0-3.828-3.829z" transform="scale(.26458)"/><path style="display:inline;opacity:1;vector-effect:none;fill:#36343d;fill-opacity:1;stroke:none;stroke-width:7.14935;stroke-linecap:round;stroke-linejoin:miter;stroke-miterlimit:4;stroke-dasharray:none;stroke-dashoffset:0;stroke-opacity:1;marker:none;marker-start:none;marker-mid:none;marker-end:none;paint-order:normal" d="M322.883 755.484a3.82 3.82 0 0 0-3.828 3.828v12.344a3.82 3.82 0 0 0 3.828 3.828h17.342c2.12 0 3.83-1.707 3.83-3.828v-12.343a3.821 3.821 0 0 0-3.83-3.829z" transform="scale(.26458)"/><path style="display:inline;opacity:1;vector-effect:none;fill:#36343d;fill-opacity:1;stroke:none;stroke-width:7.14935;stroke-linecap:round;stroke-linejoin:miter;stroke-miterlimit:4;stroke-dasharray:none;stroke-dashoffset:0;stroke-opacity:1;marker:none;marker-start:none;marker-mid:none;marker-end:none;paint-order:normal" d="M292.883 755.484a3.82 3.82 0 0 0-3.828 3.828v12.344a3.82 3.82 0 0 0 3.828 3.828h17.342a3.82 3.82 0 0 0 3.828-3.828v-12.343a3.82 3.82 0 0 0-3.828-3.829z" transform="scale(.26458)"/><path style="display:inline;opacity:1;vector-effect:none;fill:#36343d;fill-opacity:1;stroke:none;stroke-width:7.14935;stroke-linecap:round;stroke-linejoin:miter;stroke-miterlimit:4;stroke-dasharray:none;stroke-dashoffset:0;stroke-opacity:1;marker:none;marker-start:none;marker-mid:none;marker-end:none;paint-order:normal" d="M262.883 755.484a3.82 3.82 0 0 0-3.828 3.828v12.344a3.82 3.82 0 0 0 3.828 3.828h17.342c2.12 0 3.83-1.707 3.83-3.828v-12.343a3.821 3.821 0 0 0-3.83-3.829z" transform="scale(.26458)"/><path style="display:inline;opacity:1;vector-effect:none;fill:#36343d;fill-opacity:1;stroke:none;stroke-width:7.14935;stroke-linecap:round;stroke-linejoin:miter;stroke-miterlimit:4;stroke-dasharray:none;stroke-dashoffset:0;stroke-opacity:1;marker:none;marker-start:none;marker-mid:none;marker-end:none;paint-order:normal" d="M232.883 755.484a3.82 3.82 0 0 0-3.828 3.828v12.344a3.82 3.82 0 0 0 3.828 3.828h17.342c2.12 0 3.83-1.707 3.83-3.828v-12.343a3.821 3.821 0 0 0-3.83-3.829z" transform="scale(.26458)"/><path style="display:inline;opacity:1;vector-effect:none;fill:#36343d;fill-opacity:1;stroke:none;stroke-width:7.14935;stroke-linecap:round;stroke-linejoin:miter;stroke-miterlimit:4;stroke-dasharray:none;stroke-dashoffset:0;stroke-opacity:1;marker:none;marker-start:none;marker-mid:none;marker-end:none;paint-order:normal" d="M427.883 730.484a3.821 3.821 0 0 0-3.83 3.828v12.344a3.821 3.821 0 0 0 3.83 3.828h6.133v21.172a3.82 3.82 0 0 0 3.828 3.828h7.344a3.82 3.82 0 0 0 3.828-3.828v-24.623c.012-.126.037-.248.037-.377v-12.343a3.82 3.82 0 0 0-3.828-3.829h-.038-7.343z" transform="scale(.26458)"/><path style="display:inline;opacity:1;vector-effect:none;fill:#36343d;fill-opacity:1;stroke:none;stroke-width:7.14935;stroke-linecap:round;stroke-linejoin:miter;stroke-miterlimit:4;stroke-dasharray:none;stroke-dashoffset:0;stroke-opacity:1;marker:none;marker-start:none;marker-mid:none;marker-end:none;paint-order:normal" d="M397.883 730.484a3.82 3.82 0 0 0-3.828 3.828v12.344a3.82 3.82 0 0 0 3.828 3.828h17.342c2.12 0 3.83-1.707 3.83-3.828v-12.343a3.822 3.822 0 0 0-3.83-3.829z" transform="scale(.26458)"/><path style="display:inline;opacity:1;vector-effect:none;fill:#36343d;fill-opacity:1;stroke:none;stroke-width:7.14935;stroke-linecap:round;stroke-linejoin:miter;stroke-miterlimit:4;stroke-dasharray:none;stroke-dashoffset:0;stroke-opacity:1;marker:none;marker-start:none;marker-mid:none;marker-end:none;paint-order:normal" d="M367.883 730.484a3.82 3.82 0 0 0-3.828 3.828v12.344a3.82 3.82 0 0 0 3.828 3.828h17.342c2.12 0 3.83-1.707 3.83-3.828v-12.343a3.822 3.822 0 0 0-3.83-3.829z" transform="scale(.26458)"/><path style="display:inline;opacity:1;vector-effect:none;fill:#36343d;fill-opacity:1;stroke:none;stroke-width:7.14935;stroke-linecap:round;stroke-linejoin:miter;stroke-miterlimit:4;stroke-dasharray:none;stroke-dashoffset:0;stroke-opacity:1;marker:none;marker-start:none;marker-mid:none;marker-end:none;paint-order:normal" d="M337.883 730.484a3.82 3.82 0 0 0-3.828 3.828v12.344a3.82 3.82 0 0 0 3.828 3.828h17.342a3.82 3.82 0 0 0 3.828-3.828v-12.343a3.82 3.82 0 0 0-3.828-3.829z" transform="scale(.26458)"/><path style="display:inline;opacity:1;vector-effect:none;fill:#36343d;fill-opacity:1;stroke:none;stroke-width:7.14935;stroke-linecap:round;stroke-linejoin:miter;stroke-miterlimit:4;stroke-dasharray:none;stroke-dashoffset:0;stroke-opacity:1;marker:none;marker-start:none;marker-mid:none;marker-end:none;paint-order:normal" d="M307.883 730.484a3.82 3.82 0 0 0-3.828 3.828v12.344a3.82 3.82 0 0 0 3.828 3.828h17.342c2.12 0 3.83-1.707 3.83-3.828v-12.343a3.822 3.822 0 0 0-3.83-3.829z" transform="scale(.26458)"/><path style="display:inline;opacity:1;vector-effect:none;fill:#36343d;fill-opacity:1;stroke:none;stroke-width:7.14935;stroke-linecap:round;stroke-linejoin:miter;stroke-miterlimit:4;stroke-dasharray:none;stroke-dashoffset:0;stroke-opacity:1;marker:none;marker-start:none;marker-mid:none;marker-end:none;paint-order:normal" d="M277.883 730.484a3.82 3.82 0 0 0-3.828 3.828v12.344a3.82 3.82 0 0 0 3.828 3.828h17.342c2.12 0 3.83-1.707 3.83-3.828v-12.343a3.822 3.822 0 0 0-3.83-3.829z" transform="scale(.26458)"/><path style="display:inline;opacity:1;vector-effect:none;fill:#36343d;fill-opacity:1;stroke:none;stroke-width:7.14935;stroke-linecap:round;stroke-linejoin:miter;stroke-miterlimit:4;stroke-dasharray:none;stroke-dashoffset:0;stroke-opacity:1;marker:none;marker-start:none;marker-mid:none;marker-end:none;paint-order:normal" d="M232.883 730.484a3.82 3.82 0 0 0-3.828 3.828v12.344a3.82 3.82 0 0 0 3.828 3.828h32.342c2.12 0 3.83-1.707 3.83-3.828v-12.343a3.822 3.822 0 0 0-3.83-3.829z" transform="scale(.26458)"/><path style="display:inline;opacity:1;vector-effect:none;fill:#36343d;fill-opacity:1;stroke:none;stroke-width:7.14935;stroke-linecap:round;stroke-linejoin:miter;stroke-miterlimit:4;stroke-dasharray:none;stroke-dashoffset:0;stroke-opacity:1;marker:none;marker-start:none;marker-mid:none;marker-end:none;paint-order:normal" d="M412.883 705.484a3.82 3.82 0 0 0-3.828 3.828v12.344a3.82 3.82 0 0 0 3.828 3.828h32.342a3.821 3.821 0 0 0 3.83-3.828v-12.343a3.822 3.822 0 0 0-3.83-3.829z" transform="scale(.26458)"/><path style="display:inline;opacity:1;vector-effect:none;fill:#36343d;fill-opacity:1;stroke:none;stroke-width:7.14935;stroke-linecap:round;stroke-linejoin:miter;stroke-miterlimit:4;stroke-dasharray:none;stroke-dashoffset:0;stroke-opacity:1;marker:none;marker-start:none;marker-mid:none;marker-end:none;paint-order:normal" d="M382.883 705.484a3.82 3.82 0 0 0-3.828 3.828v12.344a3.82 3.82 0 0 0 3.828 3.828h17.342c2.12 0 3.83-1.707 3.83-3.828v-12.343a3.822 3.822 0 0 0-3.83-3.829z" transform="scale(.26458)"/><path style="display:inline;opacity:1;vector-effect:none;fill:#36343d;fill-opacity:1;stroke:none;stroke-width:7.14935;stroke-linecap:round;stroke-linejoin:miter;stroke-miterlimit:4;stroke-dasharray:none;stroke-dashoffset:0;stroke-opacity:1;marker:none;marker-start:none;marker-mid:none;marker-end:none;paint-order:normal" d="M352.883 705.484a3.82 3.82 0 0 0-3.828 3.828v12.344a3.82 3.82 0 0 0 3.828 3.828h17.342a3.82 3.82 0 0 0 3.828-3.828v-12.343a3.82 3.82 0 0 0-3.828-3.829z" transform="scale(.26458)"/><path style="display:inline;opacity:1;vector-effect:none;fill:#36343d;fill-opacity:1;stroke:none;stroke-width:7.14935;stroke-linecap:round;stroke-linejoin:miter;stroke-miterlimit:4;stroke-dasharray:none;stroke-dashoffset:0;stroke-opacity:1;marker:none;marker-start:none;marker-mid:none;marker-end:none;paint-order:normal" d="M322.883 705.484a3.82 3.82 0 0 0-3.828 3.828v12.344a3.82 3.82 0 0 0 3.828 3.828h17.342c2.12 0 3.83-1.707 3.83-3.828v-12.343a3.822 3.822 0 0 0-3.83-3.829z" transform="scale(.26458)"/><path style="display:inline;opacity:1;vector-effect:none;fill:#36343d;fill-opacity:1;stroke:none;stroke-width:7.14935;stroke-linecap:round;stroke-linejoin:miter;stroke-miterlimit:4;stroke-dasharray:none;stroke-dashoffset:0;stroke-opacity:1;marker:none;marker-start:none;marker-mid:none;marker-end:none;paint-order:normal" d="M292.883 705.484a3.82 3.82 0 0 0-3.828 3.828v12.344a3.82 3.82 0 0 0 3.828 3.828h17.342c2.12 0 3.83-1.707 3.83-3.828v-12.343a3.822 3.822 0 0 0-3.83-3.829z" transform="scale(.26458)"/><path style="display:inline;opacity:1;vector-effect:none;fill:#36343d;fill-opacity:1;stroke:none;stroke-width:7.14935;stroke-linecap:round;stroke-linejoin:miter;stroke-miterlimit:4;stroke-dasharray:none;stroke-dashoffset:0;stroke-opacity:1;marker:none;marker-start:none;marker-mid:none;marker-end:none;paint-order:normal" d="M262.883 705.484a3.82 3.82 0 0 0-3.828 3.828v12.344a3.82 3.82 0 0 0 3.828 3.828h17.342c2.12 0 3.83-1.707 3.83-3.828v-12.343a3.822 3.822 0 0 0-3.83-3.829z" transform="scale(.26458)"/><path style="display:inline;opacity:1;vector-effect:none;fill:#36343d;fill-opacity:1;stroke:none;stroke-width:7.14935;stroke-linecap:round;stroke-linejoin:miter;stroke-miterlimit:4;stroke-dasharray:none;stroke-dashoffset:0;stroke-opacity:1;marker:none;marker-start:none;marker-mid:none;marker-end:none;paint-order:normal" d="M232.883 705.484a3.82 3.82 0 0 0-3.828 3.828v12.344a3.82 3.82 0 0 0 3.828 3.828h17.342c2.12 0 3.83-1.707 3.83-3.828v-12.343a3.822 3.822 0 0 0-3.83-3.829z" transform="scale(.26458)"/><path style="display:inline;opacity:1;vector-effect:none;fill:#000;fill-opacity:1;stroke:none;stroke-width:1.65416;stroke-linecap:round;stroke-linejoin:miter;stroke-miterlimit:4;stroke-dasharray:none;stroke-dashoffset:0;stroke-opacity:1;marker:none;marker-start:none;marker-mid:none;marker-end:none;paint-order:normal" d="M81.537 207.032h4.589a1.01 1.01 0 0 1 1.013 1.013v3.266a1.01 1.01 0 0 1-1.013 1.013h-4.589a1.01 1.01 0 0 1-1.013-1.013v-3.266a1.01 1.01 0 0 1 1.013-1.013z"/><path style="display:inline;opacity:1;vector-effect:none;fill:#36343d;fill-opacity:1;stroke:none;stroke-width:1.8916;stroke-linecap:round;stroke-linejoin:miter;stroke-miterlimit:4;stroke-dasharray:none;stroke-dashoffset:0;stroke-opacity:1;marker:none;marker-start:none;marker-mid:none;marker-end:none;paint-order:normal" d="M81.537 206.503a1.01 1.01 0 0 0-1.013 1.013v3.266a1.01 1.01 0 0 0 1.013 1.013h4.589c.56 0 1.013-.452 1.013-1.013v-3.266c0-.561-.452-1.013-1.013-1.013z"/></g><g transform="translate(-170.51 -29.28) scale(3.0994)" style="display:inline;stroke-width:1.50077"><rect style="opacity:1;vector-effect:none;fill:#000;fill-opacity:.102362;stroke:none;stroke-width:2.38247;stroke-linecap:round;stroke-linejoin:miter;stroke-miterlimit:4;stroke-dasharray:none;stroke-dashoffset:0;stroke-opacity:1;marker:none;marker-start:none;marker-mid:none;marker-end:none;paint-order:normal" width="23.283" height="35.454" x="248.708" y="158.75" rx="17.471" ry="17.471"/><rect ry="11.642" rx="11.642" y="157.692" x="248.708" height="35.454" width="23.283" style="opacity:1;vector-effect:none;fill:#5e5c64;fill-opacity:1;stroke:none;stroke-width:2.38247;stroke-linecap:round;stroke-linejoin:miter;stroke-miterlimit:4;stroke-dasharray:none;stroke-dashoffset:0;stroke-opacity:1;marker:none;marker-start:none;marker-mid:none;marker-end:none;paint-order:normal"/><rect style="opacity:1;vector-effect:none;fill:#9a9996;fill-opacity:1;stroke:none;stroke-width:6.35324;stroke-linecap:round;stroke-linejoin:miter;stroke-miterlimit:4;stroke-dasharray:none;stroke-dashoffset:0;stroke-opacity:1;marker:none;marker-start:none;marker-mid:none;marker-end:none;paint-order:normal" width="23.283" height="35.454" x="248.708" y="156.104" rx="11.642" ry="11.642"/><path style="fill:#5e5c64;fill-opacity:1;stroke:#5e5c64;stroke-width:.397077px;stroke-linecap:butt;stroke-linejoin:miter;stroke-opacity:1" d="M260.615 170.656v-14.552"/><rect style="opacity:1;vector-effect:none;fill:#36343d;fill-opacity:1;stroke:none;stroke-width:6.35324;stroke-linecap:round;stroke-linejoin:miter;stroke-miterlimit:4;stroke-dasharray:none;stroke-dashoffset:0;stroke-opacity:1;marker:none;marker-start:none;marker-mid:none;marker-end:none;paint-order:normal" width="5.292" height="13.229" x="257.969" y="160.073" rx="2.646" ry="2.646"/><circle r="1.455" cy="162.003" cx="260.603" style="opacity:1;vector-effect:none;fill:#c0bfbc;fill-opacity:.102362;stroke:none;stroke-width:2.90278;stroke-linecap:round;stroke-linejoin:miter;stroke-miterlimit:4;stroke-dasharray:none;stroke-dashoffset:0;stroke-opacity:1;marker:none;marker-start:none;marker-mid:none;marker-end:none;paint-order:normal"/></g></svg>