<svg xmlns="http://www.w3.org/2000/svg" xmlns:xlink="http://www.w3.org/1999/xlink" height="600" width="800"><defs><linearGradient xlink:href="#a" id="b" x1="-46.029" y1="119.025" x2="139.157" y2="119.025" gradientUnits="userSpaceOnUse"/><linearGradient id="a"><stop style="stop-color:#4a86cf;stop-opacity:1" offset="0"/><stop style="stop-color:#33d17a;stop-opacity:1" offset=".144"/><stop style="stop-color:#f6d32d;stop-opacity:1" offset=".322"/><stop style="stop-color:#ff7800;stop-opacity:1" offset=".499"/><stop style="stop-color:#e01b24;stop-opacity:1" offset=".681"/><stop style="stop-color:#9141ac;stop-opacity:1" offset=".853"/><stop style="stop-color:#613583;stop-opacity:1" offset="1"/></linearGradient></defs><g transform="translate(-151.976 -208.68) scale(3.8216)" style="display:inline"><rect style="opacity:1;vector-effect:none;fill:#000;fill-opacity:1;stroke:none;stroke-width:1.5875;stroke-linecap:round;stroke-linejoin:miter;stroke-miterlimit:4;stroke-dasharray:none;stroke-dashoffset:0;stroke-opacity:1;marker:none;marker-start:none;marker-mid:none;marker-end:none;paint-order:normal" width="95.25" height="58.208" x="47.625" y="84.667" rx="2.884" ry="2.884"/><rect ry="2.884" rx="2.884" y="145.256" x="47.625" height="58.208" width="95.25" style="opacity:1;vector-effect:none;fill:#000;fill-opacity:.102362;stroke:none;stroke-width:1.5875;stroke-linecap:round;stroke-linejoin:miter;stroke-miterlimit:4;stroke-dasharray:none;stroke-dashoffset:0;stroke-opacity:1;marker:none;marker-start:none;marker-mid:none;marker-end:none;paint-order:normal"/><rect style="opacity:1;vector-effect:none;fill:#deddda;fill-opacity:1;stroke:none;stroke-width:1.5875;stroke-linecap:round;stroke-linejoin:miter;stroke-miterlimit:4;stroke-dasharray:none;stroke-dashoffset:0;stroke-opacity:1;marker:none;marker-start:none;marker-mid:none;marker-end:none;paint-order:normal" width="95.25" height="58.208" x="47.625" y="144.198" rx="2.884" ry="2.884"/><rect ry="2.884" rx="2.884" y="142.875" x="47.625" height="58.208" width="95.25" style="opacity:1;vector-effect:none;fill:#f6f5f4;fill-opacity:1;stroke:none;stroke-width:1.5875;stroke-linecap:round;stroke-linejoin:miter;stroke-miterlimit:4;stroke-dasharray:none;stroke-dashoffset:0;stroke-opacity:1;marker:none;marker-start:none;marker-mid:none;marker-end:none;paint-order:normal"/><rect style="opacity:1;vector-effect:none;fill:#c0bfbc;fill-opacity:1;stroke:none;stroke-width:1.5875;stroke-linecap:round;stroke-linejoin:miter;stroke-miterlimit:4;stroke-dasharray:none;stroke-dashoffset:0;stroke-opacity:1;marker:none;marker-start:none;marker-mid:none;marker-end:none;paint-order:normal" width="84.667" height="29.104" x="52.917" y="148.167" rx="1.958" ry="1.958"/><rect ry="1.958" rx="1.958" y="148.696" x="52.917" height="29.104" width="84.667" style="opacity:1;vector-effect:none;fill:#deddda;fill-opacity:1;stroke:none;stroke-width:1.5875;stroke-linecap:round;stroke-linejoin:miter;stroke-miterlimit:4;stroke-dasharray:none;stroke-dashoffset:0;stroke-opacity:1;marker:none;marker-start:none;marker-mid:none;marker-end:none;paint-order:normal"/><rect ry=".826" rx=".826" y="137.583" x="63.5" height="7.408" width="63.5" style="opacity:1;vector-effect:none;fill:#000;fill-opacity:1;stroke:none;stroke-width:1.5875;stroke-linecap:round;stroke-linejoin:miter;stroke-miterlimit:4;stroke-dasharray:none;stroke-dashoffset:0;stroke-opacity:1;marker:none;marker-start:none;marker-mid:none;marker-end:none;paint-order:normal"/><rect ry="2.884" rx="2.884" y="179.917" x="82.021" height="15.875" width="26.458" style="opacity:1;vector-effect:none;fill:#deddda;fill-opacity:1;stroke:none;stroke-width:1.5875;stroke-linecap:round;stroke-linejoin:miter;stroke-miterlimit:4;stroke-dasharray:none;stroke-dashoffset:0;stroke-opacity:1;marker:none;marker-start:none;marker-mid:none;marker-end:none;paint-order:normal"/><rect style="opacity:1;vector-effect:none;fill:#241f31;fill-opacity:1;stroke:none;stroke-width:1.5875;stroke-linecap:round;stroke-linejoin:miter;stroke-miterlimit:4;stroke-dasharray:none;stroke-dashoffset:0;stroke-opacity:1;marker:none;marker-start:none;marker-mid:none;marker-end:none;paint-order:normal" width="46.302" height="5.292" x="74.083" y="170.656" rx="1.013" ry="1.013"/><rect ry="1.013" rx="1.013" y="170.656" x="121.708" height="5.292" width="6.615" style="opacity:1;vector-effect:none;fill:#241f31;fill-opacity:1;stroke:none;stroke-width:1.5875;stroke-linecap:round;stroke-linejoin:miter;stroke-miterlimit:4;stroke-dasharray:none;stroke-dashoffset:0;stroke-opacity:1;marker:none;marker-start:none;marker-mid:none;marker-end:none;paint-order:normal"/><rect style="opacity:1;vector-effect:none;fill:#241f31;fill-opacity:1;stroke:none;stroke-width:1.5875;stroke-linecap:round;stroke-linejoin:miter;stroke-miterlimit:4;stroke-dasharray:none;stroke-dashoffset:0;stroke-opacity:1;marker:none;marker-start:none;marker-mid:none;marker-end:none;paint-order:normal" width="6.615" height="5.292" x="129.646" y="170.656" rx="1.013" ry="1.013"/><rect ry="1.013" rx="1.013" y="164.042" x="125.677" height="5.292" width="5.292" style="opacity:1;vector-effect:none;fill:#241f31;fill-opacity:1;stroke:none;stroke-width:1.5875;stroke-linecap:round;stroke-linejoin:miter;stroke-miterlimit:4;stroke-dasharray:none;stroke-dashoffset:0;stroke-opacity:1;marker:none;marker-start:none;marker-mid:none;marker-end:none;paint-order:normal"/><rect style="opacity:1;vector-effect:none;fill:#241f31;fill-opacity:1;stroke:none;stroke-width:1.5875;stroke-linecap:round;stroke-linejoin:miter;stroke-miterlimit:4;stroke-dasharray:none;stroke-dashoffset:0;stroke-opacity:1;marker:none;marker-start:none;marker-mid:none;marker-end:none;paint-order:normal" width="6.615" height="5.292" x="117.74" y="164.042" rx="1.013" ry="1.013"/><rect ry="1.013" rx="1.013" y="164.042" x="109.802" height="5.292" width="6.615" style="opacity:1;vector-effect:none;fill:#241f31;fill-opacity:1;stroke:none;stroke-width:1.5875;stroke-linecap:round;stroke-linejoin:miter;stroke-miterlimit:4;stroke-dasharray:none;stroke-dashoffset:0;stroke-opacity:1;marker:none;marker-start:none;marker-mid:none;marker-end:none;paint-order:normal"/><rect style="opacity:1;vector-effect:none;fill:#241f31;fill-opacity:1;stroke:none;stroke-width:1.5875;stroke-linecap:round;stroke-linejoin:miter;stroke-miterlimit:4;stroke-dasharray:none;stroke-dashoffset:0;stroke-opacity:1;marker:none;marker-start:none;marker-mid:none;marker-end:none;paint-order:normal" width="6.615" height="5.292" x="101.865" y="164.042" rx="1.013" ry="1.013"/><rect ry="1.013" rx="1.013" y="164.042" x="93.927" height="5.292" width="6.615" style="opacity:1;vector-effect:none;fill:#241f31;fill-opacity:1;stroke:none;stroke-width:1.5875;stroke-linecap:round;stroke-linejoin:miter;stroke-miterlimit:4;stroke-dasharray:none;stroke-dashoffset:0;stroke-opacity:1;marker:none;marker-start:none;marker-mid:none;marker-end:none;paint-order:normal"/><rect style="opacity:1;vector-effect:none;fill:#241f31;fill-opacity:1;stroke:none;stroke-width:1.5875;stroke-linecap:round;stroke-linejoin:miter;stroke-miterlimit:4;stroke-dasharray:none;stroke-dashoffset:0;stroke-opacity:1;marker:none;marker-start:none;marker-mid:none;marker-end:none;paint-order:normal" width="6.615" height="5.292" x="85.99" y="164.042" rx="1.013" ry="1.013"/><rect ry="1.013" rx="1.013" y="164.042" x="78.052" height="5.292" width="6.615" style="opacity:1;vector-effect:none;fill:#241f31;fill-opacity:1;stroke:none;stroke-width:1.5875;stroke-linecap:round;stroke-linejoin:miter;stroke-miterlimit:4;stroke-dasharray:none;stroke-dashoffset:0;stroke-opacity:1;marker:none;marker-start:none;marker-mid:none;marker-end:none;paint-order:normal"/><rect style="opacity:1;vector-effect:none;fill:#241f31;fill-opacity:1;stroke:none;stroke-width:1.5875;stroke-linecap:round;stroke-linejoin:miter;stroke-miterlimit:4;stroke-dasharray:none;stroke-dashoffset:0;stroke-opacity:1;marker:none;marker-start:none;marker-mid:none;marker-end:none;paint-order:normal" width="6.615" height="5.292" x="70.115" y="164.042" rx="1.013" ry="1.013"/><rect ry="1.013" rx="1.013" y="164.042" x="62.177" height="5.292" width="6.615" style="opacity:1;vector-effect:none;fill:#241f31;fill-opacity:1;stroke:none;stroke-width:1.5875;stroke-linecap:round;stroke-linejoin:miter;stroke-miterlimit:4;stroke-dasharray:none;stroke-dashoffset:0;stroke-opacity:1;marker:none;marker-start:none;marker-mid:none;marker-end:none;paint-order:normal"/><rect style="opacity:1;vector-effect:none;fill:#241f31;fill-opacity:1;stroke:none;stroke-width:1.5875;stroke-linecap:round;stroke-linejoin:miter;stroke-miterlimit:4;stroke-dasharray:none;stroke-dashoffset:0;stroke-opacity:1;marker:none;marker-start:none;marker-mid:none;marker-end:none;paint-order:normal" width="6.615" height="5.292" x="121.708" y="157.427" rx="1.013" ry="1.013"/><rect ry="1.013" rx="1.013" y="157.427" x="113.771" height="5.292" width="6.615" style="opacity:1;vector-effect:none;fill:#241f31;fill-opacity:1;stroke:none;stroke-width:1.5875;stroke-linecap:round;stroke-linejoin:miter;stroke-miterlimit:4;stroke-dasharray:none;stroke-dashoffset:0;stroke-opacity:1;marker:none;marker-start:none;marker-mid:none;marker-end:none;paint-order:normal"/><rect style="opacity:1;vector-effect:none;fill:#241f31;fill-opacity:1;stroke:none;stroke-width:1.5875;stroke-linecap:round;stroke-linejoin:miter;stroke-miterlimit:4;stroke-dasharray:none;stroke-dashoffset:0;stroke-opacity:1;marker:none;marker-start:none;marker-mid:none;marker-end:none;paint-order:normal" width="6.615" height="5.292" x="105.833" y="157.427" rx="1.013" ry="1.013"/><rect ry="1.013" rx="1.013" y="157.427" x="97.896" height="5.292" width="6.615" style="opacity:1;vector-effect:none;fill:#241f31;fill-opacity:1;stroke:none;stroke-width:1.5875;stroke-linecap:round;stroke-linejoin:miter;stroke-miterlimit:4;stroke-dasharray:none;stroke-dashoffset:0;stroke-opacity:1;marker:none;marker-start:none;marker-mid:none;marker-end:none;paint-order:normal"/><rect style="opacity:1;vector-effect:none;fill:#241f31;fill-opacity:1;stroke:none;stroke-width:1.5875;stroke-linecap:round;stroke-linejoin:miter;stroke-miterlimit:4;stroke-dasharray:none;stroke-dashoffset:0;stroke-opacity:1;marker:none;marker-start:none;marker-mid:none;marker-end:none;paint-order:normal" width="6.615" height="5.292" x="89.958" y="157.427" rx="1.013" ry="1.013"/><rect ry="1.013" rx="1.013" y="157.427" x="82.021" height="5.292" width="6.615" style="opacity:1;vector-effect:none;fill:#241f31;fill-opacity:1;stroke:none;stroke-width:1.5875;stroke-linecap:round;stroke-linejoin:miter;stroke-miterlimit:4;stroke-dasharray:none;stroke-dashoffset:0;stroke-opacity:1;marker:none;marker-start:none;marker-mid:none;marker-end:none;paint-order:normal"/><rect style="opacity:1;vector-effect:none;fill:#241f31;fill-opacity:1;stroke:none;stroke-width:1.5875;stroke-linecap:round;stroke-linejoin:miter;stroke-miterlimit:4;stroke-dasharray:none;stroke-dashoffset:0;stroke-opacity:1;marker:none;marker-start:none;marker-mid:none;marker-end:none;paint-order:normal" width="6.615" height="5.292" x="74.083" y="157.427" rx="1.013" ry="1.013"/><rect ry="1.013" rx="1.013" y="157.427" x="66.146" height="5.292" width="6.615" style="opacity:1;vector-effect:none;fill:#241f31;fill-opacity:1;stroke:none;stroke-width:1.5875;stroke-linecap:round;stroke-linejoin:miter;stroke-miterlimit:4;stroke-dasharray:none;stroke-dashoffset:0;stroke-opacity:1;marker:none;marker-start:none;marker-mid:none;marker-end:none;paint-order:normal"/><rect style="opacity:1;vector-effect:none;fill:#241f31;fill-opacity:1;stroke:none;stroke-width:1.5875;stroke-linecap:round;stroke-linejoin:miter;stroke-miterlimit:4;stroke-dasharray:none;stroke-dashoffset:0;stroke-opacity:1;marker:none;marker-start:none;marker-mid:none;marker-end:none;paint-order:normal" width="10.583" height="5.292" x="54.24" y="157.427" rx="1.013" ry="1.013"/><rect ry="1.013" rx="1.013" y="150.813" x="125.677" height="5.292" width="10.583" style="opacity:1;vector-effect:none;fill:#241f31;fill-opacity:1;stroke:none;stroke-width:1.5875;stroke-linecap:round;stroke-linejoin:miter;stroke-miterlimit:4;stroke-dasharray:none;stroke-dashoffset:0;stroke-opacity:1;marker:none;marker-start:none;marker-mid:none;marker-end:none;paint-order:normal"/><rect style="opacity:1;vector-effect:none;fill:#241f31;fill-opacity:1;stroke:none;stroke-width:1.5875;stroke-linecap:round;stroke-linejoin:miter;stroke-miterlimit:4;stroke-dasharray:none;stroke-dashoffset:0;stroke-opacity:1;marker:none;marker-start:none;marker-mid:none;marker-end:none;paint-order:normal" width="6.615" height="5.292" x="117.74" y="150.813" rx="1.013" ry="1.013"/><rect ry="1.013" rx="1.013" y="150.813" x="109.802" height="5.292" width="6.615" style="opacity:1;vector-effect:none;fill:#241f31;fill-opacity:1;stroke:none;stroke-width:1.5875;stroke-linecap:round;stroke-linejoin:miter;stroke-miterlimit:4;stroke-dasharray:none;stroke-dashoffset:0;stroke-opacity:1;marker:none;marker-start:none;marker-mid:none;marker-end:none;paint-order:normal"/><rect style="opacity:1;vector-effect:none;fill:#241f31;fill-opacity:1;stroke:none;stroke-width:1.5875;stroke-linecap:round;stroke-linejoin:miter;stroke-miterlimit:4;stroke-dasharray:none;stroke-dashoffset:0;stroke-opacity:1;marker:none;marker-start:none;marker-mid:none;marker-end:none;paint-order:normal" width="6.615" height="5.292" x="101.865" y="150.813" rx="1.013" ry="1.013"/><rect ry="1.013" rx="1.013" y="150.813" x="93.927" height="5.292" width="6.615" style="opacity:1;vector-effect:none;fill:#241f31;fill-opacity:1;stroke:none;stroke-width:1.5875;stroke-linecap:round;stroke-linejoin:miter;stroke-miterlimit:4;stroke-dasharray:none;stroke-dashoffset:0;stroke-opacity:1;marker:none;marker-start:none;marker-mid:none;marker-end:none;paint-order:normal"/><rect style="opacity:1;vector-effect:none;fill:#241f31;fill-opacity:1;stroke:none;stroke-width:1.5875;stroke-linecap:round;stroke-linejoin:miter;stroke-miterlimit:4;stroke-dasharray:none;stroke-dashoffset:0;stroke-opacity:1;marker:none;marker-start:none;marker-mid:none;marker-end:none;paint-order:normal" width="6.615" height="5.292" x="85.99" y="150.813" rx="1.013" ry="1.013"/><rect ry="1.013" rx="1.013" y="150.813" x="78.052" height="5.292" width="6.615" style="opacity:1;vector-effect:none;fill:#241f31;fill-opacity:1;stroke:none;stroke-width:1.5875;stroke-linecap:round;stroke-linejoin:miter;stroke-miterlimit:4;stroke-dasharray:none;stroke-dashoffset:0;stroke-opacity:1;marker:none;marker-start:none;marker-mid:none;marker-end:none;paint-order:normal"/><rect style="opacity:1;vector-effect:none;fill:#241f31;fill-opacity:1;stroke:none;stroke-width:1.5875;stroke-linecap:round;stroke-linejoin:miter;stroke-miterlimit:4;stroke-dasharray:none;stroke-dashoffset:0;stroke-opacity:1;marker:none;marker-start:none;marker-mid:none;marker-end:none;paint-order:normal" width="6.615" height="5.292" x="70.115" y="150.813" rx="1.013" ry="1.013"/><rect ry="1.013" rx="1.013" y="150.813" x="62.177" height="5.292" width="6.615" style="opacity:1;vector-effect:none;fill:#241f31;fill-opacity:1;stroke:none;stroke-width:1.5875;stroke-linecap:round;stroke-linejoin:miter;stroke-miterlimit:4;stroke-dasharray:none;stroke-dashoffset:0;stroke-opacity:1;marker:none;marker-start:none;marker-mid:none;marker-end:none;paint-order:normal"/><rect style="opacity:1;vector-effect:none;fill:#241f31;fill-opacity:1;stroke:none;stroke-width:1.5875;stroke-linecap:round;stroke-linejoin:miter;stroke-miterlimit:4;stroke-dasharray:none;stroke-dashoffset:0;stroke-opacity:1;marker:none;marker-start:none;marker-mid:none;marker-end:none;paint-order:normal" width="6.615" height="5.292" x="54.24" y="150.813" rx="1.013" ry="1.013"/><rect style="opacity:1;vector-effect:none;fill:#241f31;fill-opacity:1;stroke:none;stroke-width:1.5875;stroke-linecap:round;stroke-linejoin:miter;stroke-miterlimit:4;stroke-dasharray:none;stroke-dashoffset:0;stroke-opacity:1;marker:none;marker-start:none;marker-mid:none;marker-end:none;paint-order:normal" width="6.615" height="5.292" x="54.24" y="164.042" rx="1.013" ry="1.013"/><rect style="opacity:1;vector-effect:none;fill:#241f31;fill-opacity:1;stroke:none;stroke-width:1.5875;stroke-linecap:round;stroke-linejoin:miter;stroke-miterlimit:4;stroke-dasharray:none;stroke-dashoffset:0;stroke-opacity:1;marker:none;marker-start:none;marker-mid:none;marker-end:none;paint-order:normal" width="6.615" height="5.292" x="66.146" y="170.656" rx="1.013" ry="1.013"/><rect ry="1.013" rx="1.013" y="170.656" x="54.24" height="5.292" width="10.583" style="opacity:1;vector-effect:none;fill:#241f31;fill-opacity:1;stroke:none;stroke-width:1.5875;stroke-linecap:round;stroke-linejoin:miter;stroke-miterlimit:4;stroke-dasharray:none;stroke-dashoffset:0;stroke-opacity:1;marker:none;marker-start:none;marker-mid:none;marker-end:none;paint-order:normal"/><rect ry="1.013" rx="1.013" y="157.427" x="129.646" height="5.292" width="6.615" style="opacity:1;vector-effect:none;fill:#241f31;fill-opacity:1;stroke:none;stroke-width:1.5875;stroke-linecap:round;stroke-linejoin:miter;stroke-miterlimit:4;stroke-dasharray:none;stroke-dashoffset:0;stroke-opacity:1;marker:none;marker-start:none;marker-mid:none;marker-end:none;paint-order:normal"/><rect style="opacity:1;vector-effect:none;fill:#241f31;fill-opacity:1;stroke:none;stroke-width:1.5875;stroke-linecap:round;stroke-linejoin:miter;stroke-miterlimit:4;stroke-dasharray:none;stroke-dashoffset:0;stroke-opacity:1;marker:none;marker-start:none;marker-mid:none;marker-end:none;paint-order:normal" width="3.969" height="11.906" x="132.292" y="157.427" rx="1.013" ry="1.013"/></g><g transform="translate(223.961 -208.68) scale(3.8216)" style="display:inline"><rect style="opacity:1;vector-effect:none;fill:#000;fill-opacity:1;stroke:none;stroke-width:1.5875;stroke-linecap:round;stroke-linejoin:miter;stroke-miterlimit:4;stroke-dasharray:none;stroke-dashoffset:0;stroke-opacity:1;marker:none;marker-start:none;marker-mid:none;marker-end:none;paint-order:normal" width="95.25" height="58.208" x="47.625" y="84.667" rx="2.884" ry="2.884"/><rect ry="2.884" rx="2.884" y="145.256" x="47.625" height="58.208" width="95.25" style="opacity:1;vector-effect:none;fill:#000;fill-opacity:.102362;stroke:none;stroke-width:1.5875;stroke-linecap:round;stroke-linejoin:miter;stroke-miterlimit:4;stroke-dasharray:none;stroke-dashoffset:0;stroke-opacity:1;marker:none;marker-start:none;marker-mid:none;marker-end:none;paint-order:normal"/><rect style="opacity:1;vector-effect:none;fill:#5e5c64;fill-opacity:1;stroke:none;stroke-width:1.5875;stroke-linecap:round;stroke-linejoin:miter;stroke-miterlimit:4;stroke-dasharray:none;stroke-dashoffset:0;stroke-opacity:1;marker:none;marker-start:none;marker-mid:none;marker-end:none;paint-order:normal" width="95.25" height="58.208" x="47.625" y="144.198" rx="2.884" ry="2.884"/><rect ry="2.884" rx="2.884" y="142.875" x="47.625" height="58.208" width="95.25" style="opacity:1;vector-effect:none;fill:#77767b;fill-opacity:1;stroke:none;stroke-width:1.5875;stroke-linecap:round;stroke-linejoin:miter;stroke-miterlimit:4;stroke-dasharray:none;stroke-dashoffset:0;stroke-opacity:1;marker:none;marker-start:none;marker-mid:none;marker-end:none;paint-order:normal"/><rect style="opacity:1;vector-effect:none;fill:#3d3846;fill-opacity:1;stroke:none;stroke-width:1.5875;stroke-linecap:round;stroke-linejoin:miter;stroke-miterlimit:4;stroke-dasharray:none;stroke-dashoffset:0;stroke-opacity:1;marker:none;marker-start:none;marker-mid:none;marker-end:none;paint-order:normal" width="84.667" height="29.104" x="52.917" y="148.167" rx="1.958" ry="1.958"/><rect ry="1.958" rx="1.958" y="148.696" x="52.917" height="29.104" width="84.667" style="opacity:1;vector-effect:none;fill:#5e5c64;fill-opacity:1;stroke:none;stroke-width:1.5875;stroke-linecap:round;stroke-linejoin:miter;stroke-miterlimit:4;stroke-dasharray:none;stroke-dashoffset:0;stroke-opacity:1;marker:none;marker-start:none;marker-mid:none;marker-end:none;paint-order:normal"/><rect ry=".826" rx=".826" y="137.583" x="63.5" height="7.408" width="63.5" style="opacity:1;vector-effect:none;fill:#000;fill-opacity:1;stroke:none;stroke-width:1.5875;stroke-linecap:round;stroke-linejoin:miter;stroke-miterlimit:4;stroke-dasharray:none;stroke-dashoffset:0;stroke-opacity:1;marker:none;marker-start:none;marker-mid:none;marker-end:none;paint-order:normal"/><rect ry="2.884" rx="2.884" y="179.917" x="82.021" height="15.875" width="26.458" style="opacity:1;vector-effect:none;fill:#5e5c64;fill-opacity:1;stroke:none;stroke-width:1.5875;stroke-linecap:round;stroke-linejoin:miter;stroke-miterlimit:4;stroke-dasharray:none;stroke-dashoffset:0;stroke-opacity:1;marker:none;marker-start:none;marker-mid:none;marker-end:none;paint-order:normal"/><path style="opacity:1;vector-effect:none;fill:url(#b);fill-opacity:1;stroke:none;stroke-width:1.5875;stroke-linecap:round;stroke-linejoin:miter;stroke-miterlimit:4;stroke-dasharray:none;stroke-dashoffset:0;stroke-opacity:1;marker:none;marker-start:none;marker-mid:none;marker-end:none;paint-order:normal" d="M50.733 86.284h89.034a1.57 1.57 0 0 1 1.575 1.574v51.826a1.57 1.57 0 0 1-1.575 1.574H50.733a1.57 1.57 0 0 1-1.575-1.574V87.858a1.57 1.57 0 0 1 1.575-1.574zm-98.372 0h89.035a1.57 1.57 0 0 1 1.574 1.574v51.826a1.57 1.57 0 0 1-1.574 1.574H-47.64a1.57 1.57 0 0 1-1.574-1.574V87.858a1.57 1.57 0 0 1 1.574-1.574z"/><rect style="opacity:1;vector-effect:none;fill:#241f31;fill-opacity:1;stroke:none;stroke-width:1.5875;stroke-linecap:round;stroke-linejoin:miter;stroke-miterlimit:4;stroke-dasharray:none;stroke-dashoffset:0;stroke-opacity:1;marker:none;marker-start:none;marker-mid:none;marker-end:none;paint-order:normal" width="46.302" height="5.292" x="74.083" y="170.656" rx="1.013" ry="1.013"/><rect ry="1.013" rx="1.013" y="170.656" x="121.708" height="5.292" width="6.615" style="opacity:1;vector-effect:none;fill:#241f31;fill-opacity:1;stroke:none;stroke-width:1.5875;stroke-linecap:round;stroke-linejoin:miter;stroke-miterlimit:4;stroke-dasharray:none;stroke-dashoffset:0;stroke-opacity:1;marker:none;marker-start:none;marker-mid:none;marker-end:none;paint-order:normal"/><rect style="opacity:1;vector-effect:none;fill:#241f31;fill-opacity:1;stroke:none;stroke-width:1.5875;stroke-linecap:round;stroke-linejoin:miter;stroke-miterlimit:4;stroke-dasharray:none;stroke-dashoffset:0;stroke-opacity:1;marker:none;marker-start:none;marker-mid:none;marker-end:none;paint-order:normal" width="6.615" height="5.292" x="129.646" y="170.656" rx="1.013" ry="1.013"/><rect ry="1.013" rx="1.013" y="164.042" x="125.677" height="5.292" width="5.292" style="opacity:1;vector-effect:none;fill:#241f31;fill-opacity:1;stroke:none;stroke-width:1.5875;stroke-linecap:round;stroke-linejoin:miter;stroke-miterlimit:4;stroke-dasharray:none;stroke-dashoffset:0;stroke-opacity:1;marker:none;marker-start:none;marker-mid:none;marker-end:none;paint-order:normal"/><rect style="opacity:1;vector-effect:none;fill:#241f31;fill-opacity:1;stroke:none;stroke-width:1.5875;stroke-linecap:round;stroke-linejoin:miter;stroke-miterlimit:4;stroke-dasharray:none;stroke-dashoffset:0;stroke-opacity:1;marker:none;marker-start:none;marker-mid:none;marker-end:none;paint-order:normal" width="6.615" height="5.292" x="117.74" y="164.042" rx="1.013" ry="1.013"/><rect ry="1.013" rx="1.013" y="164.042" x="109.802" height="5.292" width="6.615" style="opacity:1;vector-effect:none;fill:#241f31;fill-opacity:1;stroke:none;stroke-width:1.5875;stroke-linecap:round;stroke-linejoin:miter;stroke-miterlimit:4;stroke-dasharray:none;stroke-dashoffset:0;stroke-opacity:1;marker:none;marker-start:none;marker-mid:none;marker-end:none;paint-order:normal"/><rect style="opacity:1;vector-effect:none;fill:#241f31;fill-opacity:1;stroke:none;stroke-width:1.5875;stroke-linecap:round;stroke-linejoin:miter;stroke-miterlimit:4;stroke-dasharray:none;stroke-dashoffset:0;stroke-opacity:1;marker:none;marker-start:none;marker-mid:none;marker-end:none;paint-order:normal" width="6.615" height="5.292" x="101.865" y="164.042" rx="1.013" ry="1.013"/><rect ry="1.013" rx="1.013" y="164.042" x="93.927" height="5.292" width="6.615" style="opacity:1;vector-effect:none;fill:#241f31;fill-opacity:1;stroke:none;stroke-width:1.5875;stroke-linecap:round;stroke-linejoin:miter;stroke-miterlimit:4;stroke-dasharray:none;stroke-dashoffset:0;stroke-opacity:1;marker:none;marker-start:none;marker-mid:none;marker-end:none;paint-order:normal"/><rect style="opacity:1;vector-effect:none;fill:#241f31;fill-opacity:1;stroke:none;stroke-width:1.5875;stroke-linecap:round;stroke-linejoin:miter;stroke-miterlimit:4;stroke-dasharray:none;stroke-dashoffset:0;stroke-opacity:1;marker:none;marker-start:none;marker-mid:none;marker-end:none;paint-order:normal" width="6.615" height="5.292" x="85.99" y="164.042" rx="1.013" ry="1.013"/><rect ry="1.013" rx="1.013" y="164.042" x="78.052" height="5.292" width="6.615" style="opacity:1;vector-effect:none;fill:#241f31;fill-opacity:1;stroke:none;stroke-width:1.5875;stroke-linecap:round;stroke-linejoin:miter;stroke-miterlimit:4;stroke-dasharray:none;stroke-dashoffset:0;stroke-opacity:1;marker:none;marker-start:none;marker-mid:none;marker-end:none;paint-order:normal"/><rect style="opacity:1;vector-effect:none;fill:#241f31;fill-opacity:1;stroke:none;stroke-width:1.5875;stroke-linecap:round;stroke-linejoin:miter;stroke-miterlimit:4;stroke-dasharray:none;stroke-dashoffset:0;stroke-opacity:1;marker:none;marker-start:none;marker-mid:none;marker-end:none;paint-order:normal" width="6.615" height="5.292" x="70.115" y="164.042" rx="1.013" ry="1.013"/><rect ry="1.013" rx="1.013" y="164.042" x="62.177" height="5.292" width="6.615" style="opacity:1;vector-effect:none;fill:#241f31;fill-opacity:1;stroke:none;stroke-width:1.5875;stroke-linecap:round;stroke-linejoin:miter;stroke-miterlimit:4;stroke-dasharray:none;stroke-dashoffset:0;stroke-opacity:1;marker:none;marker-start:none;marker-mid:none;marker-end:none;paint-order:normal"/><rect style="opacity:1;vector-effect:none;fill:#241f31;fill-opacity:1;stroke:none;stroke-width:1.5875;stroke-linecap:round;stroke-linejoin:miter;stroke-miterlimit:4;stroke-dasharray:none;stroke-dashoffset:0;stroke-opacity:1;marker:none;marker-start:none;marker-mid:none;marker-end:none;paint-order:normal" width="6.615" height="5.292" x="121.708" y="157.427" rx="1.013" ry="1.013"/><rect ry="1.013" rx="1.013" y="157.427" x="113.771" height="5.292" width="6.615" style="opacity:1;vector-effect:none;fill:#241f31;fill-opacity:1;stroke:none;stroke-width:1.5875;stroke-linecap:round;stroke-linejoin:miter;stroke-miterlimit:4;stroke-dasharray:none;stroke-dashoffset:0;stroke-opacity:1;marker:none;marker-start:none;marker-mid:none;marker-end:none;paint-order:normal"/><rect style="opacity:1;vector-effect:none;fill:#241f31;fill-opacity:1;stroke:none;stroke-width:1.5875;stroke-linecap:round;stroke-linejoin:miter;stroke-miterlimit:4;stroke-dasharray:none;stroke-dashoffset:0;stroke-opacity:1;marker:none;marker-start:none;marker-mid:none;marker-end:none;paint-order:normal" width="6.615" height="5.292" x="105.833" y="157.427" rx="1.013" ry="1.013"/><rect ry="1.013" rx="1.013" y="157.427" x="97.896" height="5.292" width="6.615" style="opacity:1;vector-effect:none;fill:#241f31;fill-opacity:1;stroke:none;stroke-width:1.5875;stroke-linecap:round;stroke-linejoin:miter;stroke-miterlimit:4;stroke-dasharray:none;stroke-dashoffset:0;stroke-opacity:1;marker:none;marker-start:none;marker-mid:none;marker-end:none;paint-order:normal"/><rect style="opacity:1;vector-effect:none;fill:#241f31;fill-opacity:1;stroke:none;stroke-width:1.5875;stroke-linecap:round;stroke-linejoin:miter;stroke-miterlimit:4;stroke-dasharray:none;stroke-dashoffset:0;stroke-opacity:1;marker:none;marker-start:none;marker-mid:none;marker-end:none;paint-order:normal" width="6.615" height="5.292" x="89.958" y="157.427" rx="1.013" ry="1.013"/><rect ry="1.013" rx="1.013" y="157.427" x="82.021" height="5.292" width="6.615" style="opacity:1;vector-effect:none;fill:#241f31;fill-opacity:1;stroke:none;stroke-width:1.5875;stroke-linecap:round;stroke-linejoin:miter;stroke-miterlimit:4;stroke-dasharray:none;stroke-dashoffset:0;stroke-opacity:1;marker:none;marker-start:none;marker-mid:none;marker-end:none;paint-order:normal"/><rect style="opacity:1;vector-effect:none;fill:#241f31;fill-opacity:1;stroke:none;stroke-width:1.5875;stroke-linecap:round;stroke-linejoin:miter;stroke-miterlimit:4;stroke-dasharray:none;stroke-dashoffset:0;stroke-opacity:1;marker:none;marker-start:none;marker-mid:none;marker-end:none;paint-order:normal" width="6.615" height="5.292" x="74.083" y="157.427" rx="1.013" ry="1.013"/><rect ry="1.013" rx="1.013" y="157.427" x="66.146" height="5.292" width="6.615" style="opacity:1;vector-effect:none;fill:#241f31;fill-opacity:1;stroke:none;stroke-width:1.5875;stroke-linecap:round;stroke-linejoin:miter;stroke-miterlimit:4;stroke-dasharray:none;stroke-dashoffset:0;stroke-opacity:1;marker:none;marker-start:none;marker-mid:none;marker-end:none;paint-order:normal"/><rect style="opacity:1;vector-effect:none;fill:#241f31;fill-opacity:1;stroke:none;stroke-width:1.5875;stroke-linecap:round;stroke-linejoin:miter;stroke-miterlimit:4;stroke-dasharray:none;stroke-dashoffset:0;stroke-opacity:1;marker:none;marker-start:none;marker-mid:none;marker-end:none;paint-order:normal" width="10.583" height="5.292" x="54.24" y="157.427" rx="1.013" ry="1.013"/><rect ry="1.013" rx="1.013" y="150.813" x="125.677" height="5.292" width="10.583" style="opacity:1;vector-effect:none;fill:#241f31;fill-opacity:1;stroke:none;stroke-width:1.5875;stroke-linecap:round;stroke-linejoin:miter;stroke-miterlimit:4;stroke-dasharray:none;stroke-dashoffset:0;stroke-opacity:1;marker:none;marker-start:none;marker-mid:none;marker-end:none;paint-order:normal"/><rect style="opacity:1;vector-effect:none;fill:#241f31;fill-opacity:1;stroke:none;stroke-width:1.5875;stroke-linecap:round;stroke-linejoin:miter;stroke-miterlimit:4;stroke-dasharray:none;stroke-dashoffset:0;stroke-opacity:1;marker:none;marker-start:none;marker-mid:none;marker-end:none;paint-order:normal" width="6.615" height="5.292" x="117.74" y="150.813" rx="1.013" ry="1.013"/><rect ry="1.013" rx="1.013" y="150.813" x="109.802" height="5.292" width="6.615" style="opacity:1;vector-effect:none;fill:#241f31;fill-opacity:1;stroke:none;stroke-width:1.5875;stroke-linecap:round;stroke-linejoin:miter;stroke-miterlimit:4;stroke-dasharray:none;stroke-dashoffset:0;stroke-opacity:1;marker:none;marker-start:none;marker-mid:none;marker-end:none;paint-order:normal"/><rect style="opacity:1;vector-effect:none;fill:#241f31;fill-opacity:1;stroke:none;stroke-width:1.5875;stroke-linecap:round;stroke-linejoin:miter;stroke-miterlimit:4;stroke-dasharray:none;stroke-dashoffset:0;stroke-opacity:1;marker:none;marker-start:none;marker-mid:none;marker-end:none;paint-order:normal" width="6.615" height="5.292" x="101.865" y="150.813" rx="1.013" ry="1.013"/><rect ry="1.013" rx="1.013" y="150.813" x="93.927" height="5.292" width="6.615" style="opacity:1;vector-effect:none;fill:#241f31;fill-opacity:1;stroke:none;stroke-width:1.5875;stroke-linecap:round;stroke-linejoin:miter;stroke-miterlimit:4;stroke-dasharray:none;stroke-dashoffset:0;stroke-opacity:1;marker:none;marker-start:none;marker-mid:none;marker-end:none;paint-order:normal"/><rect style="opacity:1;vector-effect:none;fill:#241f31;fill-opacity:1;stroke:none;stroke-width:1.5875;stroke-linecap:round;stroke-linejoin:miter;stroke-miterlimit:4;stroke-dasharray:none;stroke-dashoffset:0;stroke-opacity:1;marker:none;marker-start:none;marker-mid:none;marker-end:none;paint-order:normal" width="6.615" height="5.292" x="85.99" y="150.813" rx="1.013" ry="1.013"/><rect ry="1.013" rx="1.013" y="150.813" x="78.052" height="5.292" width="6.615" style="opacity:1;vector-effect:none;fill:#241f31;fill-opacity:1;stroke:none;stroke-width:1.5875;stroke-linecap:round;stroke-linejoin:miter;stroke-miterlimit:4;stroke-dasharray:none;stroke-dashoffset:0;stroke-opacity:1;marker:none;marker-start:none;marker-mid:none;marker-end:none;paint-order:normal"/><rect style="opacity:1;vector-effect:none;fill:#241f31;fill-opacity:1;stroke:none;stroke-width:1.5875;stroke-linecap:round;stroke-linejoin:miter;stroke-miterlimit:4;stroke-dasharray:none;stroke-dashoffset:0;stroke-opacity:1;marker:none;marker-start:none;marker-mid:none;marker-end:none;paint-order:normal" width="6.615" height="5.292" x="70.115" y="150.813" rx="1.013" ry="1.013"/><rect ry="1.013" rx="1.013" y="150.813" x="62.177" height="5.292" width="6.615" style="opacity:1;vector-effect:none;fill:#241f31;fill-opacity:1;stroke:none;stroke-width:1.5875;stroke-linecap:round;stroke-linejoin:miter;stroke-miterlimit:4;stroke-dasharray:none;stroke-dashoffset:0;stroke-opacity:1;marker:none;marker-start:none;marker-mid:none;marker-end:none;paint-order:normal"/><rect style="opacity:1;vector-effect:none;fill:#241f31;fill-opacity:1;stroke:none;stroke-width:1.5875;stroke-linecap:round;stroke-linejoin:miter;stroke-miterlimit:4;stroke-dasharray:none;stroke-dashoffset:0;stroke-opacity:1;marker:none;marker-start:none;marker-mid:none;marker-end:none;paint-order:normal" width="6.615" height="5.292" x="54.24" y="150.813" rx="1.013" ry="1.013"/><rect style="opacity:1;vector-effect:none;fill:#241f31;fill-opacity:1;stroke:none;stroke-width:1.5875;stroke-linecap:round;stroke-linejoin:miter;stroke-miterlimit:4;stroke-dasharray:none;stroke-dashoffset:0;stroke-opacity:1;marker:none;marker-start:none;marker-mid:none;marker-end:none;paint-order:normal" width="6.615" height="5.292" x="54.24" y="164.042" rx="1.013" ry="1.013"/><rect style="opacity:1;vector-effect:none;fill:#241f31;fill-opacity:1;stroke:none;stroke-width:1.5875;stroke-linecap:round;stroke-linejoin:miter;stroke-miterlimit:4;stroke-dasharray:none;stroke-dashoffset:0;stroke-opacity:1;marker:none;marker-start:none;marker-mid:none;marker-end:none;paint-order:normal" width="6.615" height="5.292" x="66.146" y="170.656" rx="1.013" ry="1.013"/><rect ry="1.013" rx="1.013" y="170.656" x="54.24" height="5.292" width="10.583" style="opacity:1;vector-effect:none;fill:#241f31;fill-opacity:1;stroke:none;stroke-width:1.5875;stroke-linecap:round;stroke-linejoin:miter;stroke-miterlimit:4;stroke-dasharray:none;stroke-dashoffset:0;stroke-opacity:1;marker:none;marker-start:none;marker-mid:none;marker-end:none;paint-order:normal"/><rect ry="1.013" rx="1.013" y="157.427" x="129.646" height="5.292" width="6.615" style="opacity:1;vector-effect:none;fill:#241f31;fill-opacity:1;stroke:none;stroke-width:1.5875;stroke-linecap:round;stroke-linejoin:miter;stroke-miterlimit:4;stroke-dasharray:none;stroke-dashoffset:0;stroke-opacity:1;marker:none;marker-start:none;marker-mid:none;marker-end:none;paint-order:normal"/><rect style="opacity:1;vector-effect:none;fill:#241f31;fill-opacity:1;stroke:none;stroke-width:1.5875;stroke-linecap:round;stroke-linejoin:miter;stroke-miterlimit:4;stroke-dasharray:none;stroke-dashoffset:0;stroke-opacity:1;marker:none;marker-start:none;marker-mid:none;marker-end:none;paint-order:normal" width="3.969" height="11.906" x="132.292" y="157.427" rx="1.013" ry="1.013"/></g><path d="M1698.67-1487.186v-30.87l-35.458 5.173v25.697h35.458m-37.955-25.333-25.749 3.756v21.577h25.749v-25.333m-25.749 27.83v21.851l25.749 3.8v-25.65h-25.749m28.246 26.019 35.458 5.231v-31.25h-35.457v26.019" fill="#2f71f1" style="fill:#fff;stroke-width:.192542" transform="translate(-2730.068 3178.159) scale(1.98834)"/><g transform="translate(-175.794 62.46) scale(.55827)"><circle cx="710.744" cy="302.811" r="137.447" fill="#fff"/><path d="M709.905 163.504c-76.834 0-139.205 62.347-139.205 139.182 0 76.834 62.37 139.205 139.205 139.205 76.835 0 139.182-62.37 139.182-139.205 0-76.835-62.347-139.182-139.182-139.182zm-1.148 24.904c7.148 0 14.332.371 19.258 1.124 38.306 6.293 71.971 33.534 86.336 69.926 9.85 24.762 10.54 52.387 2.057 78.107-3.693 11.218-12.595 27.774-14.784 27.774-2.189-.137-16.836-22.704-19.162-29.544-1.231-3.558-2.737-15.475-3.42-28.062-2.737-44.873-4.618-58.567-24.067-78.514-20.005-19.719-49.72-26.125-75.117-13.133-9.987 4.925-23.655 18.19-28.444 27.63-7.387 14.64-8.082 20.255-7.535 68.276l.407 44.041-3.685 5.335c-2.052 2.873-6.17 8.08-9.042 11.363l-5.335 6.148-6.411-8.205c-8.62-10.808-17.803-30.091-20.813-43.635-2.873-12.997-3.132-37.354-.67-49.257 9.577-44.463 47.195-80.726 91.384-88.25 4.789-.753 11.895-1.124 19.043-1.124zm15.167 84.71c4.104-.137 6.685.838 9.832 3.3 8.482 7.252 10.53 23.122 4.784 37.487l-2.176 5.598 4.234 4.785c4.925 5.746 4.793 4.937 2.057 14.377-3.01 10.124-1.904 14.494 7.536 31.458 8.892 15.734 14.228 28.18 13.133 30.095-1.368 2.189-21.347 9.718-31.745 11.77-13.134 2.736-40.635 1.913-53.084-1.507-9.03-2.6-21.065-8.204-31.052-14.497l-6.435-4.115 3.014-6.411c1.642-3.557 4.79-9.32 6.842-13.014 4.789-8.072 6.98-8.208 21.483-.957 11.902 6.02 18.045 6.852 25.023 3.158 7.935-4.105 36.53-23.68 36.53-25.047 0-2.873-6.009-1.093-23.11 6.842-22.026 10.124-25.331 10.405-36.96 2.607-4.515-3.01-8.325-6.158-8.325-6.842 0-1.641.255-1.632 9.832 1.651 5.746 1.915 9.987 2.461 13.133 1.914 5.883-1.095 42.556-16.843 45.43-19.306 4.104-3.967-4.655-1.905-22.44 5.072-26.951 10.671-29.83 10.543-48.3-1.77-8.619-5.746-9.975-7.273-9.975-10.694 0-2.6 1.238-4.783 3.564-6.698l3.684-2.87-2.87-6.556c-8.483-19.563-2.876-37.223 11.626-37.223 8.619 0 13.133 6.305 14.09 19.712l.694 9.426h19.139l.406-4.641c.82-12.04 2.051-16.558 5.335-20.526 4.377-5.062 7.546-6.579 15.07-6.579zm-2.105 16.554c-.904.061-1.963.309-3.374.694-3.283.82-6.435 7.377-6.435 13.396 0 4.515.405 5.083 7.656 8.23 4.24 1.915 8.208 3.137 8.755 2.727 2.326-1.368 4.386-10.533 3.565-15.048-.548-2.599-2.47-5.893-4.522-7.535-2.445-1.881-3.657-2.6-5.645-2.464zm-54.616 1.77c-1.513.105-3.006.799-4.306 2.2-4.104 4.379-3.978 13.544.263 18.47l3.302 3.707 4.928-3.708c4.24-3.283 5.047-4.64 5.047-9.019 0-6.977-4.693-11.964-9.234-11.65z" fill="#241f31"/></g></svg>