<svg height="600" width="800" xmlns:xlink="http://www.w3.org/1999/xlink" xmlns="http://www.w3.org/2000/svg"><defs><linearGradient id="c"><stop style="stop-color:#8ff0a4;stop-opacity:1" offset="0"/><stop style="stop-color:#99c1f1;stop-opacity:1" offset="1"/></linearGradient><linearGradient id="b"><stop style="stop-color:#c5dbf7;stop-opacity:1" offset="0"/><stop style="stop-color:#1b6fd4;stop-opacity:1" offset=".08"/><stop style="stop-color:#175fb6;stop-opacity:1" offset=".798"/><stop style="stop-color:#438de7;stop-opacity:1" offset=".932"/><stop style="stop-color:#175caf;stop-opacity:1" offset="1"/></linearGradient><linearGradient xlink:href="#a" id="d" x1="-46.029" y1="119.025" x2="139.157" y2="119.025" gradientUnits="userSpaceOnUse"/><linearGradient id="a"><stop style="stop-color:#4a86cf;stop-opacity:1" offset="0"/><stop style="stop-color:#33d17a;stop-opacity:1" offset=".144"/><stop style="stop-color:#f6d32d;stop-opacity:1" offset=".322"/><stop style="stop-color:#ff7800;stop-opacity:1" offset=".499"/><stop style="stop-color:#e01b24;stop-opacity:1" offset=".681"/><stop style="stop-color:#9141ac;stop-opacity:1" offset=".853"/><stop style="stop-color:#613583;stop-opacity:1" offset="1"/></linearGradient><linearGradient xlink:href="#b" id="f" x1="526.469" y1="262.426" x2="731.547" y2="262.426" gradientUnits="userSpaceOnUse"/><linearGradient xlink:href="#b" id="g" gradientUnits="userSpaceOnUse" x1="73.23" y1="262.426" x2="263.805" y2="262.426"/><linearGradient xlink:href="#c" id="e" x1="403.101" y1="232.449" x2="341.082" y2="463.905" gradientUnits="userSpaceOnUse"/><clipPath clipPathUnits="userSpaceOnUse" id="h"><rect style="fill:#e01b24;stroke-width:6;stop-color:#000" width="192.919" height="192.919" x="70.218" y="71.496" rx="23.687" ry="23.687"/></clipPath></defs><g transform="translate(-1536.865 -208.68) scale(3.8216)" style="display:inline"><rect style="opacity:1;vector-effect:none;fill:#000;fill-opacity:1;stroke:none;stroke-width:1.5875;stroke-linecap:round;stroke-linejoin:miter;stroke-miterlimit:4;stroke-dasharray:none;stroke-dashoffset:0;stroke-opacity:1;marker:none;marker-start:none;marker-mid:none;marker-end:none;paint-order:normal" width="95.25" height="58.208" x="47.625" y="84.667" rx="2.884" ry="2.884"/><rect ry="2.884" rx="2.884" y="145.256" x="47.625" height="58.208" width="95.25" style="opacity:1;vector-effect:none;fill:#000;fill-opacity:.102362;stroke:none;stroke-width:1.5875;stroke-linecap:round;stroke-linejoin:miter;stroke-miterlimit:4;stroke-dasharray:none;stroke-dashoffset:0;stroke-opacity:1;marker:none;marker-start:none;marker-mid:none;marker-end:none;paint-order:normal"/><rect style="opacity:1;vector-effect:none;fill:#deddda;fill-opacity:1;stroke:none;stroke-width:1.5875;stroke-linecap:round;stroke-linejoin:miter;stroke-miterlimit:4;stroke-dasharray:none;stroke-dashoffset:0;stroke-opacity:1;marker:none;marker-start:none;marker-mid:none;marker-end:none;paint-order:normal" width="95.25" height="58.208" x="47.625" y="144.198" rx="2.884" ry="2.884"/><rect ry="2.884" rx="2.884" y="142.875" x="47.625" height="58.208" width="95.25" style="opacity:1;vector-effect:none;fill:#f6f5f4;fill-opacity:1;stroke:none;stroke-width:1.5875;stroke-linecap:round;stroke-linejoin:miter;stroke-miterlimit:4;stroke-dasharray:none;stroke-dashoffset:0;stroke-opacity:1;marker:none;marker-start:none;marker-mid:none;marker-end:none;paint-order:normal"/><rect style="opacity:1;vector-effect:none;fill:#c0bfbc;fill-opacity:1;stroke:none;stroke-width:1.5875;stroke-linecap:round;stroke-linejoin:miter;stroke-miterlimit:4;stroke-dasharray:none;stroke-dashoffset:0;stroke-opacity:1;marker:none;marker-start:none;marker-mid:none;marker-end:none;paint-order:normal" width="84.667" height="29.104" x="52.917" y="148.167" rx="1.958" ry="1.958"/><rect ry="1.958" rx="1.958" y="148.696" x="52.917" height="29.104" width="84.667" style="opacity:1;vector-effect:none;fill:#deddda;fill-opacity:1;stroke:none;stroke-width:1.5875;stroke-linecap:round;stroke-linejoin:miter;stroke-miterlimit:4;stroke-dasharray:none;stroke-dashoffset:0;stroke-opacity:1;marker:none;marker-start:none;marker-mid:none;marker-end:none;paint-order:normal"/><rect ry=".826" rx=".826" y="137.583" x="63.5" height="7.408" width="63.5" style="opacity:1;vector-effect:none;fill:#000;fill-opacity:1;stroke:none;stroke-width:1.5875;stroke-linecap:round;stroke-linejoin:miter;stroke-miterlimit:4;stroke-dasharray:none;stroke-dashoffset:0;stroke-opacity:1;marker:none;marker-start:none;marker-mid:none;marker-end:none;paint-order:normal"/><rect ry="2.884" rx="2.884" y="179.917" x="82.021" height="15.875" width="26.458" style="opacity:1;vector-effect:none;fill:#deddda;fill-opacity:1;stroke:none;stroke-width:1.5875;stroke-linecap:round;stroke-linejoin:miter;stroke-miterlimit:4;stroke-dasharray:none;stroke-dashoffset:0;stroke-opacity:1;marker:none;marker-start:none;marker-mid:none;marker-end:none;paint-order:normal"/><rect style="opacity:1;vector-effect:none;fill:#241f31;fill-opacity:1;stroke:none;stroke-width:1.5875;stroke-linecap:round;stroke-linejoin:miter;stroke-miterlimit:4;stroke-dasharray:none;stroke-dashoffset:0;stroke-opacity:1;marker:none;marker-start:none;marker-mid:none;marker-end:none;paint-order:normal" width="46.302" height="5.292" x="74.083" y="170.656" rx="1.013" ry="1.013"/><rect ry="1.013" rx="1.013" y="170.656" x="121.708" height="5.292" width="6.615" style="opacity:1;vector-effect:none;fill:#241f31;fill-opacity:1;stroke:none;stroke-width:1.5875;stroke-linecap:round;stroke-linejoin:miter;stroke-miterlimit:4;stroke-dasharray:none;stroke-dashoffset:0;stroke-opacity:1;marker:none;marker-start:none;marker-mid:none;marker-end:none;paint-order:normal"/><rect style="opacity:1;vector-effect:none;fill:#241f31;fill-opacity:1;stroke:none;stroke-width:1.5875;stroke-linecap:round;stroke-linejoin:miter;stroke-miterlimit:4;stroke-dasharray:none;stroke-dashoffset:0;stroke-opacity:1;marker:none;marker-start:none;marker-mid:none;marker-end:none;paint-order:normal" width="6.615" height="5.292" x="129.646" y="170.656" rx="1.013" ry="1.013"/><rect ry="1.013" rx="1.013" y="164.042" x="125.677" height="5.292" width="5.292" style="opacity:1;vector-effect:none;fill:#241f31;fill-opacity:1;stroke:none;stroke-width:1.5875;stroke-linecap:round;stroke-linejoin:miter;stroke-miterlimit:4;stroke-dasharray:none;stroke-dashoffset:0;stroke-opacity:1;marker:none;marker-start:none;marker-mid:none;marker-end:none;paint-order:normal"/><rect style="opacity:1;vector-effect:none;fill:#241f31;fill-opacity:1;stroke:none;stroke-width:1.5875;stroke-linecap:round;stroke-linejoin:miter;stroke-miterlimit:4;stroke-dasharray:none;stroke-dashoffset:0;stroke-opacity:1;marker:none;marker-start:none;marker-mid:none;marker-end:none;paint-order:normal" width="6.615" height="5.292" x="117.74" y="164.042" rx="1.013" ry="1.013"/><rect ry="1.013" rx="1.013" y="164.042" x="109.802" height="5.292" width="6.615" style="opacity:1;vector-effect:none;fill:#241f31;fill-opacity:1;stroke:none;stroke-width:1.5875;stroke-linecap:round;stroke-linejoin:miter;stroke-miterlimit:4;stroke-dasharray:none;stroke-dashoffset:0;stroke-opacity:1;marker:none;marker-start:none;marker-mid:none;marker-end:none;paint-order:normal"/><rect style="opacity:1;vector-effect:none;fill:#241f31;fill-opacity:1;stroke:none;stroke-width:1.5875;stroke-linecap:round;stroke-linejoin:miter;stroke-miterlimit:4;stroke-dasharray:none;stroke-dashoffset:0;stroke-opacity:1;marker:none;marker-start:none;marker-mid:none;marker-end:none;paint-order:normal" width="6.615" height="5.292" x="101.865" y="164.042" rx="1.013" ry="1.013"/><rect ry="1.013" rx="1.013" y="164.042" x="93.927" height="5.292" width="6.615" style="opacity:1;vector-effect:none;fill:#241f31;fill-opacity:1;stroke:none;stroke-width:1.5875;stroke-linecap:round;stroke-linejoin:miter;stroke-miterlimit:4;stroke-dasharray:none;stroke-dashoffset:0;stroke-opacity:1;marker:none;marker-start:none;marker-mid:none;marker-end:none;paint-order:normal"/><rect style="opacity:1;vector-effect:none;fill:#241f31;fill-opacity:1;stroke:none;stroke-width:1.5875;stroke-linecap:round;stroke-linejoin:miter;stroke-miterlimit:4;stroke-dasharray:none;stroke-dashoffset:0;stroke-opacity:1;marker:none;marker-start:none;marker-mid:none;marker-end:none;paint-order:normal" width="6.615" height="5.292" x="85.99" y="164.042" rx="1.013" ry="1.013"/><rect ry="1.013" rx="1.013" y="164.042" x="78.052" height="5.292" width="6.615" style="opacity:1;vector-effect:none;fill:#241f31;fill-opacity:1;stroke:none;stroke-width:1.5875;stroke-linecap:round;stroke-linejoin:miter;stroke-miterlimit:4;stroke-dasharray:none;stroke-dashoffset:0;stroke-opacity:1;marker:none;marker-start:none;marker-mid:none;marker-end:none;paint-order:normal"/><rect style="opacity:1;vector-effect:none;fill:#241f31;fill-opacity:1;stroke:none;stroke-width:1.5875;stroke-linecap:round;stroke-linejoin:miter;stroke-miterlimit:4;stroke-dasharray:none;stroke-dashoffset:0;stroke-opacity:1;marker:none;marker-start:none;marker-mid:none;marker-end:none;paint-order:normal" width="6.615" height="5.292" x="70.115" y="164.042" rx="1.013" ry="1.013"/><rect ry="1.013" rx="1.013" y="164.042" x="62.177" height="5.292" width="6.615" style="opacity:1;vector-effect:none;fill:#241f31;fill-opacity:1;stroke:none;stroke-width:1.5875;stroke-linecap:round;stroke-linejoin:miter;stroke-miterlimit:4;stroke-dasharray:none;stroke-dashoffset:0;stroke-opacity:1;marker:none;marker-start:none;marker-mid:none;marker-end:none;paint-order:normal"/><rect style="opacity:1;vector-effect:none;fill:#241f31;fill-opacity:1;stroke:none;stroke-width:1.5875;stroke-linecap:round;stroke-linejoin:miter;stroke-miterlimit:4;stroke-dasharray:none;stroke-dashoffset:0;stroke-opacity:1;marker:none;marker-start:none;marker-mid:none;marker-end:none;paint-order:normal" width="6.615" height="5.292" x="121.708" y="157.427" rx="1.013" ry="1.013"/><rect ry="1.013" rx="1.013" y="157.427" x="113.771" height="5.292" width="6.615" style="opacity:1;vector-effect:none;fill:#241f31;fill-opacity:1;stroke:none;stroke-width:1.5875;stroke-linecap:round;stroke-linejoin:miter;stroke-miterlimit:4;stroke-dasharray:none;stroke-dashoffset:0;stroke-opacity:1;marker:none;marker-start:none;marker-mid:none;marker-end:none;paint-order:normal"/><rect style="opacity:1;vector-effect:none;fill:#241f31;fill-opacity:1;stroke:none;stroke-width:1.5875;stroke-linecap:round;stroke-linejoin:miter;stroke-miterlimit:4;stroke-dasharray:none;stroke-dashoffset:0;stroke-opacity:1;marker:none;marker-start:none;marker-mid:none;marker-end:none;paint-order:normal" width="6.615" height="5.292" x="105.833" y="157.427" rx="1.013" ry="1.013"/><rect ry="1.013" rx="1.013" y="157.427" x="97.896" height="5.292" width="6.615" style="opacity:1;vector-effect:none;fill:#241f31;fill-opacity:1;stroke:none;stroke-width:1.5875;stroke-linecap:round;stroke-linejoin:miter;stroke-miterlimit:4;stroke-dasharray:none;stroke-dashoffset:0;stroke-opacity:1;marker:none;marker-start:none;marker-mid:none;marker-end:none;paint-order:normal"/><rect style="opacity:1;vector-effect:none;fill:#241f31;fill-opacity:1;stroke:none;stroke-width:1.5875;stroke-linecap:round;stroke-linejoin:miter;stroke-miterlimit:4;stroke-dasharray:none;stroke-dashoffset:0;stroke-opacity:1;marker:none;marker-start:none;marker-mid:none;marker-end:none;paint-order:normal" width="6.615" height="5.292" x="89.958" y="157.427" rx="1.013" ry="1.013"/><rect ry="1.013" rx="1.013" y="157.427" x="82.021" height="5.292" width="6.615" style="opacity:1;vector-effect:none;fill:#241f31;fill-opacity:1;stroke:none;stroke-width:1.5875;stroke-linecap:round;stroke-linejoin:miter;stroke-miterlimit:4;stroke-dasharray:none;stroke-dashoffset:0;stroke-opacity:1;marker:none;marker-start:none;marker-mid:none;marker-end:none;paint-order:normal"/><rect style="opacity:1;vector-effect:none;fill:#241f31;fill-opacity:1;stroke:none;stroke-width:1.5875;stroke-linecap:round;stroke-linejoin:miter;stroke-miterlimit:4;stroke-dasharray:none;stroke-dashoffset:0;stroke-opacity:1;marker:none;marker-start:none;marker-mid:none;marker-end:none;paint-order:normal" width="6.615" height="5.292" x="74.083" y="157.427" rx="1.013" ry="1.013"/><rect ry="1.013" rx="1.013" y="157.427" x="66.146" height="5.292" width="6.615" style="opacity:1;vector-effect:none;fill:#241f31;fill-opacity:1;stroke:none;stroke-width:1.5875;stroke-linecap:round;stroke-linejoin:miter;stroke-miterlimit:4;stroke-dasharray:none;stroke-dashoffset:0;stroke-opacity:1;marker:none;marker-start:none;marker-mid:none;marker-end:none;paint-order:normal"/><rect style="opacity:1;vector-effect:none;fill:#241f31;fill-opacity:1;stroke:none;stroke-width:1.5875;stroke-linecap:round;stroke-linejoin:miter;stroke-miterlimit:4;stroke-dasharray:none;stroke-dashoffset:0;stroke-opacity:1;marker:none;marker-start:none;marker-mid:none;marker-end:none;paint-order:normal" width="10.583" height="5.292" x="54.24" y="157.427" rx="1.013" ry="1.013"/><rect ry="1.013" rx="1.013" y="150.813" x="125.677" height="5.292" width="10.583" style="opacity:1;vector-effect:none;fill:#241f31;fill-opacity:1;stroke:none;stroke-width:1.5875;stroke-linecap:round;stroke-linejoin:miter;stroke-miterlimit:4;stroke-dasharray:none;stroke-dashoffset:0;stroke-opacity:1;marker:none;marker-start:none;marker-mid:none;marker-end:none;paint-order:normal"/><rect style="opacity:1;vector-effect:none;fill:#241f31;fill-opacity:1;stroke:none;stroke-width:1.5875;stroke-linecap:round;stroke-linejoin:miter;stroke-miterlimit:4;stroke-dasharray:none;stroke-dashoffset:0;stroke-opacity:1;marker:none;marker-start:none;marker-mid:none;marker-end:none;paint-order:normal" width="6.615" height="5.292" x="117.74" y="150.813" rx="1.013" ry="1.013"/><rect ry="1.013" rx="1.013" y="150.813" x="109.802" height="5.292" width="6.615" style="opacity:1;vector-effect:none;fill:#241f31;fill-opacity:1;stroke:none;stroke-width:1.5875;stroke-linecap:round;stroke-linejoin:miter;stroke-miterlimit:4;stroke-dasharray:none;stroke-dashoffset:0;stroke-opacity:1;marker:none;marker-start:none;marker-mid:none;marker-end:none;paint-order:normal"/><rect style="opacity:1;vector-effect:none;fill:#241f31;fill-opacity:1;stroke:none;stroke-width:1.5875;stroke-linecap:round;stroke-linejoin:miter;stroke-miterlimit:4;stroke-dasharray:none;stroke-dashoffset:0;stroke-opacity:1;marker:none;marker-start:none;marker-mid:none;marker-end:none;paint-order:normal" width="6.615" height="5.292" x="101.865" y="150.813" rx="1.013" ry="1.013"/><rect ry="1.013" rx="1.013" y="150.813" x="93.927" height="5.292" width="6.615" style="opacity:1;vector-effect:none;fill:#241f31;fill-opacity:1;stroke:none;stroke-width:1.5875;stroke-linecap:round;stroke-linejoin:miter;stroke-miterlimit:4;stroke-dasharray:none;stroke-dashoffset:0;stroke-opacity:1;marker:none;marker-start:none;marker-mid:none;marker-end:none;paint-order:normal"/><rect style="opacity:1;vector-effect:none;fill:#241f31;fill-opacity:1;stroke:none;stroke-width:1.5875;stroke-linecap:round;stroke-linejoin:miter;stroke-miterlimit:4;stroke-dasharray:none;stroke-dashoffset:0;stroke-opacity:1;marker:none;marker-start:none;marker-mid:none;marker-end:none;paint-order:normal" width="6.615" height="5.292" x="85.99" y="150.813" rx="1.013" ry="1.013"/><rect ry="1.013" rx="1.013" y="150.813" x="78.052" height="5.292" width="6.615" style="opacity:1;vector-effect:none;fill:#241f31;fill-opacity:1;stroke:none;stroke-width:1.5875;stroke-linecap:round;stroke-linejoin:miter;stroke-miterlimit:4;stroke-dasharray:none;stroke-dashoffset:0;stroke-opacity:1;marker:none;marker-start:none;marker-mid:none;marker-end:none;paint-order:normal"/><rect style="opacity:1;vector-effect:none;fill:#241f31;fill-opacity:1;stroke:none;stroke-width:1.5875;stroke-linecap:round;stroke-linejoin:miter;stroke-miterlimit:4;stroke-dasharray:none;stroke-dashoffset:0;stroke-opacity:1;marker:none;marker-start:none;marker-mid:none;marker-end:none;paint-order:normal" width="6.615" height="5.292" x="70.115" y="150.813" rx="1.013" ry="1.013"/><rect ry="1.013" rx="1.013" y="150.813" x="62.177" height="5.292" width="6.615" style="opacity:1;vector-effect:none;fill:#241f31;fill-opacity:1;stroke:none;stroke-width:1.5875;stroke-linecap:round;stroke-linejoin:miter;stroke-miterlimit:4;stroke-dasharray:none;stroke-dashoffset:0;stroke-opacity:1;marker:none;marker-start:none;marker-mid:none;marker-end:none;paint-order:normal"/><rect style="opacity:1;vector-effect:none;fill:#241f31;fill-opacity:1;stroke:none;stroke-width:1.5875;stroke-linecap:round;stroke-linejoin:miter;stroke-miterlimit:4;stroke-dasharray:none;stroke-dashoffset:0;stroke-opacity:1;marker:none;marker-start:none;marker-mid:none;marker-end:none;paint-order:normal" width="6.615" height="5.292" x="54.24" y="150.813" rx="1.013" ry="1.013"/><rect style="opacity:1;vector-effect:none;fill:#241f31;fill-opacity:1;stroke:none;stroke-width:1.5875;stroke-linecap:round;stroke-linejoin:miter;stroke-miterlimit:4;stroke-dasharray:none;stroke-dashoffset:0;stroke-opacity:1;marker:none;marker-start:none;marker-mid:none;marker-end:none;paint-order:normal" width="6.615" height="5.292" x="54.24" y="164.042" rx="1.013" ry="1.013"/><rect style="opacity:1;vector-effect:none;fill:#241f31;fill-opacity:1;stroke:none;stroke-width:1.5875;stroke-linecap:round;stroke-linejoin:miter;stroke-miterlimit:4;stroke-dasharray:none;stroke-dashoffset:0;stroke-opacity:1;marker:none;marker-start:none;marker-mid:none;marker-end:none;paint-order:normal" width="6.615" height="5.292" x="66.146" y="170.656" rx="1.013" ry="1.013"/><rect ry="1.013" rx="1.013" y="170.656" x="54.24" height="5.292" width="10.583" style="opacity:1;vector-effect:none;fill:#241f31;fill-opacity:1;stroke:none;stroke-width:1.5875;stroke-linecap:round;stroke-linejoin:miter;stroke-miterlimit:4;stroke-dasharray:none;stroke-dashoffset:0;stroke-opacity:1;marker:none;marker-start:none;marker-mid:none;marker-end:none;paint-order:normal"/><rect ry="1.013" rx="1.013" y="157.427" x="129.646" height="5.292" width="6.615" style="opacity:1;vector-effect:none;fill:#241f31;fill-opacity:1;stroke:none;stroke-width:1.5875;stroke-linecap:round;stroke-linejoin:miter;stroke-miterlimit:4;stroke-dasharray:none;stroke-dashoffset:0;stroke-opacity:1;marker:none;marker-start:none;marker-mid:none;marker-end:none;paint-order:normal"/><rect style="opacity:1;vector-effect:none;fill:#241f31;fill-opacity:1;stroke:none;stroke-width:1.5875;stroke-linecap:round;stroke-linejoin:miter;stroke-miterlimit:4;stroke-dasharray:none;stroke-dashoffset:0;stroke-opacity:1;marker:none;marker-start:none;marker-mid:none;marker-end:none;paint-order:normal" width="3.969" height="11.906" x="132.292" y="157.427" rx="1.013" ry="1.013"/></g><g transform="translate(-1160.927 -208.68) scale(3.8216)" style="display:inline"><rect style="opacity:1;vector-effect:none;fill:#000;fill-opacity:1;stroke:none;stroke-width:1.5875;stroke-linecap:round;stroke-linejoin:miter;stroke-miterlimit:4;stroke-dasharray:none;stroke-dashoffset:0;stroke-opacity:1;marker:none;marker-start:none;marker-mid:none;marker-end:none;paint-order:normal" width="95.25" height="58.208" x="47.625" y="84.667" rx="2.884" ry="2.884"/><rect ry="2.884" rx="2.884" y="145.256" x="47.625" height="58.208" width="95.25" style="opacity:1;vector-effect:none;fill:#000;fill-opacity:.102362;stroke:none;stroke-width:1.5875;stroke-linecap:round;stroke-linejoin:miter;stroke-miterlimit:4;stroke-dasharray:none;stroke-dashoffset:0;stroke-opacity:1;marker:none;marker-start:none;marker-mid:none;marker-end:none;paint-order:normal"/><rect style="opacity:1;vector-effect:none;fill:#5e5c64;fill-opacity:1;stroke:none;stroke-width:1.5875;stroke-linecap:round;stroke-linejoin:miter;stroke-miterlimit:4;stroke-dasharray:none;stroke-dashoffset:0;stroke-opacity:1;marker:none;marker-start:none;marker-mid:none;marker-end:none;paint-order:normal" width="95.25" height="58.208" x="47.625" y="144.198" rx="2.884" ry="2.884"/><rect ry="2.884" rx="2.884" y="142.875" x="47.625" height="58.208" width="95.25" style="opacity:1;vector-effect:none;fill:#77767b;fill-opacity:1;stroke:none;stroke-width:1.5875;stroke-linecap:round;stroke-linejoin:miter;stroke-miterlimit:4;stroke-dasharray:none;stroke-dashoffset:0;stroke-opacity:1;marker:none;marker-start:none;marker-mid:none;marker-end:none;paint-order:normal"/><rect style="opacity:1;vector-effect:none;fill:#3d3846;fill-opacity:1;stroke:none;stroke-width:1.5875;stroke-linecap:round;stroke-linejoin:miter;stroke-miterlimit:4;stroke-dasharray:none;stroke-dashoffset:0;stroke-opacity:1;marker:none;marker-start:none;marker-mid:none;marker-end:none;paint-order:normal" width="84.667" height="29.104" x="52.917" y="148.167" rx="1.958" ry="1.958"/><rect ry="1.958" rx="1.958" y="148.696" x="52.917" height="29.104" width="84.667" style="opacity:1;vector-effect:none;fill:#5e5c64;fill-opacity:1;stroke:none;stroke-width:1.5875;stroke-linecap:round;stroke-linejoin:miter;stroke-miterlimit:4;stroke-dasharray:none;stroke-dashoffset:0;stroke-opacity:1;marker:none;marker-start:none;marker-mid:none;marker-end:none;paint-order:normal"/><rect ry=".826" rx=".826" y="137.583" x="63.5" height="7.408" width="63.5" style="opacity:1;vector-effect:none;fill:#000;fill-opacity:1;stroke:none;stroke-width:1.5875;stroke-linecap:round;stroke-linejoin:miter;stroke-miterlimit:4;stroke-dasharray:none;stroke-dashoffset:0;stroke-opacity:1;marker:none;marker-start:none;marker-mid:none;marker-end:none;paint-order:normal"/><rect ry="2.884" rx="2.884" y="179.917" x="82.021" height="15.875" width="26.458" style="opacity:1;vector-effect:none;fill:#5e5c64;fill-opacity:1;stroke:none;stroke-width:1.5875;stroke-linecap:round;stroke-linejoin:miter;stroke-miterlimit:4;stroke-dasharray:none;stroke-dashoffset:0;stroke-opacity:1;marker:none;marker-start:none;marker-mid:none;marker-end:none;paint-order:normal"/><path style="opacity:1;vector-effect:none;fill:url(#d);fill-opacity:1;stroke:none;stroke-width:1.5875;stroke-linecap:round;stroke-linejoin:miter;stroke-miterlimit:4;stroke-dasharray:none;stroke-dashoffset:0;stroke-opacity:1;marker:none;marker-start:none;marker-mid:none;marker-end:none;paint-order:normal" d="M50.733 86.284h89.034a1.57 1.57 0 0 1 1.575 1.574v51.826a1.57 1.57 0 0 1-1.575 1.574H50.733a1.57 1.57 0 0 1-1.575-1.574V87.858a1.57 1.57 0 0 1 1.575-1.574zm-98.372 0h89.035a1.57 1.57 0 0 1 1.574 1.574v51.826a1.57 1.57 0 0 1-1.574 1.574H-47.64a1.57 1.57 0 0 1-1.574-1.574V87.858a1.57 1.57 0 0 1 1.574-1.574z"/><rect style="opacity:1;vector-effect:none;fill:#241f31;fill-opacity:1;stroke:none;stroke-width:1.5875;stroke-linecap:round;stroke-linejoin:miter;stroke-miterlimit:4;stroke-dasharray:none;stroke-dashoffset:0;stroke-opacity:1;marker:none;marker-start:none;marker-mid:none;marker-end:none;paint-order:normal" width="46.302" height="5.292" x="74.083" y="170.656" rx="1.013" ry="1.013"/><rect ry="1.013" rx="1.013" y="170.656" x="121.708" height="5.292" width="6.615" style="opacity:1;vector-effect:none;fill:#241f31;fill-opacity:1;stroke:none;stroke-width:1.5875;stroke-linecap:round;stroke-linejoin:miter;stroke-miterlimit:4;stroke-dasharray:none;stroke-dashoffset:0;stroke-opacity:1;marker:none;marker-start:none;marker-mid:none;marker-end:none;paint-order:normal"/><rect style="opacity:1;vector-effect:none;fill:#241f31;fill-opacity:1;stroke:none;stroke-width:1.5875;stroke-linecap:round;stroke-linejoin:miter;stroke-miterlimit:4;stroke-dasharray:none;stroke-dashoffset:0;stroke-opacity:1;marker:none;marker-start:none;marker-mid:none;marker-end:none;paint-order:normal" width="6.615" height="5.292" x="129.646" y="170.656" rx="1.013" ry="1.013"/><rect ry="1.013" rx="1.013" y="164.042" x="125.677" height="5.292" width="5.292" style="opacity:1;vector-effect:none;fill:#241f31;fill-opacity:1;stroke:none;stroke-width:1.5875;stroke-linecap:round;stroke-linejoin:miter;stroke-miterlimit:4;stroke-dasharray:none;stroke-dashoffset:0;stroke-opacity:1;marker:none;marker-start:none;marker-mid:none;marker-end:none;paint-order:normal"/><rect style="opacity:1;vector-effect:none;fill:#241f31;fill-opacity:1;stroke:none;stroke-width:1.5875;stroke-linecap:round;stroke-linejoin:miter;stroke-miterlimit:4;stroke-dasharray:none;stroke-dashoffset:0;stroke-opacity:1;marker:none;marker-start:none;marker-mid:none;marker-end:none;paint-order:normal" width="6.615" height="5.292" x="117.74" y="164.042" rx="1.013" ry="1.013"/><rect ry="1.013" rx="1.013" y="164.042" x="109.802" height="5.292" width="6.615" style="opacity:1;vector-effect:none;fill:#241f31;fill-opacity:1;stroke:none;stroke-width:1.5875;stroke-linecap:round;stroke-linejoin:miter;stroke-miterlimit:4;stroke-dasharray:none;stroke-dashoffset:0;stroke-opacity:1;marker:none;marker-start:none;marker-mid:none;marker-end:none;paint-order:normal"/><rect style="opacity:1;vector-effect:none;fill:#241f31;fill-opacity:1;stroke:none;stroke-width:1.5875;stroke-linecap:round;stroke-linejoin:miter;stroke-miterlimit:4;stroke-dasharray:none;stroke-dashoffset:0;stroke-opacity:1;marker:none;marker-start:none;marker-mid:none;marker-end:none;paint-order:normal" width="6.615" height="5.292" x="101.865" y="164.042" rx="1.013" ry="1.013"/><rect ry="1.013" rx="1.013" y="164.042" x="93.927" height="5.292" width="6.615" style="opacity:1;vector-effect:none;fill:#241f31;fill-opacity:1;stroke:none;stroke-width:1.5875;stroke-linecap:round;stroke-linejoin:miter;stroke-miterlimit:4;stroke-dasharray:none;stroke-dashoffset:0;stroke-opacity:1;marker:none;marker-start:none;marker-mid:none;marker-end:none;paint-order:normal"/><rect style="opacity:1;vector-effect:none;fill:#241f31;fill-opacity:1;stroke:none;stroke-width:1.5875;stroke-linecap:round;stroke-linejoin:miter;stroke-miterlimit:4;stroke-dasharray:none;stroke-dashoffset:0;stroke-opacity:1;marker:none;marker-start:none;marker-mid:none;marker-end:none;paint-order:normal" width="6.615" height="5.292" x="85.99" y="164.042" rx="1.013" ry="1.013"/><rect ry="1.013" rx="1.013" y="164.042" x="78.052" height="5.292" width="6.615" style="opacity:1;vector-effect:none;fill:#241f31;fill-opacity:1;stroke:none;stroke-width:1.5875;stroke-linecap:round;stroke-linejoin:miter;stroke-miterlimit:4;stroke-dasharray:none;stroke-dashoffset:0;stroke-opacity:1;marker:none;marker-start:none;marker-mid:none;marker-end:none;paint-order:normal"/><rect style="opacity:1;vector-effect:none;fill:#241f31;fill-opacity:1;stroke:none;stroke-width:1.5875;stroke-linecap:round;stroke-linejoin:miter;stroke-miterlimit:4;stroke-dasharray:none;stroke-dashoffset:0;stroke-opacity:1;marker:none;marker-start:none;marker-mid:none;marker-end:none;paint-order:normal" width="6.615" height="5.292" x="70.115" y="164.042" rx="1.013" ry="1.013"/><rect ry="1.013" rx="1.013" y="164.042" x="62.177" height="5.292" width="6.615" style="opacity:1;vector-effect:none;fill:#241f31;fill-opacity:1;stroke:none;stroke-width:1.5875;stroke-linecap:round;stroke-linejoin:miter;stroke-miterlimit:4;stroke-dasharray:none;stroke-dashoffset:0;stroke-opacity:1;marker:none;marker-start:none;marker-mid:none;marker-end:none;paint-order:normal"/><rect style="opacity:1;vector-effect:none;fill:#241f31;fill-opacity:1;stroke:none;stroke-width:1.5875;stroke-linecap:round;stroke-linejoin:miter;stroke-miterlimit:4;stroke-dasharray:none;stroke-dashoffset:0;stroke-opacity:1;marker:none;marker-start:none;marker-mid:none;marker-end:none;paint-order:normal" width="6.615" height="5.292" x="121.708" y="157.427" rx="1.013" ry="1.013"/><rect ry="1.013" rx="1.013" y="157.427" x="113.771" height="5.292" width="6.615" style="opacity:1;vector-effect:none;fill:#241f31;fill-opacity:1;stroke:none;stroke-width:1.5875;stroke-linecap:round;stroke-linejoin:miter;stroke-miterlimit:4;stroke-dasharray:none;stroke-dashoffset:0;stroke-opacity:1;marker:none;marker-start:none;marker-mid:none;marker-end:none;paint-order:normal"/><rect style="opacity:1;vector-effect:none;fill:#241f31;fill-opacity:1;stroke:none;stroke-width:1.5875;stroke-linecap:round;stroke-linejoin:miter;stroke-miterlimit:4;stroke-dasharray:none;stroke-dashoffset:0;stroke-opacity:1;marker:none;marker-start:none;marker-mid:none;marker-end:none;paint-order:normal" width="6.615" height="5.292" x="105.833" y="157.427" rx="1.013" ry="1.013"/><rect ry="1.013" rx="1.013" y="157.427" x="97.896" height="5.292" width="6.615" style="opacity:1;vector-effect:none;fill:#241f31;fill-opacity:1;stroke:none;stroke-width:1.5875;stroke-linecap:round;stroke-linejoin:miter;stroke-miterlimit:4;stroke-dasharray:none;stroke-dashoffset:0;stroke-opacity:1;marker:none;marker-start:none;marker-mid:none;marker-end:none;paint-order:normal"/><rect style="opacity:1;vector-effect:none;fill:#241f31;fill-opacity:1;stroke:none;stroke-width:1.5875;stroke-linecap:round;stroke-linejoin:miter;stroke-miterlimit:4;stroke-dasharray:none;stroke-dashoffset:0;stroke-opacity:1;marker:none;marker-start:none;marker-mid:none;marker-end:none;paint-order:normal" width="6.615" height="5.292" x="89.958" y="157.427" rx="1.013" ry="1.013"/><rect ry="1.013" rx="1.013" y="157.427" x="82.021" height="5.292" width="6.615" style="opacity:1;vector-effect:none;fill:#241f31;fill-opacity:1;stroke:none;stroke-width:1.5875;stroke-linecap:round;stroke-linejoin:miter;stroke-miterlimit:4;stroke-dasharray:none;stroke-dashoffset:0;stroke-opacity:1;marker:none;marker-start:none;marker-mid:none;marker-end:none;paint-order:normal"/><rect style="opacity:1;vector-effect:none;fill:#241f31;fill-opacity:1;stroke:none;stroke-width:1.5875;stroke-linecap:round;stroke-linejoin:miter;stroke-miterlimit:4;stroke-dasharray:none;stroke-dashoffset:0;stroke-opacity:1;marker:none;marker-start:none;marker-mid:none;marker-end:none;paint-order:normal" width="6.615" height="5.292" x="74.083" y="157.427" rx="1.013" ry="1.013"/><rect ry="1.013" rx="1.013" y="157.427" x="66.146" height="5.292" width="6.615" style="opacity:1;vector-effect:none;fill:#241f31;fill-opacity:1;stroke:none;stroke-width:1.5875;stroke-linecap:round;stroke-linejoin:miter;stroke-miterlimit:4;stroke-dasharray:none;stroke-dashoffset:0;stroke-opacity:1;marker:none;marker-start:none;marker-mid:none;marker-end:none;paint-order:normal"/><rect style="opacity:1;vector-effect:none;fill:#241f31;fill-opacity:1;stroke:none;stroke-width:1.5875;stroke-linecap:round;stroke-linejoin:miter;stroke-miterlimit:4;stroke-dasharray:none;stroke-dashoffset:0;stroke-opacity:1;marker:none;marker-start:none;marker-mid:none;marker-end:none;paint-order:normal" width="10.583" height="5.292" x="54.24" y="157.427" rx="1.013" ry="1.013"/><rect ry="1.013" rx="1.013" y="150.813" x="125.677" height="5.292" width="10.583" style="opacity:1;vector-effect:none;fill:#241f31;fill-opacity:1;stroke:none;stroke-width:1.5875;stroke-linecap:round;stroke-linejoin:miter;stroke-miterlimit:4;stroke-dasharray:none;stroke-dashoffset:0;stroke-opacity:1;marker:none;marker-start:none;marker-mid:none;marker-end:none;paint-order:normal"/><rect style="opacity:1;vector-effect:none;fill:#241f31;fill-opacity:1;stroke:none;stroke-width:1.5875;stroke-linecap:round;stroke-linejoin:miter;stroke-miterlimit:4;stroke-dasharray:none;stroke-dashoffset:0;stroke-opacity:1;marker:none;marker-start:none;marker-mid:none;marker-end:none;paint-order:normal" width="6.615" height="5.292" x="117.74" y="150.813" rx="1.013" ry="1.013"/><rect ry="1.013" rx="1.013" y="150.813" x="109.802" height="5.292" width="6.615" style="opacity:1;vector-effect:none;fill:#241f31;fill-opacity:1;stroke:none;stroke-width:1.5875;stroke-linecap:round;stroke-linejoin:miter;stroke-miterlimit:4;stroke-dasharray:none;stroke-dashoffset:0;stroke-opacity:1;marker:none;marker-start:none;marker-mid:none;marker-end:none;paint-order:normal"/><rect style="opacity:1;vector-effect:none;fill:#241f31;fill-opacity:1;stroke:none;stroke-width:1.5875;stroke-linecap:round;stroke-linejoin:miter;stroke-miterlimit:4;stroke-dasharray:none;stroke-dashoffset:0;stroke-opacity:1;marker:none;marker-start:none;marker-mid:none;marker-end:none;paint-order:normal" width="6.615" height="5.292" x="101.865" y="150.813" rx="1.013" ry="1.013"/><rect ry="1.013" rx="1.013" y="150.813" x="93.927" height="5.292" width="6.615" style="opacity:1;vector-effect:none;fill:#241f31;fill-opacity:1;stroke:none;stroke-width:1.5875;stroke-linecap:round;stroke-linejoin:miter;stroke-miterlimit:4;stroke-dasharray:none;stroke-dashoffset:0;stroke-opacity:1;marker:none;marker-start:none;marker-mid:none;marker-end:none;paint-order:normal"/><rect style="opacity:1;vector-effect:none;fill:#241f31;fill-opacity:1;stroke:none;stroke-width:1.5875;stroke-linecap:round;stroke-linejoin:miter;stroke-miterlimit:4;stroke-dasharray:none;stroke-dashoffset:0;stroke-opacity:1;marker:none;marker-start:none;marker-mid:none;marker-end:none;paint-order:normal" width="6.615" height="5.292" x="85.99" y="150.813" rx="1.013" ry="1.013"/><rect ry="1.013" rx="1.013" y="150.813" x="78.052" height="5.292" width="6.615" style="opacity:1;vector-effect:none;fill:#241f31;fill-opacity:1;stroke:none;stroke-width:1.5875;stroke-linecap:round;stroke-linejoin:miter;stroke-miterlimit:4;stroke-dasharray:none;stroke-dashoffset:0;stroke-opacity:1;marker:none;marker-start:none;marker-mid:none;marker-end:none;paint-order:normal"/><rect style="opacity:1;vector-effect:none;fill:#241f31;fill-opacity:1;stroke:none;stroke-width:1.5875;stroke-linecap:round;stroke-linejoin:miter;stroke-miterlimit:4;stroke-dasharray:none;stroke-dashoffset:0;stroke-opacity:1;marker:none;marker-start:none;marker-mid:none;marker-end:none;paint-order:normal" width="6.615" height="5.292" x="70.115" y="150.813" rx="1.013" ry="1.013"/><rect ry="1.013" rx="1.013" y="150.813" x="62.177" height="5.292" width="6.615" style="opacity:1;vector-effect:none;fill:#241f31;fill-opacity:1;stroke:none;stroke-width:1.5875;stroke-linecap:round;stroke-linejoin:miter;stroke-miterlimit:4;stroke-dasharray:none;stroke-dashoffset:0;stroke-opacity:1;marker:none;marker-start:none;marker-mid:none;marker-end:none;paint-order:normal"/><rect style="opacity:1;vector-effect:none;fill:#241f31;fill-opacity:1;stroke:none;stroke-width:1.5875;stroke-linecap:round;stroke-linejoin:miter;stroke-miterlimit:4;stroke-dasharray:none;stroke-dashoffset:0;stroke-opacity:1;marker:none;marker-start:none;marker-mid:none;marker-end:none;paint-order:normal" width="6.615" height="5.292" x="54.24" y="150.813" rx="1.013" ry="1.013"/><rect style="opacity:1;vector-effect:none;fill:#241f31;fill-opacity:1;stroke:none;stroke-width:1.5875;stroke-linecap:round;stroke-linejoin:miter;stroke-miterlimit:4;stroke-dasharray:none;stroke-dashoffset:0;stroke-opacity:1;marker:none;marker-start:none;marker-mid:none;marker-end:none;paint-order:normal" width="6.615" height="5.292" x="54.24" y="164.042" rx="1.013" ry="1.013"/><rect style="opacity:1;vector-effect:none;fill:#241f31;fill-opacity:1;stroke:none;stroke-width:1.5875;stroke-linecap:round;stroke-linejoin:miter;stroke-miterlimit:4;stroke-dasharray:none;stroke-dashoffset:0;stroke-opacity:1;marker:none;marker-start:none;marker-mid:none;marker-end:none;paint-order:normal" width="6.615" height="5.292" x="66.146" y="170.656" rx="1.013" ry="1.013"/><rect ry="1.013" rx="1.013" y="170.656" x="54.24" height="5.292" width="10.583" style="opacity:1;vector-effect:none;fill:#241f31;fill-opacity:1;stroke:none;stroke-width:1.5875;stroke-linecap:round;stroke-linejoin:miter;stroke-miterlimit:4;stroke-dasharray:none;stroke-dashoffset:0;stroke-opacity:1;marker:none;marker-start:none;marker-mid:none;marker-end:none;paint-order:normal"/><rect ry="1.013" rx="1.013" y="157.427" x="129.646" height="5.292" width="6.615" style="opacity:1;vector-effect:none;fill:#241f31;fill-opacity:1;stroke:none;stroke-width:1.5875;stroke-linecap:round;stroke-linejoin:miter;stroke-miterlimit:4;stroke-dasharray:none;stroke-dashoffset:0;stroke-opacity:1;marker:none;marker-start:none;marker-mid:none;marker-end:none;paint-order:normal"/><rect style="opacity:1;vector-effect:none;fill:#241f31;fill-opacity:1;stroke:none;stroke-width:1.5875;stroke-linecap:round;stroke-linejoin:miter;stroke-miterlimit:4;stroke-dasharray:none;stroke-dashoffset:0;stroke-opacity:1;marker:none;marker-start:none;marker-mid:none;marker-end:none;paint-order:normal" width="3.969" height="11.906" x="132.292" y="157.427" rx="1.013" ry="1.013"/></g><path d="M1698.67-1487.186v-30.87l-35.458 5.173v25.697h35.458m-37.955-25.333-25.749 3.756v21.577h25.749v-25.333m-25.749 27.83v21.851l25.749 3.8v-25.65h-25.749m28.246 26.019 35.458 5.231v-31.25h-35.457v26.019" fill="#2f71f1" style="fill:#fff;stroke-width:.192542" transform="translate(-4114.957 3178.159) scale(1.98834)"/><g transform="matrix(.55827 0 0 .55827 -1560.682 62.46)"><circle cx="710.744" cy="302.811" r="137.447" fill="#fff"/><path d="M709.905 163.504c-76.834 0-139.205 62.347-139.205 139.182 0 76.834 62.37 139.205 139.205 139.205 76.835 0 139.182-62.37 139.182-139.205 0-76.835-62.347-139.182-139.182-139.182zm-1.148 24.904c7.148 0 14.332.371 19.258 1.124 38.306 6.293 71.971 33.534 86.336 69.926 9.85 24.762 10.54 52.387 2.057 78.107-3.693 11.218-12.595 27.774-14.784 27.774-2.189-.137-16.836-22.704-19.162-29.544-1.231-3.558-2.737-15.475-3.42-28.062-2.737-44.873-4.618-58.567-24.067-78.514-20.005-19.719-49.72-26.125-75.117-13.133-9.987 4.925-23.655 18.19-28.444 27.63-7.387 14.64-8.082 20.255-7.535 68.276l.407 44.041-3.685 5.335c-2.052 2.873-6.17 8.08-9.042 11.363l-5.335 6.148-6.411-8.205c-8.62-10.808-17.803-30.091-20.813-43.635-2.873-12.997-3.132-37.354-.67-49.257 9.577-44.463 47.195-80.726 91.384-88.25 4.789-.753 11.895-1.124 19.043-1.124zm15.167 84.71c4.104-.137 6.685.838 9.832 3.3 8.482 7.252 10.53 23.122 4.784 37.487l-2.176 5.598 4.234 4.785c4.925 5.746 4.793 4.937 2.057 14.377-3.01 10.124-1.904 14.494 7.536 31.458 8.892 15.734 14.228 28.18 13.133 30.095-1.368 2.189-21.347 9.718-31.745 11.77-13.134 2.736-40.635 1.913-53.084-1.507-9.03-2.6-21.065-8.204-31.052-14.497l-6.435-4.115 3.014-6.411c1.642-3.557 4.79-9.32 6.842-13.014 4.789-8.072 6.98-8.208 21.483-.957 11.902 6.02 18.045 6.852 25.023 3.158 7.935-4.105 36.53-23.68 36.53-25.047 0-2.873-6.009-1.093-23.11 6.842-22.026 10.124-25.331 10.405-36.96 2.607-4.515-3.01-8.325-6.158-8.325-6.842 0-1.641.255-1.632 9.832 1.651 5.746 1.915 9.987 2.461 13.133 1.914 5.883-1.095 42.556-16.843 45.43-19.306 4.104-3.967-4.655-1.905-22.44 5.072-26.951 10.671-29.83 10.543-48.3-1.77-8.619-5.746-9.975-7.273-9.975-10.694 0-2.6 1.238-4.783 3.564-6.698l3.684-2.87-2.87-6.556c-8.483-19.563-2.876-37.223 11.626-37.223 8.619 0 13.133 6.305 14.09 19.712l.694 9.426h19.139l.406-4.641c.82-12.04 2.051-16.558 5.335-20.526 4.377-5.062 7.546-6.579 15.07-6.579zm-2.105 16.554c-.904.061-1.963.309-3.374.694-3.283.82-6.435 7.377-6.435 13.396 0 4.515.405 5.083 7.656 8.23 4.24 1.915 8.208 3.137 8.755 2.727 2.326-1.368 4.386-10.533 3.565-15.048-.548-2.599-2.47-5.893-4.522-7.535-2.445-1.881-3.657-2.6-5.645-2.464zm-54.616 1.77c-1.513.105-3.006.799-4.306 2.2-4.104 4.379-3.978 13.544.263 18.47l3.302 3.707 4.928-3.708c4.24-3.283 5.047-4.64 5.047-9.019 0-6.977-4.693-11.964-9.234-11.65z" fill="#241f31"/></g><path style="display:inline;fill:url(#e);fill-opacity:1;stroke:none;stroke-width:3.02157;stroke-opacity:.956856;stop-color:#000" d="M137.415 171.533v.846a52.998 52.998 0 0 0 52.999 52.999h27.116a12.086 12.086 0 0 1 12.086 12.086v4.955a12.086 12.086 0 0 1-12.086 12.086H90.702a52.998 52.998 0 0 0-52.999 52.999v.846a52.998 52.998 0 0 0 52.999 52.998h33.72a12.086 12.086 0 0 1 12.087 12.087v3.021a12.086 12.086 0 0 1-12.087 12.087h-6.526a52.998 52.998 0 0 0-52.999 52.998v.847a52.998 52.998 0 0 0 52.999 52.998h601.051a52.998 52.998 0 0 0 52.999-52.998v-.847a52.998 52.998 0 0 0-52.999-52.998H378.235a12.086 12.086 0 0 1-12.087-12.087v-3.021a12.086 12.086 0 0 1 12.087-12.086h89.922a52.998 52.998 0 0 0 52.998-52.999v-.846a52.998 52.998 0 0 0-52.998-52.999h-32.185a14.53 14.53 0 0 1-14.529-14.53v-.068a14.53 14.53 0 0 1 14.53-14.53h11.033a52.998 52.998 0 0 0 52.998-52.998v-.846a52.998 52.998 0 0 0-52.998-52.999H190.414a52.998 52.998 0 0 0-52.999 52.999z"/><g transform="translate(27.26)"><circle cx="373.504" cy="416.111" fill="#fff" style="stroke-width:.898028" r="123.432"/><path d="M372.75 291.009c-68.999 0-125.01 55.99-125.01 124.99 0 68.998 56.01 125.01 125.01 125.01s124.99-56.01 124.99-125.01-55.99-124.99-124.99-124.99zm-1.03 22.364c6.419 0 12.87.333 17.294 1.01 34.4 5.65 64.632 30.114 77.532 62.795 8.846 22.237 9.465 47.045 1.847 70.143-3.316 10.074-11.31 24.942-13.276 24.942-1.966-.124-15.12-20.39-17.208-26.532-1.106-3.195-2.458-13.897-3.071-25.2-2.458-40.298-4.147-52.595-21.613-70.508-17.965-17.709-44.65-23.461-67.458-11.794-8.968 4.423-21.242 16.335-25.543 24.812-6.634 13.148-7.258 18.19-6.767 61.314l.366 39.55-3.31 4.791c-1.842 2.58-5.54 7.257-8.12 10.205l-4.79 5.52-5.758-7.367c-7.74-9.706-15.987-27.023-18.69-39.186-2.58-11.672-2.813-33.545-.602-44.234 8.6-39.93 42.382-72.495 82.065-79.251 4.301-.677 10.682-1.01 17.102-1.01zm13.62 76.072c3.686-.123 6.003.753 8.83 2.964 7.617 6.512 9.456 20.764 4.296 33.664l-1.954 5.027 3.802 4.297c4.423 5.16 4.304 4.434 1.847 12.911-2.703 9.092-1.71 13.017 6.768 28.25 7.985 14.13 12.777 25.307 11.793 27.027-1.228 1.966-19.17 8.727-28.508 10.57-11.794 2.457-36.491 1.718-47.67-1.354-8.11-2.334-18.918-7.367-27.886-13.018l-5.78-3.696 2.708-5.757c1.474-3.194 4.301-8.37 6.144-11.687 4.3-7.249 6.268-7.371 19.292-.86 10.689 5.407 16.205 6.154 22.472 2.837 7.126-3.687 32.805-21.266 32.805-22.493 0-2.58-5.396-.982-20.754 6.144-19.78 9.092-22.748 9.344-33.19 2.341-4.056-2.703-7.477-5.53-7.477-6.144 0-1.474.229-1.466 8.83 1.482 5.16 1.72 8.968 2.21 11.793 1.72 5.283-.984 38.217-15.126 40.798-17.338 3.685-3.563-4.18-1.71-20.152 4.555-24.203 9.583-26.788 9.468-43.375-1.59-7.74-5.16-8.958-6.531-8.958-9.603 0-2.335 1.112-4.296 3.2-6.015l3.31-2.578-2.578-5.887c-7.618-17.568-2.583-33.428 10.44-33.428 7.74 0 11.794 5.663 12.654 17.702l.623 8.465h17.187l.365-4.168c.736-10.812 1.842-14.87 4.79-18.432 3.931-4.546 6.777-5.909 13.534-5.909zm-1.89 14.866c-.812.055-1.763.278-3.03.624-2.949.736-5.78 6.624-5.78 12.03 0 4.054.365 4.564 6.876 7.39 3.808 1.72 7.371 2.817 7.862 2.45 2.09-1.23 3.94-9.46 3.202-13.514-.492-2.334-2.218-5.292-4.06-6.767-2.197-1.69-3.285-2.335-5.07-2.213zm-49.047 1.59c-1.359.094-2.7.717-3.867 1.975-3.686 3.933-3.572 12.163.236 16.587l2.965 3.33 4.426-3.33c3.808-2.949 4.532-4.168 4.532-8.1 0-6.266-4.214-10.744-8.292-10.462z" fill="#241f31" style="stroke-width:.898028"/></g><g fill="#2f71f1"><path d="M521.895 184.51V228.9a31.602 31.602 49.197 0 0 26.99 31.263l57.464 8.48V184.51h-84.455m92.646 85.34 89.311 13.178a23.552 23.552 139.196 0 0 26.99-23.3v-75.218h-116.3v85.34" style="font-variation-settings:normal;opacity:1;vector-effect:none;fill:url(#f);fill-opacity:1;stroke-width:6;stroke-linecap:butt;stroke-linejoin:miter;stroke-miterlimit:4;stroke-dasharray:none;stroke-dashoffset:0;stroke-opacity:1;-inkscape-stroke:none;stop-color:#000;stop-opacity:1" transform="translate(-55.953)"/><path d="M730.84 176.319v-73.97a23.59 23.59 40.85 0 0-26.995-23.343L614.54 92.032v84.287h116.3M606.348 93.228l-57.46 8.382a31.55 31.55 130.85 0 0-26.995 31.22v43.488h84.455v-83.09" style="font-variation-settings:normal;opacity:1;vector-effect:none;fill:#1862bb;fill-opacity:1;stroke-width:6;stroke-linecap:butt;stroke-linejoin:miter;stroke-miterlimit:4;stroke-dasharray:none;stroke-dashoffset:0;stroke-opacity:1;-inkscape-stroke:none;stop-color:#000;stop-opacity:1" transform="translate(-55.953)"/><path d="M730.84 168.126V94.158a23.59 23.59 40.85 0 0-26.995-23.344L614.54 83.84v84.286h116.3m-124.492-83.09-57.46 8.382a31.55 31.55 130.85 0 0-26.995 31.22v43.488h84.455v-83.09m-84.454 91.283v44.388a31.602 31.602 49.197 0 0 26.99 31.263l57.464 8.48v-84.131h-84.455m92.646 85.34 89.311 13.178a23.552 23.552 139.196 0 0 26.99-23.3v-75.219h-116.3v85.342" style="fill:#99c1f1;stroke-width:.631529" transform="translate(-55.953)"/></g><g transform="translate(44.637 5.434)"><rect style="font-variation-settings:normal;opacity:1;vector-effect:none;fill:url(#g);fill-opacity:1;stroke-width:6;stroke-linecap:butt;stroke-linejoin:miter;stroke-miterlimit:4;stroke-dasharray:none;stroke-dashoffset:0;stroke-opacity:1;-inkscape-stroke:none;stop-color:#000;stop-opacity:1" width="192.919" height="192.919" x="70.218" y="80.081" rx="20.512" ry="20.512"/><g clip-path="url(#h)"><path style="fill:#3584e4;stroke-width:6;stop-color:#000" d="M70.218 71.496h192.919v192.919H70.218z"/><path style="opacity:1;vector-effect:none;fill:#99c1f1;stroke-width:7.37866;stroke-linecap:round;stop-color:#000;stop-opacity:1" d="M310.468 181.309c-.283 115.795 30.825 184.072-45.74 184.072-72.091 0-94.298-110.679-94.298-196.135l-17.222-.02c.63-47.182 21.468-223.177 98.035-223.177 76.566 0 59.57 93.871 59.288 209.666z"/><path style="fill:none;stroke:#000;stroke-width:6;stroke-linecap:round;stroke-linejoin:miter;stroke-miterlimit:4;stroke-dasharray:none;stroke-opacity:1" d="M121.9 198.946c24.618 29.658 74.768 27.91 94.651 0"/><path style="font-variation-settings:normal;opacity:1;fill:none;fill-opacity:1;stroke:#000;stroke-width:8;stroke-linecap:round;stroke-linejoin:miter;stroke-miterlimit:4;stroke-dasharray:none;stroke-dashoffset:0;stroke-opacity:1;stop-color:#000;stop-opacity:1" d="M127.986 135.307v13.485M205.986 135.307v13.485"/></g></g></svg>