<svg height="600" width="800" xmlns:xlink="http://www.w3.org/1999/xlink" xmlns="http://www.w3.org/2000/svg"><defs><linearGradient id="c"><stop style="stop-color:#3d3846;stop-opacity:1" offset="0"/><stop style="stop-color:#5e5c64;stop-opacity:1" offset="1"/></linearGradient><linearGradient xlink:href="#a" id="g" x1="203.261" y1="784" x2="203.261" y2="800" gradientUnits="userSpaceOnUse" gradientTransform="matrix(-1.1846 0 0 1.1846 1708.2 -2946.342)"/><linearGradient id="a"><stop style="stop-color:#9a9996;stop-opacity:1" offset="0"/><stop style="stop-color:#adaba8;stop-opacity:1" offset=".7"/><stop style="stop-color:#60605c;stop-opacity:1" offset="1"/></linearGradient><linearGradient xlink:href="#b" id="h" x1="89.575" y1="203.223" x2="105.694" y2="202.635" gradientUnits="userSpaceOnUse"/><linearGradient id="b"><stop style="stop-color:#787878;stop-opacity:1" offset="0"/><stop style="stop-color:#787878;stop-opacity:0" offset="1"/></linearGradient><linearGradient xlink:href="#a" id="e" gradientUnits="userSpaceOnUse" gradientTransform="matrix(1.1846 0 0 1.1846 1704.952 -2946.342)" x1="203.261" y1="784" x2="203.261" y2="800"/><linearGradient xlink:href="#c" id="f" x1="-2446.765" y1="-2211.354" x2="-2445.618" y2="-2071.876" gradientUnits="userSpaceOnUse"/><clipPath clipPathUnits="userSpaceOnUse" id="d"><path style="opacity:1;fill:#e01b24;fill-opacity:1;stroke:none;stroke-width:3.2398;stop-color:#000" d="M1382.818-2264.894h421.624v266.754h-421.624z"/></clipPath></defs><g clip-path="url(#d)" transform="matrix(2.20687 0 0 2.20687 -3103.461 4973.625)"><circle style="opacity:1;fill:#613583;fill-opacity:1;stroke:none;stroke-width:4.4964;stop-color:#000" cx="1588.081" cy="-2043.607" r="176.562"/><circle style="opacity:1;fill:#9141ac;fill-opacity:1;stroke:none;stroke-width:3.68639;stop-color:#000" cx="1588.081" cy="-2043.607" r="144.755"/><circle style="opacity:1;fill:#c061cb;fill-opacity:1;stroke:none;stroke-width:2.82435;stop-color:#000" cx="1588.081" cy="-2043.607" r="110.905"/><circle style="opacity:1;fill:#dc8add;fill-opacity:1;stroke:none;stroke-width:1.82762;stop-color:#000" cx="1588.081" cy="-2043.607" r="71.766"/></g><g transform="matrix(1.85197 0 0 1.85197 -2967.013 4267.785)"><path style="display:inline;fill:url(#e);fill-opacity:1;stroke:none;stroke-width:6.85855;stroke-linecap:round;paint-order:markers fill stroke;stop-color:#000" d="M1809.197-2017.617v9.477a9.456 9.456 0 0 0 9.477 9.477h199.012a9.456 9.456 0 0 0 9.477-9.477v-9.477h-208.489z"/><rect style="fill:url(#f);fill-opacity:1;stroke:none;stroke-width:1.1;stroke-linecap:round;stroke-linejoin:round;-inkscape-stroke:none;stop-color:#000" width="133.154" height="137.1" x="-2494.061" y="-2211.354" rx="15.683" ry="14.773" transform="matrix(-1 0 .26648 .96384 0 0)"/><path style="fill:#77767b;stroke:none;stroke-width:1.07993;stroke-linecap:round;stroke-linejoin:round;-inkscape-stroke:none;stop-color:#000" d="M1859.347-2131.392c8.688 0 16.223 6.35 16.893 14.24l8.804 103.663c.67 7.889-5.784 14.24-14.473 14.24h55.06c8.688 0 13.927-6.351 11.746-14.24l-28.662-103.664c-2.18-7.888-10.93-14.24-19.619-14.24z"/><path style="fill:#5e5c64;stroke:none;stroke-width:1.07993;stroke-linecap:round;stroke-linejoin:round;-inkscape-stroke:none;stop-color:#000" d="M1848.285-2131.392c8.688 0 16.223 6.35 16.893 14.24l8.804 103.663c.67 7.889-5.784 14.24-14.473 14.24h63.807c8.689 0 13.928-6.351 11.747-14.24l-28.662-103.664c-2.18-7.888-10.93-14.24-19.619-14.24z"/></g><g transform="matrix(1.85197 0 0 1.85197 -2551.073 4267.785)"><rect style="fill:#faddde;stroke:none;stroke-width:1.1;stroke-linecap:round;stroke-linejoin:round;-inkscape-stroke:none;stop-color:#000" width="133.154" height="137.1" x="919.092" y="-2211.354" rx="15.683" ry="14.773" transform="skewX(-15.455) scale(1 .96384)"/><path style="display:inline;fill:#3584e4;fill-opacity:1;stroke:none;stroke-width:6.85855;stroke-linecap:round;paint-order:markers fill stroke;stop-color:#000" d="M1616.986-2121.862c4.777 0 6.967 3.07 6.026 6.584l-26.944 100.554c-.941 3.514-4.78 6.586-9.555 6.586h-93.915c-4.775 0-6.966-3.072-6.025-6.586l26.943-100.554c.942-3.514 4.778-6.584 9.555-6.584z"/><path style="display:inline;fill:url(#g);fill-opacity:1;stroke:none;stroke-width:6.85855;stroke-linecap:round;paint-order:markers fill stroke;stop-color:#000" d="M1603.956-2017.617v9.477a9.456 9.456 0 0 1-9.477 9.477h-199.012a9.456 9.456 0 0 1-9.477-9.477v-9.477h208.489z"/><path style="display:inline;fill:#77767b;fill-opacity:1;stroke:none;stroke-width:6.85855;stroke-linecap:round;paint-order:markers fill stroke;stop-color:#000" d="m1610.213-2017.617-2.596 9.477c-1.387 5.064-7.888 9.477-13.138 9.477h-66.337c-5.25 0-9.477-4.807-9.477-9.477v-9.477H1594.479z"/><path style="fill:#77767b;stroke:none;stroke-width:1;stroke-linejoin:round;stroke-miterlimit:4;stroke-dasharray:none;stop-color:#000" d="M1426.934-2017.628h47.98v2.975a2.998 2.998 135 0 1-2.997 2.998h-42.007a2.977 2.977 45 0 1-2.977-2.977z"/><g style="display:inline;enable-background:new"><g style="stroke-width:.6875"><path style="fill:#000;fill-opacity:.185969;stroke:none;stroke-width:.6875px;stroke-linecap:butt;stroke-linejoin:miter;stroke-opacity:1" d="m80 198 8 24 5.217-4.47 3.392 4.07a2.5 2.5 0 0 0 3.522.32 2.5 2.5 0 0 0 .32-3.52l-3.437-4.125L102 210z" transform="matrix(1.62436 0 -.4919 1.62436 1512.704 -2408.455)"/><path style="display:inline;fill:#c0bfbc;fill-opacity:1;stroke:none;stroke-width:.6875px;stroke-linecap:butt;stroke-linejoin:miter;stroke-opacity:1;enable-background:new" d="m80 196 8 24 5.217-4.47 3.392 4.07a2.5 2.5 45 0 0 3.522.32 2.5 2.5 45 0 0 .32-3.52l-3.437-4.125L102 208z" transform="matrix(1.62436 0 -.4919 1.62436 1512.704 -2408.455)"/><path style="display:inline;fill:#fff;stroke:none;stroke-width:1px;stroke-linecap:butt;stroke-linejoin:miter;stroke-opacity:1;enable-background:new" d="M80.072 31.182 82 36.965v-4.733zM82.346 38l9.363 28.092 7.588-6.504 4.933 5.922a3.636 3.636 0 0 0 5.124.465 3.636 3.636 0 0 0 .466-5.12l-5-6L110.482 50H106v-4.676L103.572 44H94v-5.22L92.572 38H88zM112 48.598v.101l.072-.062z" transform="matrix(1.11675 0 -.33818 1.11675 1467.364 -2124.903)"/><path style="fill:#deddda;stroke:none;stroke-width:.6875px;stroke-linecap:butt;stroke-linejoin:miter;stroke-opacity:1" d="m88 40 8 24 5.217-4.47 3.392 4.07a2.5 2.5 0 0 0 3.522.32 2.5 2.5 0 0 0 .238-.233z" transform="matrix(1.62436 0 -.4919 1.62436 1422.972 -2155.055)"/><path style="font-variation-settings:normal;display:inline;fill:#fff;fill-opacity:1;stroke:none;stroke-width:3.4375;stroke-linecap:round;stroke-linejoin:miter;stroke-miterlimit:4;stroke-dasharray:none;stroke-dashoffset:0;stroke-opacity:1;enable-background:new;stop-color:#000" d="M93.7 204.812h4.125v4.125H93.7z" transform="matrix(1.62436 0 -.4919 1.62436 1512.704 -2408.455)"/><path style="display:inline;fill:url(#h);fill-opacity:1;stroke-width:3.4375;stroke-linecap:round;enable-background:new;stop-color:#000" d="M97.825 200.687h4.125v4.125h-4.125zm-8.25-4.125H93.7v4.125h-4.125z" transform="matrix(1.62436 0 -.4919 1.62436 1512.704 -2408.455)"/></g></g></g><g clip-path="url(#d)" transform="matrix(2.20687 0 0 2.20687 -4323.462 4973.625)"><circle style="opacity:1;fill:#2ec27e;fill-opacity:1;stroke:none;stroke-width:4.4964;stop-color:#000" cx="1588.081" cy="-2043.607" r="176.562"/><circle style="opacity:1;fill:#33d17a;fill-opacity:1;stroke:none;stroke-width:3.68639;stop-color:#000" cx="1588.081" cy="-2043.607" r="144.755"/><circle style="opacity:1;fill:#57e389;fill-opacity:1;stroke:none;stroke-width:2.82435;stop-color:#000" cx="1588.081" cy="-2043.607" r="110.905"/><circle style="opacity:1;fill:#8ff0a4;fill-opacity:1;stroke:none;stroke-width:1.82762;stop-color:#000" cx="1588.081" cy="-2043.607" r="71.766"/></g></svg>