<svg height="600" width="800" xmlns:xlink="http://www.w3.org/1999/xlink" xmlns="http://www.w3.org/2000/svg"><defs><linearGradient id="d"><stop style="stop-color:#1c71d8;stop-opacity:1" offset="0"/><stop style="stop-color:#113d73;stop-opacity:1" offset="1"/></linearGradient><linearGradient id="a"><stop offset="0" stop-color="#fff"/><stop offset=".519" stop-color="#fff"/><stop offset=".734" stop-color="#cfcfcf"/><stop offset="1" stop-color="#dcdcdc"/></linearGradient><linearGradient id="b"><stop offset="0" stop-color="#ed686f"/><stop offset=".865" stop-color="#a51d2d"/><stop offset="1" stop-color="#e01b24"/></linearGradient><linearGradient id="c"><stop offset="0" stop-color="#ed686f"/><stop offset=".911" stop-color="#a51d2d"/><stop offset="1" stop-color="#e01b24"/></linearGradient><linearGradient xlink:href="#d" id="e" x1="460" y1="550" x2="460" y2="250" gradientUnits="userSpaceOnUse"/><radialGradient r="33.5" fy="48.406" fx="79.091" cy="48.406" cx="79.091" gradientTransform="matrix(.00476 1.62228 -1.43419 .00422 141.702 -82.047)" gradientUnits="userSpaceOnUse" id="i" xlink:href="#a"/><radialGradient r="12" fy="54.102" fx="71.474" cy="54.102" cx="71.474" gradientTransform="matrix(4.50607 0 0 4.76661 -259.306 -59.706)" gradientUnits="userSpaceOnUse" id="j" xlink:href="#b"/><radialGradient r="14.583" fy="49.777" fx="40.152" cy="49.777" cx="40.152" gradientTransform="matrix(.87016 4.27869 -2.56693 .52204 148.394 -163.306)" gradientUnits="userSpaceOnUse" id="k" xlink:href="#c"/><radialGradient r="14.583" fy="49.777" fx="40.152" cy="49.777" cx="40.152" gradientTransform="matrix(.87016 4.27869 -2.56693 .52204 148.394 -163.306)" gradientUnits="userSpaceOnUse" id="l" xlink:href="#c"/><clipPath clipPathUnits="userSpaceOnUse" id="f"><rect style="fill:#9141ac;fill-opacity:1;stroke:none;stroke-width:30;stroke-linecap:round;stroke-linejoin:round;stroke-miterlimit:4;stroke-dasharray:none;stroke-opacity:.482318;stop-color:#000" width="443.742" height="423.922" x="2.836" y="361.125" rx="0" ry="0"/></clipPath><clipPath clipPathUnits="userSpaceOnUse" id="g"><circle style="display:inline;fill:#9141ac;fill-opacity:1;stroke:none;stroke-width:30;stroke-linecap:round;stroke-linejoin:round;stroke-miterlimit:4;stroke-dasharray:none;stroke-opacity:.482318;stop-color:#000" cx="60.445" cy="758.586" r="252.859"/></clipPath><clipPath id="h" clipPathUnits="userSpaceOnUse"><path d="M65 177c-18.502 0-33.5 14.998-33.5 33.5.008 7.371 4.131 15.807 11.388 23.526l12.617 13.171H75.02l12.137-13.245c6.636-7.059 11.33-16.117 11.344-23.452 0-18.502-14.998-33.5-33.5-33.5z" style="marker:none" fill="#fff" stroke-width="2"/></clipPath></defs><path style="fill:url(#e);fill-opacity:1;stroke-width:8.33238;-inkscape-stroke:none;stop-color:#000" d="M260 242.182a30.067 30.067 41.186 0 0 32 28h56a32 32 45 0 1 32 32 30.096 30.096 138.75 0 1-32 28.062H204.7a32 32 135 0 0-32 32 30.068 30.068 41.188 0 0 32 28.002h3.3a32 32 45 0 1 32 32 30.037 30.037 41.12 0 0 32 27.936h16a32 32 45 0 1 32 32 24.331 24.331 125.538 0 1-20 28v60h148a32 32 135 0 0 32-32 30.067 30.067 138.814 0 1 32-28h156a32 32 135 0 0 32-32 30.067 30.067 41.186 0 0-32-28h-16a32 32 45 0 1-32-32 30.037 30.037 138.88 0 1 32-27.936h31a32 32 135 0 0 32-32 30.068 30.068 41.188 0 0-32-28.002H582a32 32 45 0 1-32-32 30.096 30.096 138.75 0 1 32-28.062h181a32 32 135 0 0 32-32 30.067 30.067 41.186 0 0-32-28H292a32 32 135 0 0-32 32z"/><g clip-path="url(#f)" transform="matrix(1.07912 0 0 1.07912 26.94 -277.158)" style="display:inline"><circle style="fill:#99c1f1;fill-opacity:.581362;stroke:none;stroke-width:30;stroke-linecap:round;stroke-linejoin:round;stroke-miterlimit:4;stroke-dasharray:none;stroke-opacity:.482318;stop-color:#000" cx="60.445" cy="758.586" r="277.127"/><g clip-path="url(#g)"><circle style="fill:#1a5fb4;fill-opacity:1;stroke:none;stroke-width:30;stroke-linecap:round;stroke-linejoin:round;stroke-miterlimit:4;stroke-dasharray:none;stroke-opacity:.482318;stop-color:#000" cx="60.445" cy="758.586" r="252.859"/><path style="fill:#26a269;fill-opacity:1;stroke:none;stroke-width:30;stroke-linecap:round;stroke-linejoin:round;stroke-miterlimit:4;stroke-dasharray:none;stroke-opacity:.482318;stop-color:#000" d="M143.604 635.834v12.787a30 30 135 0 1-30 30h-3.381a30 30 135 0 0-30 30v21.38a30 30 45 0 0 30 30h49.771a30 30 45 0 1 30 30 22.292 22.292 17.9 0 0 30 9.69h74.567a30 30 135 0 0 30-30V635.834a30 30 45 0 0-30-30H173.604a30 30 135 0 0-30 30z"/><rect style="fill:#26a269;fill-opacity:1;stroke:none;stroke-width:30;stroke-linecap:round;stroke-linejoin:round;stroke-miterlimit:4;stroke-dasharray:none;stroke-opacity:.482318;stop-color:#000" width="48.962" height="84.074" x="52.351" y="577.554" rx="24.481" ry="24.481"/><rect style="fill:#26a269;fill-opacity:1;stroke:none;stroke-width:30;stroke-linecap:round;stroke-linejoin:round;stroke-miterlimit:4;stroke-dasharray:none;stroke-opacity:.482318;stop-color:#000" width="119.844" height="44.28" x="141.501" y="540.627" rx="22.14" ry="22.14"/></g><path style="fill:#fff;fill-opacity:1;stroke:none;stroke-width:30;stroke-linecap:round;stroke-linejoin:round;stroke-miterlimit:4;stroke-dasharray:none;stroke-opacity:.482318;stop-color:#000" d="M314.623 601.228a40.625 40.625 0 0 0-36.363 22.576 32.599 32.599 0 0 0-3.09-.148 32.599 32.599 0 0 0-32.6 32.6 32.599 32.599 0 0 0 .9 7.61h136.434a27.262 27.262 0 0 0-24.814-25.949 40.625 40.625 0 0 0-40.434-36.69 40.625 40.625 0 0 0-.033 0zM191.617 667.906a20.492 20.492 0 0 0-19.428 13.979 17.222 17.222 0 0 0-6.513-1.281 17.222 17.222 0 0 0-17.223 17.222 17.222 17.222 0 0 0 2.192 8.408h30.058a17.222 17.222 0 0 0 .201-.367 20.492 20.492 0 0 0 .623.367h20.176a20.492 20.492 0 0 0 10.406-17.836 20.492 20.492 0 0 0-20.492-20.492z"/></g><g transform="matrix(4.44087 0 0 4.17497 261.421 -728.97)" clip-path="url(#h)"><path transform="translate(-8 156)" d="M73 21c-18.502 0-33.5 14.998-33.5 33.5.008 7.371 3.5 14.422 6.94 20.379L58 98h30l11.605-23.21c3.395-5.88 6.88-12.955 6.895-20.29C106.5 35.998 91.502 21 73 21z" style="fill:url(#i);marker:none" fill="url(#f)"/><path d="M64 177s-18.332 12.132-18.332 30.989C45.668 222.56 61.842 254 61.842 254H67s1.333-31.44 1.333-46.011C68.333 189.132 64 177 64 177z" fill="url(#g)" style="fill:url(#j)"/><path transform="translate(-8 156)" d="M71.983 21.106c-8.207.147-16.328 3.285-22.5 8.695-6.174 5.409-10.35 13.047-11.574 21.163-1.24 8.225.567 16.874 4.995 23.915L61.902 98h6.432L55.002 81.27c-4.3-5.395-8.472-11.07-10.596-17.634-2.123-6.564-2.166-13.8.003-20.348A32.824 32.824 0 0 1 54.925 28.13a32.824 32.824 0 0 1 17.058-7.025z" fill="url(#h)" style="fill:url(#k)"/><path transform="matrix(-1 0 0 1 137.16 155.823)" d="M73.003 21.303c-7.709-1.547-15.97-.154-22.746 3.835-6.776 3.989-12.002 10.537-14.39 18.029a32.484 32.484 0 0 0-.757 16.805 32.484 32.484 0 0 0 7.794 14.907L54.11 98h13.383L54.16 74.356c-2.868-5.087-5.557-10.406-6.427-16.181-.87-5.775.036-11.771 2.374-17.123 4.173-9.55 12.836-17.022 22.895-19.748z" fill="url(#i)" style="fill:url(#l)"/></g><path style="marker:none" d="M271.06 256.221v19.397a9.702 9.702 0 0 0 9.725 9.726h26.326c5.388 0 8.594-4.457 9.725-9.726v-19.397z" fill="#e5a50a" transform="matrix(1.42277 0 0 1.42277 131.858 -17.665)"/><path style="marker:none" d="M271.06 252.06v19.397a9.702 9.702 0 0 0 9.725 9.724h26.326c5.388 0 8.594-4.455 9.725-9.724V252.06z" fill="#e5a50a" transform="matrix(1.42277 0 0 1.42277 131.858 -17.665)"/><path style="marker:none" d="M300.19 252.06v29.121h6.92c5.389 0 8.595-4.455 9.726-9.724V252.06z" fill="#f3af0b" transform="matrix(1.42277 0 0 1.42277 131.858 -17.665)"/></svg>