<svg height="600" width="800" xmlns:xlink="http://www.w3.org/1999/xlink" xmlns="http://www.w3.org/2000/svg"><defs><linearGradient id="c"><stop style="stop-color:#986a44;stop-opacity:1" offset="0"/><stop style="stop-color:#33d17a;stop-opacity:0" offset="1"/></linearGradient><linearGradient xlink:href="#a" id="g" x1="1480" y1="-2143.216" x2="1719.727" y2="-2143.216" gradientUnits="userSpaceOnUse" gradientTransform="translate(0 -64.796)"/><linearGradient id="a"><stop style="stop-color:#9141ac;stop-opacity:1" offset="0"/><stop style="stop-color:#33d17a;stop-opacity:1" offset=".228"/><stop style="stop-color:#f5c211;stop-opacity:1" offset=".511"/><stop style="stop-color:#e66100;stop-opacity:1" offset=".789"/><stop style="stop-color:#26a269;stop-opacity:1" offset="1"/></linearGradient><linearGradient xlink:href="#b" id="i" x1="203.261" y1="784" x2="203.261" y2="800" gradientUnits="userSpaceOnUse" gradientTransform="matrix(-1.1846 0 0 1.1846 1858.27 -2946.342)"/><linearGradient id="b"><stop style="stop-color:#9a9996;stop-opacity:1" offset="0"/><stop style="stop-color:#adaba8;stop-opacity:1" offset=".7"/><stop style="stop-color:#60605c;stop-opacity:1" offset="1"/></linearGradient><linearGradient xlink:href="#c" id="h" gradientUnits="userSpaceOnUse" gradientTransform="translate(0 -64.796)" x1="1485.487" y1="-2061.475" x2="1485.487" y2="-2142.47"/><linearGradient xlink:href="#d" id="j" x1="89.575" y1="203.223" x2="105.694" y2="202.635" gradientUnits="userSpaceOnUse"/><linearGradient id="d"><stop style="stop-color:#787878;stop-opacity:1" offset="0"/><stop style="stop-color:#787878;stop-opacity:0" offset="1"/></linearGradient><clipPath clipPathUnits="userSpaceOnUse" id="e"><rect style="fill:#9141ac;fill-opacity:1;stroke:none;stroke-width:30;stroke-linecap:round;stroke-linejoin:round;stroke-miterlimit:4;stroke-dasharray:none;stroke-opacity:.482318;stop-color:#000" width="443.742" height="423.922" x="2.836" y="361.125" rx="0" ry="0"/></clipPath><clipPath clipPathUnits="userSpaceOnUse" id="f"><circle style="display:inline;fill:#9141ac;fill-opacity:1;stroke:none;stroke-width:30;stroke-linecap:round;stroke-linejoin:round;stroke-miterlimit:4;stroke-dasharray:none;stroke-opacity:.482318;stop-color:#000" cx="60.445" cy="758.586" r="252.859"/></clipPath></defs><g transform="matrix(1.85197 0 0 1.85197 -2541.073 4267.785)"><g clip-path="url(#e)" transform="matrix(.58269 0 0 .58269 1386.942 -2456.06)" style="display:inline"><circle style="fill:#99c1f1;fill-opacity:.581362;stroke:none;stroke-width:30;stroke-linecap:round;stroke-linejoin:round;stroke-miterlimit:4;stroke-dasharray:none;stroke-opacity:.482318;stop-color:#000" cx="60.445" cy="758.586" r="277.127"/><g clip-path="url(#f)"><circle style="fill:#1a5fb4;fill-opacity:1;stroke:none;stroke-width:30;stroke-linecap:round;stroke-linejoin:round;stroke-miterlimit:4;stroke-dasharray:none;stroke-opacity:.482318;stop-color:#000" cx="60.445" cy="758.586" r="252.859"/><path style="fill:#26a269;fill-opacity:1;stroke:none;stroke-width:30;stroke-linecap:round;stroke-linejoin:round;stroke-miterlimit:4;stroke-dasharray:none;stroke-opacity:.482318;stop-color:#000" d="M143.604 635.834v12.787a30 30 135 0 1-30 30h-3.381a30 30 135 0 0-30 30v21.38a30 30 45 0 0 30 30h49.771a30 30 45 0 1 30 30 22.292 22.292 17.9 0 0 30 9.69h74.567a30 30 135 0 0 30-30V635.834a30 30 45 0 0-30-30H173.604a30 30 135 0 0-30 30z"/><rect style="fill:#26a269;fill-opacity:1;stroke:none;stroke-width:30;stroke-linecap:round;stroke-linejoin:round;stroke-miterlimit:4;stroke-dasharray:none;stroke-opacity:.482318;stop-color:#000" width="48.962" height="84.074" x="52.351" y="577.554" rx="24.481" ry="24.481"/><rect style="fill:#26a269;fill-opacity:1;stroke:none;stroke-width:30;stroke-linecap:round;stroke-linejoin:round;stroke-miterlimit:4;stroke-dasharray:none;stroke-opacity:.482318;stop-color:#000" width="119.844" height="44.28" x="141.501" y="540.627" rx="22.14" ry="22.14"/></g><path style="fill:#fff;fill-opacity:1;stroke:none;stroke-width:30;stroke-linecap:round;stroke-linejoin:round;stroke-miterlimit:4;stroke-dasharray:none;stroke-opacity:.482318;stop-color:#000" d="M314.623 601.228a40.625 40.625 0 0 0-36.363 22.576 32.599 32.599 0 0 0-3.09-.148 32.599 32.599 0 0 0-32.6 32.6 32.599 32.599 0 0 0 .9 7.61h136.434a27.262 27.262 0 0 0-24.814-25.949 40.625 40.625 0 0 0-40.434-36.69 40.625 40.625 0 0 0-.033 0zM191.617 667.906a20.492 20.492 0 0 0-19.428 13.979 17.222 17.222 0 0 0-6.513-1.281 17.222 17.222 0 0 0-17.223 17.222 17.222 17.222 0 0 0 2.192 8.408h30.058a17.222 17.222 0 0 0 .201-.367 20.492 20.492 0 0 0 .623.367h20.176a20.492 20.492 0 0 0 10.406-17.836 20.492 20.492 0 0 0-20.492-20.492z"/></g><path style="fill:none;fill-opacity:1;stroke:url(#g);stroke-width:15;stroke-linecap:butt;stroke-linejoin:miter;stroke-miterlimit:4;stroke-dasharray:none;stroke-opacity:1" d="M1482.469-2126.271v-112.017a22.105 22.105 135 0 1 22.105-22.105h185.637a22.105 22.105 45 0 1 22.105 22.105v106.617"/><path style="fill:none;fill-opacity:1;stroke:url(#h);stroke-width:15;stroke-linecap:butt;stroke-linejoin:miter;stroke-miterlimit:4;stroke-dasharray:none;stroke-opacity:1" d="M1482.469-2126.271v-112.017a22.105 22.105 135 0 1 22.105-22.105h185.637a22.105 22.105 45 0 1 22.105 22.105v106.617"/><rect style="fill:#faddde;stroke:none;stroke-width:1.1;stroke-linecap:round;stroke-linejoin:round;-inkscape-stroke:none;stop-color:#000" width="133.154" height="137.1" x="1069.161" y="-2211.354" rx="15.683" ry="14.773" transform="skewX(-15.455) scale(1 .96384)"/><path style="display:inline;fill:#3584e4;fill-opacity:1;stroke:none;stroke-width:6.85855;stroke-linecap:round;paint-order:markers fill stroke;stop-color:#000" d="M1767.055-2121.862c4.777 0 6.968 3.07 6.026 6.584l-26.943 100.554c-.942 3.514-4.78 6.586-9.555 6.586h-93.915c-4.775 0-6.967-3.072-6.025-6.586l26.943-100.554c.942-3.514 4.777-6.584 9.554-6.584z"/><path style="display:inline;fill:url(#i);fill-opacity:1;stroke:none;stroke-width:6.85855;stroke-linecap:round;paint-order:markers fill stroke;stop-color:#000" d="M1754.026-2017.617v9.477a9.456 9.456 0 0 1-9.477 9.477h-199.013a9.456 9.456 0 0 1-9.476-9.477v-9.477h208.489z"/><path style="display:inline;fill:#77767b;fill-opacity:1;stroke:none;stroke-width:6.85855;stroke-linecap:round;paint-order:markers fill stroke;stop-color:#000" d="m1760.283-2017.617-2.596 9.477c-1.387 5.064-7.888 9.477-13.138 9.477h-66.338c-5.25 0-9.476-4.807-9.476-9.477v-9.477h75.814z"/><path style="fill:#77767b;stroke:none;stroke-width:1;stroke-linejoin:round;stroke-miterlimit:4;stroke-dasharray:none;stop-color:#000" d="M1577.003-2017.628h47.982v2.975a2.998 2.998 135 0 1-2.999 2.998h-42.006a2.977 2.977 45 0 1-2.977-2.977z"/><g style="display:inline;enable-background:new"><g style="stroke-width:.6875"><path style="fill:#000;fill-opacity:.185969;stroke:none;stroke-width:.6875px;stroke-linecap:butt;stroke-linejoin:miter;stroke-opacity:1" d="m80 198 8 24 5.217-4.47 3.392 4.07a2.5 2.5 0 0 0 3.522.32 2.5 2.5 0 0 0 .32-3.52l-3.437-4.125L102 210z" transform="matrix(1.62436 0 -.4919 1.62436 1662.773 -2408.455)"/><path style="display:inline;fill:#c0bfbc;fill-opacity:1;stroke:none;stroke-width:.6875px;stroke-linecap:butt;stroke-linejoin:miter;stroke-opacity:1;enable-background:new" d="m80 196 8 24 5.217-4.47 3.392 4.07a2.5 2.5 45 0 0 3.522.32 2.5 2.5 45 0 0 .32-3.52l-3.437-4.125L102 208z" transform="matrix(1.62436 0 -.4919 1.62436 1662.773 -2408.455)"/><path style="display:inline;fill:#fff;stroke:none;stroke-width:1px;stroke-linecap:butt;stroke-linejoin:miter;stroke-opacity:1;enable-background:new" d="M80.072 31.182 82 36.965v-4.733zM82.346 38l9.363 28.092 7.588-6.504 4.933 5.922a3.636 3.636 0 0 0 5.124.465 3.636 3.636 0 0 0 .466-5.12l-5-6L110.482 50H106v-4.676L103.572 44H94v-5.22L92.572 38H88zM112 48.598v.101l.072-.062z" transform="matrix(1.11675 0 -.33818 1.11675 1617.434 -2124.903)"/><path style="fill:#deddda;stroke:none;stroke-width:.6875px;stroke-linecap:butt;stroke-linejoin:miter;stroke-opacity:1" d="m88 40 8 24 5.217-4.47 3.392 4.07a2.5 2.5 0 0 0 3.522.32 2.5 2.5 0 0 0 .238-.233z" transform="matrix(1.62436 0 -.4919 1.62436 1573.042 -2155.055)"/><path style="font-variation-settings:normal;display:inline;fill:#fff;fill-opacity:1;stroke:none;stroke-width:3.4375;stroke-linecap:round;stroke-linejoin:miter;stroke-miterlimit:4;stroke-dasharray:none;stroke-dashoffset:0;stroke-opacity:1;enable-background:new;stop-color:#000" d="M93.7 204.812h4.125v4.125H93.7z" transform="matrix(1.62436 0 -.4919 1.62436 1662.773 -2408.455)"/><path style="display:inline;fill:url(#j);fill-opacity:1;stroke-width:3.4375;stroke-linecap:round;enable-background:new;stop-color:#000" d="M97.825 200.687h4.125v4.125h-4.125zm-8.25-4.125H93.7v4.125h-4.125z" transform="matrix(1.62436 0 -.4919 1.62436 1662.773 -2408.455)"/></g></g><circle style="fill:#fff;fill-opacity:1;stroke:none;stroke-width:15;stroke-linejoin:round;stroke-miterlimit:4;stroke-dasharray:none;stop-color:#000" cx="1482.458" cy="-2126.115" r="7.523"/><circle style="fill:#fff;fill-opacity:1;stroke:none;stroke-width:15;stroke-linejoin:round;stroke-miterlimit:4;stroke-dasharray:none;stop-color:#000" cx="1482.458" cy="-2225.557" r="7.523"/><circle style="fill:#fff;fill-opacity:1;stroke:none;stroke-width:15;stroke-linejoin:round;stroke-miterlimit:4;stroke-dasharray:none;stop-color:#000" cx="1497.523" cy="-2260.512" r="7.523"/><circle style="fill:#fff;fill-opacity:1;stroke:none;stroke-width:15;stroke-linejoin:round;stroke-miterlimit:4;stroke-dasharray:none;stop-color:#000" cx="1537.477" cy="-2260.512" r="7.523"/><circle style="fill:#fff;fill-opacity:1;stroke:none;stroke-width:15;stroke-linejoin:round;stroke-miterlimit:4;stroke-dasharray:none;stop-color:#000" cx="1577.523" cy="-2260.512" r="7.523"/><circle style="fill:#fff;fill-opacity:1;stroke:none;stroke-width:15;stroke-linejoin:round;stroke-miterlimit:4;stroke-dasharray:none;stop-color:#000" cx="1617.523" cy="-2260.512" r="7.523"/><circle style="fill:#fff;fill-opacity:1;stroke:none;stroke-width:15;stroke-linejoin:round;stroke-miterlimit:4;stroke-dasharray:none;stop-color:#000" cx="1657.477" cy="-2260.512" r="7.523"/><circle style="fill:#fff;fill-opacity:1;stroke:none;stroke-width:15;stroke-linejoin:round;stroke-miterlimit:4;stroke-dasharray:none;stop-color:#000" cx="1697.523" cy="-2260.512" r="7.523"/><circle style="fill:#fff;fill-opacity:1;stroke:none;stroke-width:15;stroke-linejoin:round;stroke-miterlimit:4;stroke-dasharray:none;stop-color:#000" cx="1712.523" cy="-2230.557" r="7.523"/><circle style="fill:#fff;fill-opacity:1;stroke:none;stroke-width:15;stroke-linejoin:round;stroke-miterlimit:4;stroke-dasharray:none;stop-color:#000" cx="1712.523" cy="-2190.512" r="7.523"/><circle style="fill:#fff;fill-opacity:1;stroke:none;stroke-width:15;stroke-linejoin:round;stroke-miterlimit:4;stroke-dasharray:none;stop-color:#000" cx="1482.458" cy="-2193.159" r="7.523"/><circle style="fill:#fff;fill-opacity:1;stroke:none;stroke-width:15;stroke-linejoin:round;stroke-miterlimit:4;stroke-dasharray:none;stop-color:#000" cx="1482.458" cy="-2160.762" r="7.523"/><circle style="fill:#fff;fill-opacity:1;stroke:none;stroke-width:15;stroke-linejoin:round;stroke-miterlimit:4;stroke-dasharray:none;stop-color:#000" cx="1712.523" cy="-2147.314" r="7.523"/></g></svg>