<svg height="128" width="128" xmlns:xlink="http://www.w3.org/1999/xlink" xmlns="http://www.w3.org/2000/svg"><defs><linearGradient id="a"><stop offset="0" stop-color="#c061cb"/><stop offset="1" stop-color="#c01c28"/></linearGradient><linearGradient xlink:href="#a" id="K" x1="27.362" y1="102.079" x2="107.585" y2="80.583" gradientUnits="userSpaceOnUse"/></defs><clipPath id="t"><path d="M4 4h120v120H4zm0 0"/></clipPath><clipPath id="u"><path d="M123.996 64c0 33.133-26.863 59.996-59.996 59.996S4.004 97.133 4.004 64 30.867 4.004 64 4.004 123.996 30.867 123.996 64zm0 0"/></clipPath><clipPath id="v"><path d="M4 4h120v116H4zm0 0"/></clipPath><clipPath id="w"><path d="M123.996 64c0 33.133-26.863 59.996-59.996 59.996S4.004 97.133 4.004 64 30.867 4.004 64 4.004 123.996 30.867 123.996 64zm0 0"/></clipPath><clipPath id="x"><path d="M68 27h56v71H68zm0 0"/></clipPath><clipPath id="y"><path d="M123.996 64c0 33.133-26.863 59.996-59.996 59.996S4.004 97.133 4.004 64 30.867 4.004 64 4.004 123.996 30.867 123.996 64zm0 0"/></clipPath><clipPath id="z"><path d="M62 21h12v19H62zm0 0"/></clipPath><clipPath id="A"><path d="M123.996 64c0 33.133-26.863 59.996-59.996 59.996S4.004 97.133 4.004 64 30.867 4.004 64 4.004 123.996 30.867 123.996 64zm0 0"/></clipPath><clipPath id="B"><path d="M83 12h29v11H83zm0 0"/></clipPath><clipPath id="C"><path d="M123.996 64c0 33.133-26.863 59.996-59.996 59.996S4.004 97.133 4.004 64 30.867 4.004 64 4.004 123.996 30.867 123.996 64zm0 0"/></clipPath><clipPath id="D"><path d="M4 7h45v112H4zm0 0"/></clipPath><clipPath id="E"><path d="M123.996 64c0 33.133-26.863 59.996-59.996 59.996S4.004 97.133 4.004 64 30.867 4.004 64 4.004 123.996 30.867 123.996 64zm0 0"/></clipPath><linearGradient id="q" gradientTransform="matrix(.19265 0 0 .25 38.753 11)" gradientUnits="userSpaceOnUse" x1="48" x2="464" y1="44" y2="44"><stop offset="0" stop-color="#3d3846"/><stop offset=".05" stop-color="#77767b"/><stop offset=".1" stop-color="#3d3846"/><stop offset=".9" stop-color="#3d3846"/><stop offset=".95" stop-color="#77767b"/><stop offset="1" stop-color="#3d3846"/></linearGradient><linearGradient id="r" gradientUnits="userSpaceOnUse" x1="-136.213" x2="300.91" y1="979.674" y2="862.547"><stop offset="0" stop-color="#9141ac"/><stop offset=".228" stop-color="#33d17a"/><stop offset=".511" stop-color="#f5c211"/><stop offset=".789" stop-color="#e66100"/><stop offset="1" stop-color="#26a269"/></linearGradient><linearGradient id="s" gradientUnits="userSpaceOnUse" x1="86" x2="109.446" y1="25.688" y2="24.833"><stop offset="0" stop-color="#787878"/><stop offset="1" stop-color="#787878" stop-opacity="0"/></linearGradient><clipPath id="e"><path d="M4 4h120v120H4zm0 0"/></clipPath><clipPath id="f"><path d="M123.996 64c0 33.133-26.863 59.996-59.996 59.996S4.004 97.133 4.004 64 30.867 4.004 64 4.004 123.996 30.867 123.996 64zm0 0"/></clipPath><clipPath id="g"><path d="M4 4h120v116H4zm0 0"/></clipPath><clipPath id="h"><path d="M123.996 64c0 33.133-26.863 59.996-59.996 59.996S4.004 97.133 4.004 64 30.867 4.004 64 4.004 123.996 30.867 123.996 64zm0 0"/></clipPath><clipPath id="i"><path d="M68 27h56v71H68zm0 0"/></clipPath><clipPath id="j"><path d="M123.996 64c0 33.133-26.863 59.996-59.996 59.996S4.004 97.133 4.004 64 30.867 4.004 64 4.004 123.996 30.867 123.996 64zm0 0"/></clipPath><clipPath id="k"><path d="M62 21h12v19H62zm0 0"/></clipPath><clipPath id="l"><path d="M123.996 64c0 33.133-26.863 59.996-59.996 59.996S4.004 97.133 4.004 64 30.867 4.004 64 4.004 123.996 30.867 123.996 64zm0 0"/></clipPath><clipPath id="m"><path d="M83 12h29v11H83zm0 0"/></clipPath><clipPath id="n"><path d="M123.996 64c0 33.133-26.863 59.996-59.996 59.996S4.004 97.133 4.004 64 30.867 4.004 64 4.004 123.996 30.867 123.996 64zm0 0"/></clipPath><clipPath id="o"><path d="M4 7h45v112H4zm0 0"/></clipPath><clipPath id="p"><path d="M123.996 64c0 33.133-26.863 59.996-59.996 59.996S4.004 97.133 4.004 64 30.867 4.004 64 4.004 123.996 30.867 123.996 64zm0 0"/></clipPath><clipPath id="d"><path d="M0 0h128v128H0z"/></clipPath><clipPath id="b"><path d="M0 0h128v128H0z"/></clipPath><filter id="c" height="1" width="1" x="0" y="0"><feColorMatrix in="SourceGraphic" values="0 0 0 0 1 0 0 0 0 1 0 0 0 0 1 0 0 0 1 0"/></filter><mask id="G"><g clip-path="url(#b)" filter="url(#c)"><g clip-path="url(#d)"><g clip-path="url(#e)"><g clip-path="url(#f)"><path d="M123.996 64c0 33.133-26.863 59.996-59.996 59.996S4.004 97.133 4.004 64 30.867 4.004 64 4.004 123.996 30.867 123.996 64zm0 0" fill="#1a5fb4"/></g></g><g clip-path="url(#g)"><g clip-path="url(#h)"><path d="M123.996 59.512c0 33.133-26.863 59.992-59.996 59.992S4.004 92.644 4.004 59.512C4.004 26.375 30.867-.484 64-.484s59.996 26.859 59.996 59.996zm0 0" fill="#1c71d8"/></g></g><g clip-path="url(#i)"><g clip-path="url(#j)"><path d="M83.73 34.875v3.035a7.119 7.119 0 01-7.117 7.117 8.584 8.584 0 00-7.922 9.2v12.425A7.31 7.31 0 0076 73.961a5.888 5.888 0 013.988 7.309v8.718a8.005 8.005 0 1016.012 0V76.484a12.2 12.2 0 013.586-8.64 12.22 12.22 0 018.648-3.567l11.313.028a7.112 7.112 0 005.035-2.075 7.11 7.11 0 002.082-5.027V34.875a7.116 7.116 0 00-7.117-7.117h-28.7a7.119 7.119 0 00-7.117 7.117zm0 0" fill="#26a269"/></g></g><g clip-path="url(#k)"><g clip-path="url(#l)"><path d="M67.887 21.047a5.807 5.807 0 015.808 5.808v6.38a5.81 5.81 0 01-11.617 0v-6.38a5.81 5.81 0 015.809-5.808zm0 0" fill="#26a269"/></g></g><g clip-path="url(#m)"><g clip-path="url(#n)"><path d="M88.484 12.285h17.93a5.253 5.253 0 015.254 5.254 5.253 5.253 0 01-5.254 5.254h-17.93a5.256 5.256 0 01-5.254-5.254 5.256 5.256 0 015.254-5.254zm0 0" fill="#26a269"/></g></g><g clip-path="url(#o)"><g clip-path="url(#p)"><path d="M28.262 16.25h-8v8c-2.207-4.418-7.582-6.207-12-4a8.947 8.947 0 00-4 12v14c0 4.422-3.582 8-8 8s-8 3.582-8 8v16c0 4.422 3.582 8 8 8s8 3.582 8 8v16c0 4.422 3.582 8 8 8h4c4.418 0 8-3.578 8-8v-30c0-4.418-3.582-8-8-8s-8-3.578-8-8c0-4.418 3.582-8 8-8s8-3.578 8-8c0-4.418 3.582-8 8-8s8-3.578 8-8V20.367a4.118 4.118 0 014.117-4.117 4.139 4.139 0 003.883-4.379 6.211 6.211 0 00-8-3.621h-4a8 8 0 00-8 8zm0 0" fill="#26a269"/></g></g><path d="M56 29.871h64.145a8 8 0 018 8V66a8 8 0 01-8 8H56a8 8 0 01-8-8V37.871a8 8 0 018-8zm0 0" fill="url(#q)"/><path d="M68.145 14.18h52a8 8 0 018 8V58a8 8 0 01-8 8h-52a8 8 0 01-8-8V22.18a8 8 0 018-8zm0 0" fill="#3d3846"/><path d="M56 0h64.145a8 8 0 018 8v50a8 8 0 01-8 8H56a8 8 0 01-8-8V8a8 8 0 018-8zm0 0" fill="#241f31"/><path d="M246.995 786.252v99.836c0 32.58-26.424 59.005-59.006 59.005H43.291c-37.24 0-67.435-30.194-67.435-67.435-6.816-30.425-37.01-49.555-67.435-42.74h-49.177" fill="none" stroke="url(#r)" stroke-width="33.717" transform="translate(49.397 -116.239) scale(.23727)"/><path d="M72 108c0 2.21-1.79 4-4 4s-4-1.79-4-4 1.79-4 4-4 4 1.79 4 4zm16 0c0 2.21-1.79 4-4 4s-4-1.79-4-4 1.79-4 4-4 4 1.79 4 4zm16-2c0 2.21-1.79 4-4 4s-4-1.79-4-4 1.79-4 4-4 4 1.79 4 4zm8-12c0 2.21-1.79 4-4 4s-4-1.79-4-4 1.79-4 4-4 4 1.79 4 4zm0-14c0 2.21-1.79 4-4 4s-4-1.79-4-4 1.79-4 4-4 4 1.79 4 4zm-56 26c0 2.21-1.79 4-4 4s-4-1.79-4-4 1.79-4 4-4 4 1.79 4 4zm-8-12c0 2.21-1.79 4-4 4s-4-1.79-4-4 1.79-4 4-4 4 1.79 4 4zm-8-12c0 2.21-1.79 4-4 4s-4-1.79-4-4 1.79-4 4-4 4 1.79 4 4zm-12.016 0c0 4.41-3.574 7.984-7.984 7.984S12.016 86.41 12.016 82 15.59 74.012 20 74.012 27.984 77.59 27.984 82zm0 0" fill="#fff"/><path d="M72.074 18.09L83.707 53l7.59-6.504 4.933 5.922a3.637 3.637 0 005.59-4.652l-5-6 7.254-6.22zm0 0"/><path d="M72.074 15.184L83.707 50.09l7.59-6.5 4.933 5.918a3.641 3.641 0 005.125.469 3.64 3.64 0 00.465-5.122l-5-6 7.254-6.218zm0 0" fill="#787878"/><path d="M72.074 15.18L74 20.965V16.23zM74.348 22l9.363 28.094 7.586-6.504 4.933 5.922a3.64 3.64 0 005.125.465 3.64 3.64 0 00.465-5.122l-5-6L102.484 34H98v-4.676L95.574 28H86v-5.223L84.574 22zM104 32.598v.101l.074-.062zm0 0" fill="#fff"/><path d="M72.074 15.184L83.707 50.09l7.59-6.5 4.933 5.918a3.641 3.641 0 005.125.469c.122-.106.239-.22.344-.34zm0 0" fill="#deddda"/><path d="M92 28h6v6h-6zm0 0" fill="#fff"/><path d="M98 22h6v6h-6zm-12-6h6v6h-6zm0 0" fill="url(#s)"/></g></g></mask><mask id="I"><g filter="url(#c)"><path fill-opacity=".8" d="M0 0h128v128H0z"/></g></mask><linearGradient id="J" gradientTransform="matrix(0 .37 -.98462 0 295.385 -30.36)" gradientUnits="userSpaceOnUse" x1="300" x2="428" y1="235" y2="235"><stop offset="0" stop-color="#f9f06b"/><stop offset="1" stop-color="#f5c211"/></linearGradient><clipPath id="H"><path d="M0 0h128v128H0z"/></clipPath><clipPath id="F"><path d="M0 0h128v128H0z"/></clipPath><g clip-path="url(#t)"><g clip-path="url(#u)"><path d="M123.996 64c0 33.133-26.863 59.996-59.996 59.996S4.004 97.133 4.004 64 30.867 4.004 64 4.004 123.996 30.867 123.996 64zm0 0" fill="#1a5fb4"/></g></g><g clip-path="url(#v)"><g clip-path="url(#w)"><path d="M123.996 59.512c0 33.133-26.863 59.992-59.996 59.992S4.004 92.644 4.004 59.512C4.004 26.375 30.867-.484 64-.484s59.996 26.859 59.996 59.996zm0 0" fill="#1c71d8"/></g></g><g clip-path="url(#x)"><g clip-path="url(#y)"><path d="M83.73 34.875v3.035a7.119 7.119 0 01-7.117 7.117 8.584 8.584 0 00-7.922 9.2v12.425A7.31 7.31 0 0076 73.961a5.888 5.888 0 013.988 7.309v8.718a8.005 8.005 0 1016.012 0V76.484a12.2 12.2 0 013.586-8.64 12.22 12.22 0 018.648-3.567l11.313.028a7.112 7.112 0 005.035-2.075 7.11 7.11 0 002.082-5.027V34.875a7.116 7.116 0 00-7.117-7.117h-28.7a7.119 7.119 0 00-7.117 7.117zm0 0" fill="#26a269"/></g></g><g clip-path="url(#z)"><g clip-path="url(#A)"><path d="M67.887 21.047a5.807 5.807 0 015.808 5.808v6.38a5.81 5.81 0 01-11.617 0v-6.38a5.81 5.81 0 015.809-5.808zm0 0" fill="#26a269"/></g></g><g clip-path="url(#B)"><g clip-path="url(#C)"><path d="M88.484 12.285h17.93a5.253 5.253 0 015.254 5.254 5.253 5.253 0 01-5.254 5.254h-17.93a5.256 5.256 0 01-5.254-5.254 5.256 5.256 0 015.254-5.254zm0 0" fill="#26a269"/></g></g><g clip-path="url(#D)"><g clip-path="url(#E)"><path d="M28.262 16.25h-8v8c-2.207-4.418-7.582-6.207-12-4a8.947 8.947 0 00-4 12v14c0 4.422-3.582 8-8 8s-8 3.582-8 8v16c0 4.422 3.582 8 8 8s8 3.582 8 8v16c0 4.422 3.582 8 8 8h4c4.418 0 8-3.578 8-8v-30c0-4.418-3.582-8-8-8s-8-3.578-8-8c0-4.418 3.582-8 8-8s8-3.578 8-8c0-4.418 3.582-8 8-8s8-3.578 8-8V20.367a4.118 4.118 0 014.117-4.117 4.139 4.139 0 003.883-4.379 6.211 6.211 0 00-8-3.621h-4a8 8 0 00-8 8zm0 0" fill="#26a269"/></g></g><path d="M56 29.871h64.145a8 8 0 018 8V66a8 8 0 01-8 8H56a8 8 0 01-8-8V37.871a8 8 0 018-8zm0 0" fill="url(#q)"/><path d="M68.145 14.18h52a8 8 0 018 8V58a8 8 0 01-8 8h-52a8 8 0 01-8-8V22.18a8 8 0 018-8zm0 0" fill="#3d3846"/><path d="M56 0h64.145a8 8 0 018 8v50a8 8 0 01-8 8H56a8 8 0 01-8-8V8a8 8 0 018-8zm0 0" fill="#241f31"/><g clip-path="url(#F)" mask="url(#G)"><g clip-path="url(#H)" mask="url(#I)"><path d="M128 80.64V128H0V80.64zm0 0" fill="url(#J)"/><path d="M13.309 80.64L60.664 128H81.88L34.52 80.64zm42.421 0L103.094 128h21.215L76.945 80.64zm42.43 0L128 110.48V89.27l-8.629-8.63zM0 88.548v21.215L18.238 128h21.215zm0 0"/></g></g><path d="M108 70.312V94c0 7.73-6.27 14-14 14H59.668c-8.836 0-16-7.164-16-16-1.617-7.219-8.781-11.758-16-10.14H16" fill="none" stroke="url(#K)" stroke-width="8"/><path d="M72 108c0 2.21-1.79 4-4 4s-4-1.79-4-4 1.79-4 4-4 4 1.79 4 4zm16 0c0 2.21-1.79 4-4 4s-4-1.79-4-4 1.79-4 4-4 4 1.79 4 4zm16-2c0 2.21-1.79 4-4 4s-4-1.79-4-4 1.79-4 4-4 4 1.79 4 4zm8-12c0 2.21-1.79 4-4 4s-4-1.79-4-4 1.79-4 4-4 4 1.79 4 4zm0-14c0 2.21-1.79 4-4 4s-4-1.79-4-4 1.79-4 4-4 4 1.79 4 4zm-56 26c0 2.21-1.79 4-4 4s-4-1.79-4-4 1.79-4 4-4 4 1.79 4 4zm-8-12c0 2.21-1.79 4-4 4s-4-1.79-4-4 1.79-4 4-4 4 1.79 4 4zm-8-12c0 2.21-1.79 4-4 4s-4-1.79-4-4 1.79-4 4-4 4 1.79 4 4zm-12.016 0c0 4.41-3.574 7.984-7.984 7.984S12.016 86.41 12.016 82 15.59 74.012 20 74.012 27.984 77.59 27.984 82zm0 0" fill="#fff"/><path d="M72.074 18.09L83.707 53l7.59-6.504 4.933 5.922a3.637 3.637 0 005.59-4.652l-5-6 7.254-6.22zm0 0"/><path d="M72.074 15.184L83.707 50.09l7.59-6.5 4.933 5.918a3.641 3.641 0 005.125.469 3.64 3.64 0 00.465-5.122l-5-6 7.254-6.218zm0 0" fill="#787878"/><path d="M72.074 15.18L74 20.965V16.23zM74.348 22l9.363 28.094 7.586-6.504 4.933 5.922a3.64 3.64 0 005.125.465 3.64 3.64 0 00.465-5.122l-5-6L102.484 34H98v-4.676L95.574 28H86v-5.223L84.574 22zM104 32.598v.101l.074-.062zm0 0" fill="#fff"/><path d="M72.074 15.184L83.707 50.09l7.59-6.5 4.933 5.918a3.641 3.641 0 005.125.469c.122-.106.239-.22.344-.34zm0 0" fill="#deddda"/><path d="M92 28h6v6h-6zm0 0" fill="#fff"/><path d="M98 22h6v6h-6zm-12-6h6v6h-6zm0 0" fill="url(#s)"/></svg>